<mxfile host="app.diagrams.net" modified="2023-04-14T08:32:07.507Z" agent="Mozilla/5.0 (Windows NT 10.0; Win64; x64) AppleWebKit/537.36 (KHTML, like Gecko) Chrome/111.0.0.0 Safari/537.36 Edg/111.0.1661.62" etag="hsiRVZRkWBomap7nq2hf" version="21.1.7" type="github">
  <diagram name="第 1 页" id="djUJ6m7IOv3AMoUayCUi">
    <mxGraphModel dx="6616" dy="4627" grid="1" gridSize="10" guides="1" tooltips="1" connect="1" arrows="1" fold="1" page="1" pageScale="1" pageWidth="1169" pageHeight="827" math="0" shadow="0">
      <root>
        <mxCell id="0" />
        <mxCell id="1" parent="0" />
        <mxCell id="1e2kQV1l2WdOp7GWkUZe-103" value="" style="group" vertex="1" connectable="0" parent="1">
          <mxGeometry x="-70" y="420" width="400" height="540" as="geometry" />
        </mxCell>
        <mxCell id="1e2kQV1l2WdOp7GWkUZe-18" value="" style="group;movable=1;resizable=1;rotatable=1;deletable=1;editable=1;locked=0;connectable=1;" vertex="1" connectable="0" parent="1e2kQV1l2WdOp7GWkUZe-103">
          <mxGeometry x="120" width="240" height="180" as="geometry" />
        </mxCell>
        <mxCell id="1e2kQV1l2WdOp7GWkUZe-19" value="" style="shape=image;verticalLabelPosition=bottom;verticalAlign=top;imageAspect=0;aspect=fixed;image=data:image/svg+xml,PHN2ZyB4bWxuczp4bGluaz0iaHR0cDovL3d3dy53My5vcmcvMTk5OS94bGluayIgeG1sbnM9Imh0dHA6Ly93d3cudzMub3JnLzIwMDAvc3ZnIiBoZWlnaHQ9IjIwMCIgd2lkdGg9IjIwMCIgdmVyc2lvbj0iMS4xIiB2aWV3Qm94PSIwIDAgMTAyNCAxMDI0IiBjbGFzcz0iaWNvbiI+PHBhdGggZmlsbD0iIzMzMzMzMyIgZD0iTTg5LjUgMzA2LjhjLTAuMi02OS4xIDI2LjktMTM1LjUgNzUuMi0xODQuOSAxMC42LTEwLjYgMTQuNi0yNi4xIDEwLjYtNDAuNS00LTE0LjUtMTUuNS0yNS42LTMwLTI5LjMtMTQuNS0zLjctMjkuOSAwLjgtNDAuMyAxMS42LTEzMy41IDEzNi43LTEzMS44IDM1NS40IDMuOCA0OTAgMTYuMyAxNi4yIDQyLjcgMTYuMSA1OC45LTAuMiAxNi4yLTE2LjMgMTYuMS00Mi43LTAuMi01OC45LTUwLjEtNDkuNi03OC4yLTExNy4zLTc4LTE4Ny44ek03MTAuOSAxNDljLTE2LjYgMTUuOS0xNy4xIDQyLjMtMS4yIDU4LjkgNTQgNTYuMyA1Mi45IDE0NS41LTIuNiAyMDAuMy0xMC45IDEwLjQtMTUuNCAyNS45LTExLjcgNDAuNSAzLjcgMTQuNiAxNS4xIDI2LjEgMjkuNyAzMCAxNC42IDMuOSAzMC4xLTAuNCA0MC42LTExLjMgODcuOC04Ni45IDg5LjYtMjI4LjIgNC0zMTcuMy03LjctOC0xOC4yLTEyLjYtMjkuMi0xMi44LTEwLjktMC4xLTIxLjYgNC0yOS42IDExLjd6IG0wIDAiLz48cGF0aCBmaWxsPSIjMzMzMzMzIiBkPSJNOTE5IDYzLjdjLTEwLjQtMTAuOC0yNS43LTE1LjMtNDAuMy0xMS42LTE0LjUgMy43LTI2IDE0LjgtMzAgMjkuMy00IDE0LjQgMC4xIDI5LjkgMTAuNiA0MC41IDEwMS40IDEwNCAxMDAuMiAyNzAuMy0yLjkgMzcyLjctMTYuMyAxNi4yLTE2LjQgNDIuNi0wLjIgNTguOSAxNi4yIDE2LjMgNDIuNiAxNi40IDU4LjkgMC4yIDEzNS43LTEzNC43IDEzNy4zLTM1My4zIDMuOS00OTB6TTMxNy4zIDQ2Ny4yYzE2LjItMTYuNCAxNi4xLTQyLjctMC4zLTU4LjktNTUuNC01NC45LTU2LjYtMTQ0LjEtMi42LTIwMC4zIDE1LjktMTYuNiAxNS40LTQzLTEuMi01OC45LTE2LjYtMTUuOS00My0xNS40LTU4LjkgMS4yLTg1LjUgODkuMS04My43IDIzMC40IDQuMSAzMTcuMyAxNi4zIDE2IDQyLjcgMTUuOSA1OC45LTAuNHogbTI1NS42LTYzLjNjNDAuNi0yNy4xIDU4LjctNzcuNiA0NC43LTEyNC40LTE0LTQ2LjgtNTctNzguOS0xMDUuOC03OS4yLTQ4LjgtMC4zLTkyLjEgMzEuNC0xMDYuNyA3OC0xNC42IDQ2LjYgMyA5Ny4zIDQzLjQgMTI0LjhMMjYxLjQgOTE3LjNjLTcuOCAyMS42IDMuMyA0NS41IDI0LjkgNTMuNCAyMS42IDcuOCA0NS41LTMuNCA1My40LTI1TDM3OS4zIDgzN2gyNjIuNmw0MC41IDExMS41YzcuMiAxOS41IDI4LjcgMjkuNiA0OC4zIDIyLjVsNy41LTIuN2MxOS41LTcuMiAyOS42LTI4LjcgMjIuNS00OC4zTDU3Mi45IDQwMy45eiBtLTYyLjMgNzIuNEw1NjEgNjE0LjhINDYwLjJsNTAuNC0xMzguNXpNNDA2LjMgNzYyLjlsMjctNzQuMUg1ODhsMjcgNzQuMUg0MDYuM3ogbTAgMCIvPjwvc3ZnPg==" vertex="1" parent="1e2kQV1l2WdOp7GWkUZe-18">
          <mxGeometry width="156.52173913043478" height="156.52173913043478" as="geometry" />
        </mxCell>
        <mxCell id="1e2kQV1l2WdOp7GWkUZe-20" value="" style="shape=image;verticalLabelPosition=bottom;verticalAlign=top;imageAspect=0;aspect=fixed;image=data:image/svg+xml,PHN2ZyB4bWxuczp4bGluaz0iaHR0cDovL3d3dy53My5vcmcvMTk5OS94bGluayIgeG1sbnM9Imh0dHA6Ly93d3cudzMub3JnLzIwMDAvc3ZnIiBoZWlnaHQ9IjIwMCIgd2lkdGg9IjIwMCIgdmVyc2lvbj0iMS4xIiB2aWV3Qm94PSIwIDAgMTAyNCAxMDI0IiBjbGFzcz0iaWNvbiI+PHBhdGggZmlsbD0iIzMzMzMzMyIgZD0iTTY2NC41NDUgODZjNDguMyAwIDg3LjQ1NSAzOS4xNDggODcuNDU1IDg3LjQzOVY5MDAuNTZDNzUyIDk0OC44NTIgNzEyLjg0NSA5ODggNjY0LjU0NSA5ODhoLTMwNi4wOWMtNDguMyAwLTg3LjQ1NS0zOS4xNDgtODcuNDU1LTg3LjQzOVYxNzMuNDRDMjcxIDEyNS4xNDggMzEwLjE1NSA4NiAzNTguNDU1IDg2eiBtMCA1OS44MjdoLTMwNi4wOWMtMTUuMjUzIDAtMjcuNjE4IDEyLjM2Mi0yNy42MTggMjcuNjEyVjkwMC41NmMwIDE1LjI1IDEyLjM2NSAyNy42MTIgMjcuNjE4IDI3LjYxMmgzMDYuMDljMTUuMjUzIDAgMjcuNjE4LTEyLjM2MiAyNy42MTgtMjcuNjEyVjE3My40NGMwLTE1LjI1LTEyLjM2NS0yNy42MTItMjcuNjE4LTI3LjYxMnpNNTEyLjY1MSA2NzAuNDU5YzI2LjY5MiAwIDQ4LjMzIDIxLjYzNCA0OC4zMyA0OC4zMjIgMCAyNi42ODctMjEuNjM4IDQ4LjMyMS00OC4zMyA0OC4zMjEtMjYuNjkyIDAtNDguMzMtMjEuNjM0LTQ4LjMzLTQ4LjMyMSAwLTI2LjY4OCAyMS42MzgtNDguMzIyIDQ4LjMzLTQ4LjMyMnogbTk4LjcxNC0yNzEuNTJjMTYuNTI0IDAgMjkuOTE5IDEzLjM5MiAyOS45MTkgMjkuOTEzIDAgMTYuMjg1LTEzLjAxNSAyOS41My0yOS4yMTIgMjkuOTA1bC0wLjcwNyAwLjAwOEg0MTMuNzA2Yy0xNi41MjMgMC0yOS45MTgtMTMuMzkyLTI5LjkxOC0yOS45MTMgMC0xNi4yODUgMTMuMDE1LTI5LjUzIDI5LjIxMi0yOS45MDVsMC43MDYtMC4wMDhoMTk3LjY2eiBtMC0xMTYuMDEzYzE2LjUyNCAwIDI5LjkxOSAxMy4zOTMgMjkuOTE5IDI5LjkxMyAwIDE2LjI4NS0xMy4wMTUgMjkuNTMtMjkuMjEyIDI5LjkwNWwtMC43MDcgMC4wMDhINDEzLjcwNmMtMTYuNTIzIDAtMjkuOTE4LTEzLjM5Mi0yOS45MTgtMjkuOTEzIDAtMTYuMjg0IDEzLjAxNS0yOS41MyAyOS4yMTItMjkuOTA1bDAuNzA2LTAuMDA4aDE5Ny42NnoiLz48L3N2Zz4=" vertex="1" parent="1e2kQV1l2WdOp7GWkUZe-18">
          <mxGeometry x="102.63157894736842" y="109.56521739130436" width="70.43478260869566" height="70.43478260869566" as="geometry" />
        </mxCell>
        <mxCell id="1e2kQV1l2WdOp7GWkUZe-21" value="" style="shape=image;verticalLabelPosition=bottom;verticalAlign=top;imageAspect=0;aspect=fixed;image=data:image/svg+xml,PHN2ZyB4bWxuczp4bGluaz0iaHR0cDovL3d3dy53My5vcmcvMTk5OS94bGluayIgeG1sbnM9Imh0dHA6Ly93d3cudzMub3JnLzIwMDAvc3ZnIiBoZWlnaHQ9IjIwMCIgd2lkdGg9IjIwMCIgdmVyc2lvbj0iMS4xIiB2aWV3Qm94PSIwIDAgMTAyNCAxMDI0IiBjbGFzcz0iaWNvbiI+PHBhdGggZmlsbD0iIzMzMzMzMyIgZD0iTTY2NC41NDUgODZjNDguMyAwIDg3LjQ1NSAzOS4xNDggODcuNDU1IDg3LjQzOVY5MDAuNTZDNzUyIDk0OC44NTIgNzEyLjg0NSA5ODggNjY0LjU0NSA5ODhoLTMwNi4wOWMtNDguMyAwLTg3LjQ1NS0zOS4xNDgtODcuNDU1LTg3LjQzOVYxNzMuNDRDMjcxIDEyNS4xNDggMzEwLjE1NSA4NiAzNTguNDU1IDg2eiBtMCA1OS44MjdoLTMwNi4wOWMtMTUuMjUzIDAtMjcuNjE4IDEyLjM2Mi0yNy42MTggMjcuNjEyVjkwMC41NmMwIDE1LjI1IDEyLjM2NSAyNy42MTIgMjcuNjE4IDI3LjYxMmgzMDYuMDljMTUuMjUzIDAgMjcuNjE4LTEyLjM2MiAyNy42MTgtMjcuNjEyVjE3My40NGMwLTE1LjI1LTEyLjM2NS0yNy42MTItMjcuNjE4LTI3LjYxMnpNNTEyLjY1MSA2NzAuNDU5YzI2LjY5MiAwIDQ4LjMzIDIxLjYzNCA0OC4zMyA0OC4zMjIgMCAyNi42ODctMjEuNjM4IDQ4LjMyMS00OC4zMyA0OC4zMjEtMjYuNjkyIDAtNDguMzMtMjEuNjM0LTQ4LjMzLTQ4LjMyMSAwLTI2LjY4OCAyMS42MzgtNDguMzIyIDQ4LjMzLTQ4LjMyMnogbTk4LjcxNC0yNzEuNTJjMTYuNTI0IDAgMjkuOTE5IDEzLjM5MiAyOS45MTkgMjkuOTEzIDAgMTYuMjg1LTEzLjAxNSAyOS41My0yOS4yMTIgMjkuOTA1bC0wLjcwNyAwLjAwOEg0MTMuNzA2Yy0xNi41MjMgMC0yOS45MTgtMTMuMzkyLTI5LjkxOC0yOS45MTMgMC0xNi4yODUgMTMuMDE1LTI5LjUzIDI5LjIxMi0yOS45MDVsMC43MDYtMC4wMDhoMTk3LjY2eiBtMC0xMTYuMDEzYzE2LjUyNCAwIDI5LjkxOSAxMy4zOTMgMjkuOTE5IDI5LjkxMyAwIDE2LjI4NS0xMy4wMTUgMjkuNTMtMjkuMjEyIDI5LjkwNWwtMC43MDcgMC4wMDhINDEzLjcwNmMtMTYuNTIzIDAtMjkuOTE4LTEzLjM5Mi0yOS45MTgtMjkuOTEzIDAtMTYuMjg0IDEzLjAxNS0yOS41MyAyOS4yMTItMjkuOTA1bDAuNzA2LTAuMDA4aDE5Ny42NnoiLz48L3N2Zz4=" vertex="1" parent="1e2kQV1l2WdOp7GWkUZe-18">
          <mxGeometry x="135.78947368421052" y="109.56521739130436" width="70.43478260869566" height="70.43478260869566" as="geometry" />
        </mxCell>
        <mxCell id="1e2kQV1l2WdOp7GWkUZe-22" value="" style="shape=image;verticalLabelPosition=bottom;verticalAlign=top;imageAspect=0;aspect=fixed;image=data:image/svg+xml,PHN2ZyB4bWxuczp4bGluaz0iaHR0cDovL3d3dy53My5vcmcvMTk5OS94bGluayIgeG1sbnM9Imh0dHA6Ly93d3cudzMub3JnLzIwMDAvc3ZnIiBoZWlnaHQ9IjIwMCIgd2lkdGg9IjIwMCIgdmVyc2lvbj0iMS4xIiB2aWV3Qm94PSIwIDAgMTAyNCAxMDI0IiBjbGFzcz0iaWNvbiI+PHBhdGggZmlsbD0iIzMzMzMzMyIgZD0iTTY2NC41NDUgODZjNDguMyAwIDg3LjQ1NSAzOS4xNDggODcuNDU1IDg3LjQzOVY5MDAuNTZDNzUyIDk0OC44NTIgNzEyLjg0NSA5ODggNjY0LjU0NSA5ODhoLTMwNi4wOWMtNDguMyAwLTg3LjQ1NS0zOS4xNDgtODcuNDU1LTg3LjQzOVYxNzMuNDRDMjcxIDEyNS4xNDggMzEwLjE1NSA4NiAzNTguNDU1IDg2eiBtMCA1OS44MjdoLTMwNi4wOWMtMTUuMjUzIDAtMjcuNjE4IDEyLjM2Mi0yNy42MTggMjcuNjEyVjkwMC41NmMwIDE1LjI1IDEyLjM2NSAyNy42MTIgMjcuNjE4IDI3LjYxMmgzMDYuMDljMTUuMjUzIDAgMjcuNjE4LTEyLjM2MiAyNy42MTgtMjcuNjEyVjE3My40NGMwLTE1LjI1LTEyLjM2NS0yNy42MTItMjcuNjE4LTI3LjYxMnpNNTEyLjY1MSA2NzAuNDU5YzI2LjY5MiAwIDQ4LjMzIDIxLjYzNCA0OC4zMyA0OC4zMjIgMCAyNi42ODctMjEuNjM4IDQ4LjMyMS00OC4zMyA0OC4zMjEtMjYuNjkyIDAtNDguMzMtMjEuNjM0LTQ4LjMzLTQ4LjMyMSAwLTI2LjY4OCAyMS42MzgtNDguMzIyIDQ4LjMzLTQ4LjMyMnogbTk4LjcxNC0yNzEuNTJjMTYuNTI0IDAgMjkuOTE5IDEzLjM5MiAyOS45MTkgMjkuOTEzIDAgMTYuMjg1LTEzLjAxNSAyOS41My0yOS4yMTIgMjkuOTA1bC0wLjcwNyAwLjAwOEg0MTMuNzA2Yy0xNi41MjMgMC0yOS45MTgtMTMuMzkyLTI5LjkxOC0yOS45MTMgMC0xNi4yODUgMTMuMDE1LTI5LjUzIDI5LjIxMi0yOS45MDVsMC43MDYtMC4wMDhoMTk3LjY2eiBtMC0xMTYuMDEzYzE2LjUyNCAwIDI5LjkxOSAxMy4zOTMgMjkuOTE5IDI5LjkxMyAwIDE2LjI4NS0xMy4wMTUgMjkuNTMtMjkuMjEyIDI5LjkwNWwtMC43MDcgMC4wMDhINDEzLjcwNmMtMTYuNTIzIDAtMjkuOTE4LTEzLjM5Mi0yOS45MTgtMjkuOTEzIDAtMTYuMjg0IDEzLjAxNS0yOS41MyAyOS4yMTItMjkuOTA1bDAuNzA2LTAuMDA4aDE5Ny42NnoiLz48L3N2Zz4=" vertex="1" parent="1e2kQV1l2WdOp7GWkUZe-18">
          <mxGeometry x="168.94736842105263" y="109.56521739130436" width="70.43478260869566" height="70.43478260869566" as="geometry" />
        </mxCell>
        <mxCell id="1e2kQV1l2WdOp7GWkUZe-28" value="" style="group;movable=1;resizable=1;rotatable=1;deletable=1;editable=1;locked=0;connectable=1;" vertex="1" connectable="0" parent="1e2kQV1l2WdOp7GWkUZe-18">
          <mxGeometry width="240" height="180" as="geometry" />
        </mxCell>
        <mxCell id="1e2kQV1l2WdOp7GWkUZe-29" value="" style="shape=image;verticalLabelPosition=bottom;verticalAlign=top;imageAspect=0;aspect=fixed;image=data:image/svg+xml,PHN2ZyB4bWxuczp4bGluaz0iaHR0cDovL3d3dy53My5vcmcvMTk5OS94bGluayIgeG1sbnM9Imh0dHA6Ly93d3cudzMub3JnLzIwMDAvc3ZnIiBoZWlnaHQ9IjIwMCIgd2lkdGg9IjIwMCIgdmVyc2lvbj0iMS4xIiB2aWV3Qm94PSIwIDAgMTAyNCAxMDI0IiBjbGFzcz0iaWNvbiI+PHBhdGggZmlsbD0iIzMzMzMzMyIgZD0iTTg5LjUgMzA2LjhjLTAuMi02OS4xIDI2LjktMTM1LjUgNzUuMi0xODQuOSAxMC42LTEwLjYgMTQuNi0yNi4xIDEwLjYtNDAuNS00LTE0LjUtMTUuNS0yNS42LTMwLTI5LjMtMTQuNS0zLjctMjkuOSAwLjgtNDAuMyAxMS42LTEzMy41IDEzNi43LTEzMS44IDM1NS40IDMuOCA0OTAgMTYuMyAxNi4yIDQyLjcgMTYuMSA1OC45LTAuMiAxNi4yLTE2LjMgMTYuMS00Mi43LTAuMi01OC45LTUwLjEtNDkuNi03OC4yLTExNy4zLTc4LTE4Ny44ek03MTAuOSAxNDljLTE2LjYgMTUuOS0xNy4xIDQyLjMtMS4yIDU4LjkgNTQgNTYuMyA1Mi45IDE0NS41LTIuNiAyMDAuMy0xMC45IDEwLjQtMTUuNCAyNS45LTExLjcgNDAuNSAzLjcgMTQuNiAxNS4xIDI2LjEgMjkuNyAzMCAxNC42IDMuOSAzMC4xLTAuNCA0MC42LTExLjMgODcuOC04Ni45IDg5LjYtMjI4LjIgNC0zMTcuMy03LjctOC0xOC4yLTEyLjYtMjkuMi0xMi44LTEwLjktMC4xLTIxLjYgNC0yOS42IDExLjd6IG0wIDAiLz48cGF0aCBmaWxsPSIjMzMzMzMzIiBkPSJNOTE5IDYzLjdjLTEwLjQtMTAuOC0yNS43LTE1LjMtNDAuMy0xMS42LTE0LjUgMy43LTI2IDE0LjgtMzAgMjkuMy00IDE0LjQgMC4xIDI5LjkgMTAuNiA0MC41IDEwMS40IDEwNCAxMDAuMiAyNzAuMy0yLjkgMzcyLjctMTYuMyAxNi4yLTE2LjQgNDIuNi0wLjIgNTguOSAxNi4yIDE2LjMgNDIuNiAxNi40IDU4LjkgMC4yIDEzNS43LTEzNC43IDEzNy4zLTM1My4zIDMuOS00OTB6TTMxNy4zIDQ2Ny4yYzE2LjItMTYuNCAxNi4xLTQyLjctMC4zLTU4LjktNTUuNC01NC45LTU2LjYtMTQ0LjEtMi42LTIwMC4zIDE1LjktMTYuNiAxNS40LTQzLTEuMi01OC45LTE2LjYtMTUuOS00My0xNS40LTU4LjkgMS4yLTg1LjUgODkuMS04My43IDIzMC40IDQuMSAzMTcuMyAxNi4zIDE2IDQyLjcgMTUuOSA1OC45LTAuNHogbTI1NS42LTYzLjNjNDAuNi0yNy4xIDU4LjctNzcuNiA0NC43LTEyNC40LTE0LTQ2LjgtNTctNzguOS0xMDUuOC03OS4yLTQ4LjgtMC4zLTkyLjEgMzEuNC0xMDYuNyA3OC0xNC42IDQ2LjYgMyA5Ny4zIDQzLjQgMTI0LjhMMjYxLjQgOTE3LjNjLTcuOCAyMS42IDMuMyA0NS41IDI0LjkgNTMuNCAyMS42IDcuOCA0NS41LTMuNCA1My40LTI1TDM3OS4zIDgzN2gyNjIuNmw0MC41IDExMS41YzcuMiAxOS41IDI4LjcgMjkuNiA0OC4zIDIyLjVsNy41LTIuN2MxOS41LTcuMiAyOS42LTI4LjcgMjIuNS00OC4zTDU3Mi45IDQwMy45eiBtLTYyLjMgNzIuNEw1NjEgNjE0LjhINDYwLjJsNTAuNC0xMzguNXpNNDA2LjMgNzYyLjlsMjctNzQuMUg1ODhsMjcgNzQuMUg0MDYuM3ogbTAgMCIvPjwvc3ZnPg==" vertex="1" parent="1e2kQV1l2WdOp7GWkUZe-28">
          <mxGeometry width="156.52173913043478" height="156.52173913043478" as="geometry" />
        </mxCell>
        <mxCell id="1e2kQV1l2WdOp7GWkUZe-30" value="" style="shape=image;verticalLabelPosition=bottom;verticalAlign=top;imageAspect=0;aspect=fixed;image=data:image/svg+xml,PHN2ZyB4bWxuczp4bGluaz0iaHR0cDovL3d3dy53My5vcmcvMTk5OS94bGluayIgeG1sbnM9Imh0dHA6Ly93d3cudzMub3JnLzIwMDAvc3ZnIiBoZWlnaHQ9IjIwMCIgd2lkdGg9IjIwMCIgdmVyc2lvbj0iMS4xIiB2aWV3Qm94PSIwIDAgMTAyNCAxMDI0IiBjbGFzcz0iaWNvbiI+PHBhdGggZmlsbD0iIzMzMzMzMyIgZD0iTTY2NC41NDUgODZjNDguMyAwIDg3LjQ1NSAzOS4xNDggODcuNDU1IDg3LjQzOVY5MDAuNTZDNzUyIDk0OC44NTIgNzEyLjg0NSA5ODggNjY0LjU0NSA5ODhoLTMwNi4wOWMtNDguMyAwLTg3LjQ1NS0zOS4xNDgtODcuNDU1LTg3LjQzOVYxNzMuNDRDMjcxIDEyNS4xNDggMzEwLjE1NSA4NiAzNTguNDU1IDg2eiBtMCA1OS44MjdoLTMwNi4wOWMtMTUuMjUzIDAtMjcuNjE4IDEyLjM2Mi0yNy42MTggMjcuNjEyVjkwMC41NmMwIDE1LjI1IDEyLjM2NSAyNy42MTIgMjcuNjE4IDI3LjYxMmgzMDYuMDljMTUuMjUzIDAgMjcuNjE4LTEyLjM2MiAyNy42MTgtMjcuNjEyVjE3My40NGMwLTE1LjI1LTEyLjM2NS0yNy42MTItMjcuNjE4LTI3LjYxMnpNNTEyLjY1MSA2NzAuNDU5YzI2LjY5MiAwIDQ4LjMzIDIxLjYzNCA0OC4zMyA0OC4zMjIgMCAyNi42ODctMjEuNjM4IDQ4LjMyMS00OC4zMyA0OC4zMjEtMjYuNjkyIDAtNDguMzMtMjEuNjM0LTQ4LjMzLTQ4LjMyMSAwLTI2LjY4OCAyMS42MzgtNDguMzIyIDQ4LjMzLTQ4LjMyMnogbTk4LjcxNC0yNzEuNTJjMTYuNTI0IDAgMjkuOTE5IDEzLjM5MiAyOS45MTkgMjkuOTEzIDAgMTYuMjg1LTEzLjAxNSAyOS41My0yOS4yMTIgMjkuOTA1bC0wLjcwNyAwLjAwOEg0MTMuNzA2Yy0xNi41MjMgMC0yOS45MTgtMTMuMzkyLTI5LjkxOC0yOS45MTMgMC0xNi4yODUgMTMuMDE1LTI5LjUzIDI5LjIxMi0yOS45MDVsMC43MDYtMC4wMDhoMTk3LjY2eiBtMC0xMTYuMDEzYzE2LjUyNCAwIDI5LjkxOSAxMy4zOTMgMjkuOTE5IDI5LjkxMyAwIDE2LjI4NS0xMy4wMTUgMjkuNTMtMjkuMjEyIDI5LjkwNWwtMC43MDcgMC4wMDhINDEzLjcwNmMtMTYuNTIzIDAtMjkuOTE4LTEzLjM5Mi0yOS45MTgtMjkuOTEzIDAtMTYuMjg0IDEzLjAxNS0yOS41MyAyOS4yMTItMjkuOTA1bDAuNzA2LTAuMDA4aDE5Ny42NnoiLz48L3N2Zz4=" vertex="1" parent="1e2kQV1l2WdOp7GWkUZe-28">
          <mxGeometry x="102.63157894736842" y="109.56521739130436" width="70.43478260869566" height="70.43478260869566" as="geometry" />
        </mxCell>
        <mxCell id="1e2kQV1l2WdOp7GWkUZe-31" value="" style="shape=image;verticalLabelPosition=bottom;verticalAlign=top;imageAspect=0;aspect=fixed;image=data:image/svg+xml,PHN2ZyB4bWxuczp4bGluaz0iaHR0cDovL3d3dy53My5vcmcvMTk5OS94bGluayIgeG1sbnM9Imh0dHA6Ly93d3cudzMub3JnLzIwMDAvc3ZnIiBoZWlnaHQ9IjIwMCIgd2lkdGg9IjIwMCIgdmVyc2lvbj0iMS4xIiB2aWV3Qm94PSIwIDAgMTAyNCAxMDI0IiBjbGFzcz0iaWNvbiI+PHBhdGggZmlsbD0iIzMzMzMzMyIgZD0iTTY2NC41NDUgODZjNDguMyAwIDg3LjQ1NSAzOS4xNDggODcuNDU1IDg3LjQzOVY5MDAuNTZDNzUyIDk0OC44NTIgNzEyLjg0NSA5ODggNjY0LjU0NSA5ODhoLTMwNi4wOWMtNDguMyAwLTg3LjQ1NS0zOS4xNDgtODcuNDU1LTg3LjQzOVYxNzMuNDRDMjcxIDEyNS4xNDggMzEwLjE1NSA4NiAzNTguNDU1IDg2eiBtMCA1OS44MjdoLTMwNi4wOWMtMTUuMjUzIDAtMjcuNjE4IDEyLjM2Mi0yNy42MTggMjcuNjEyVjkwMC41NmMwIDE1LjI1IDEyLjM2NSAyNy42MTIgMjcuNjE4IDI3LjYxMmgzMDYuMDljMTUuMjUzIDAgMjcuNjE4LTEyLjM2MiAyNy42MTgtMjcuNjEyVjE3My40NGMwLTE1LjI1LTEyLjM2NS0yNy42MTItMjcuNjE4LTI3LjYxMnpNNTEyLjY1MSA2NzAuNDU5YzI2LjY5MiAwIDQ4LjMzIDIxLjYzNCA0OC4zMyA0OC4zMjIgMCAyNi42ODctMjEuNjM4IDQ4LjMyMS00OC4zMyA0OC4zMjEtMjYuNjkyIDAtNDguMzMtMjEuNjM0LTQ4LjMzLTQ4LjMyMSAwLTI2LjY4OCAyMS42MzgtNDguMzIyIDQ4LjMzLTQ4LjMyMnogbTk4LjcxNC0yNzEuNTJjMTYuNTI0IDAgMjkuOTE5IDEzLjM5MiAyOS45MTkgMjkuOTEzIDAgMTYuMjg1LTEzLjAxNSAyOS41My0yOS4yMTIgMjkuOTA1bC0wLjcwNyAwLjAwOEg0MTMuNzA2Yy0xNi41MjMgMC0yOS45MTgtMTMuMzkyLTI5LjkxOC0yOS45MTMgMC0xNi4yODUgMTMuMDE1LTI5LjUzIDI5LjIxMi0yOS45MDVsMC43MDYtMC4wMDhoMTk3LjY2eiBtMC0xMTYuMDEzYzE2LjUyNCAwIDI5LjkxOSAxMy4zOTMgMjkuOTE5IDI5LjkxMyAwIDE2LjI4NS0xMy4wMTUgMjkuNTMtMjkuMjEyIDI5LjkwNWwtMC43MDcgMC4wMDhINDEzLjcwNmMtMTYuNTIzIDAtMjkuOTE4LTEzLjM5Mi0yOS45MTgtMjkuOTEzIDAtMTYuMjg0IDEzLjAxNS0yOS41MyAyOS4yMTItMjkuOTA1bDAuNzA2LTAuMDA4aDE5Ny42NnoiLz48L3N2Zz4=" vertex="1" parent="1e2kQV1l2WdOp7GWkUZe-28">
          <mxGeometry x="135.78947368421052" y="109.56521739130436" width="70.43478260869566" height="70.43478260869566" as="geometry" />
        </mxCell>
        <mxCell id="1e2kQV1l2WdOp7GWkUZe-32" value="" style="shape=image;verticalLabelPosition=bottom;verticalAlign=top;imageAspect=0;aspect=fixed;image=data:image/svg+xml,PHN2ZyB4bWxuczp4bGluaz0iaHR0cDovL3d3dy53My5vcmcvMTk5OS94bGluayIgeG1sbnM9Imh0dHA6Ly93d3cudzMub3JnLzIwMDAvc3ZnIiBoZWlnaHQ9IjIwMCIgd2lkdGg9IjIwMCIgdmVyc2lvbj0iMS4xIiB2aWV3Qm94PSIwIDAgMTAyNCAxMDI0IiBjbGFzcz0iaWNvbiI+PHBhdGggZmlsbD0iIzMzMzMzMyIgZD0iTTY2NC41NDUgODZjNDguMyAwIDg3LjQ1NSAzOS4xNDggODcuNDU1IDg3LjQzOVY5MDAuNTZDNzUyIDk0OC44NTIgNzEyLjg0NSA5ODggNjY0LjU0NSA5ODhoLTMwNi4wOWMtNDguMyAwLTg3LjQ1NS0zOS4xNDgtODcuNDU1LTg3LjQzOVYxNzMuNDRDMjcxIDEyNS4xNDggMzEwLjE1NSA4NiAzNTguNDU1IDg2eiBtMCA1OS44MjdoLTMwNi4wOWMtMTUuMjUzIDAtMjcuNjE4IDEyLjM2Mi0yNy42MTggMjcuNjEyVjkwMC41NmMwIDE1LjI1IDEyLjM2NSAyNy42MTIgMjcuNjE4IDI3LjYxMmgzMDYuMDljMTUuMjUzIDAgMjcuNjE4LTEyLjM2MiAyNy42MTgtMjcuNjEyVjE3My40NGMwLTE1LjI1LTEyLjM2NS0yNy42MTItMjcuNjE4LTI3LjYxMnpNNTEyLjY1MSA2NzAuNDU5YzI2LjY5MiAwIDQ4LjMzIDIxLjYzNCA0OC4zMyA0OC4zMjIgMCAyNi42ODctMjEuNjM4IDQ4LjMyMS00OC4zMyA0OC4zMjEtMjYuNjkyIDAtNDguMzMtMjEuNjM0LTQ4LjMzLTQ4LjMyMSAwLTI2LjY4OCAyMS42MzgtNDguMzIyIDQ4LjMzLTQ4LjMyMnogbTk4LjcxNC0yNzEuNTJjMTYuNTI0IDAgMjkuOTE5IDEzLjM5MiAyOS45MTkgMjkuOTEzIDAgMTYuMjg1LTEzLjAxNSAyOS41My0yOS4yMTIgMjkuOTA1bC0wLjcwNyAwLjAwOEg0MTMuNzA2Yy0xNi41MjMgMC0yOS45MTgtMTMuMzkyLTI5LjkxOC0yOS45MTMgMC0xNi4yODUgMTMuMDE1LTI5LjUzIDI5LjIxMi0yOS45MDVsMC43MDYtMC4wMDhoMTk3LjY2eiBtMC0xMTYuMDEzYzE2LjUyNCAwIDI5LjkxOSAxMy4zOTMgMjkuOTE5IDI5LjkxMyAwIDE2LjI4NS0xMy4wMTUgMjkuNTMtMjkuMjEyIDI5LjkwNWwtMC43MDcgMC4wMDhINDEzLjcwNmMtMTYuNTIzIDAtMjkuOTE4LTEzLjM5Mi0yOS45MTgtMjkuOTEzIDAtMTYuMjg0IDEzLjAxNS0yOS41MyAyOS4yMTItMjkuOTA1bDAuNzA2LTAuMDA4aDE5Ny42NnoiLz48L3N2Zz4=" vertex="1" parent="1e2kQV1l2WdOp7GWkUZe-28">
          <mxGeometry x="168.94736842105263" y="109.56521739130436" width="70.43478260869566" height="70.43478260869566" as="geometry" />
        </mxCell>
        <mxCell id="1e2kQV1l2WdOp7GWkUZe-33" value="" style="group;movable=1;resizable=1;rotatable=1;deletable=1;editable=1;locked=0;connectable=1;" vertex="1" connectable="0" parent="1e2kQV1l2WdOp7GWkUZe-28">
          <mxGeometry x="-0.6200000000000045" width="240" height="180" as="geometry" />
        </mxCell>
        <mxCell id="1e2kQV1l2WdOp7GWkUZe-34" value="" style="shape=image;verticalLabelPosition=bottom;verticalAlign=top;imageAspect=0;aspect=fixed;image=data:image/svg+xml,PHN2ZyB4bWxuczp4bGluaz0iaHR0cDovL3d3dy53My5vcmcvMTk5OS94bGluayIgeG1sbnM9Imh0dHA6Ly93d3cudzMub3JnLzIwMDAvc3ZnIiBoZWlnaHQ9IjIwMCIgd2lkdGg9IjIwMCIgdmVyc2lvbj0iMS4xIiB2aWV3Qm94PSIwIDAgMTAyNCAxMDI0IiBjbGFzcz0iaWNvbiI+PHBhdGggZmlsbD0iIzMzMzMzMyIgZD0iTTg5LjUgMzA2LjhjLTAuMi02OS4xIDI2LjktMTM1LjUgNzUuMi0xODQuOSAxMC42LTEwLjYgMTQuNi0yNi4xIDEwLjYtNDAuNS00LTE0LjUtMTUuNS0yNS42LTMwLTI5LjMtMTQuNS0zLjctMjkuOSAwLjgtNDAuMyAxMS42LTEzMy41IDEzNi43LTEzMS44IDM1NS40IDMuOCA0OTAgMTYuMyAxNi4yIDQyLjcgMTYuMSA1OC45LTAuMiAxNi4yLTE2LjMgMTYuMS00Mi43LTAuMi01OC45LTUwLjEtNDkuNi03OC4yLTExNy4zLTc4LTE4Ny44ek03MTAuOSAxNDljLTE2LjYgMTUuOS0xNy4xIDQyLjMtMS4yIDU4LjkgNTQgNTYuMyA1Mi45IDE0NS41LTIuNiAyMDAuMy0xMC45IDEwLjQtMTUuNCAyNS45LTExLjcgNDAuNSAzLjcgMTQuNiAxNS4xIDI2LjEgMjkuNyAzMCAxNC42IDMuOSAzMC4xLTAuNCA0MC42LTExLjMgODcuOC04Ni45IDg5LjYtMjI4LjIgNC0zMTcuMy03LjctOC0xOC4yLTEyLjYtMjkuMi0xMi44LTEwLjktMC4xLTIxLjYgNC0yOS42IDExLjd6IG0wIDAiLz48cGF0aCBmaWxsPSIjMzMzMzMzIiBkPSJNOTE5IDYzLjdjLTEwLjQtMTAuOC0yNS43LTE1LjMtNDAuMy0xMS42LTE0LjUgMy43LTI2IDE0LjgtMzAgMjkuMy00IDE0LjQgMC4xIDI5LjkgMTAuNiA0MC41IDEwMS40IDEwNCAxMDAuMiAyNzAuMy0yLjkgMzcyLjctMTYuMyAxNi4yLTE2LjQgNDIuNi0wLjIgNTguOSAxNi4yIDE2LjMgNDIuNiAxNi40IDU4LjkgMC4yIDEzNS43LTEzNC43IDEzNy4zLTM1My4zIDMuOS00OTB6TTMxNy4zIDQ2Ny4yYzE2LjItMTYuNCAxNi4xLTQyLjctMC4zLTU4LjktNTUuNC01NC45LTU2LjYtMTQ0LjEtMi42LTIwMC4zIDE1LjktMTYuNiAxNS40LTQzLTEuMi01OC45LTE2LjYtMTUuOS00My0xNS40LTU4LjkgMS4yLTg1LjUgODkuMS04My43IDIzMC40IDQuMSAzMTcuMyAxNi4zIDE2IDQyLjcgMTUuOSA1OC45LTAuNHogbTI1NS42LTYzLjNjNDAuNi0yNy4xIDU4LjctNzcuNiA0NC43LTEyNC40LTE0LTQ2LjgtNTctNzguOS0xMDUuOC03OS4yLTQ4LjgtMC4zLTkyLjEgMzEuNC0xMDYuNyA3OC0xNC42IDQ2LjYgMyA5Ny4zIDQzLjQgMTI0LjhMMjYxLjQgOTE3LjNjLTcuOCAyMS42IDMuMyA0NS41IDI0LjkgNTMuNCAyMS42IDcuOCA0NS41LTMuNCA1My40LTI1TDM3OS4zIDgzN2gyNjIuNmw0MC41IDExMS41YzcuMiAxOS41IDI4LjcgMjkuNiA0OC4zIDIyLjVsNy41LTIuN2MxOS41LTcuMiAyOS42LTI4LjcgMjIuNS00OC4zTDU3Mi45IDQwMy45eiBtLTYyLjMgNzIuNEw1NjEgNjE0LjhINDYwLjJsNTAuNC0xMzguNXpNNDA2LjMgNzYyLjlsMjctNzQuMUg1ODhsMjcgNzQuMUg0MDYuM3ogbTAgMCIvPjwvc3ZnPg==" vertex="1" parent="1e2kQV1l2WdOp7GWkUZe-33">
          <mxGeometry width="156.52173913043478" height="156.52173913043478" as="geometry" />
        </mxCell>
        <mxCell id="1e2kQV1l2WdOp7GWkUZe-35" value="" style="shape=image;verticalLabelPosition=bottom;verticalAlign=top;imageAspect=0;aspect=fixed;image=data:image/svg+xml,PHN2ZyB4bWxuczp4bGluaz0iaHR0cDovL3d3dy53My5vcmcvMTk5OS94bGluayIgeG1sbnM9Imh0dHA6Ly93d3cudzMub3JnLzIwMDAvc3ZnIiBoZWlnaHQ9IjIwMCIgd2lkdGg9IjIwMCIgdmVyc2lvbj0iMS4xIiB2aWV3Qm94PSIwIDAgMTAyNCAxMDI0IiBjbGFzcz0iaWNvbiI+PHBhdGggZmlsbD0iIzMzMzMzMyIgZD0iTTY2NC41NDUgODZjNDguMyAwIDg3LjQ1NSAzOS4xNDggODcuNDU1IDg3LjQzOVY5MDAuNTZDNzUyIDk0OC44NTIgNzEyLjg0NSA5ODggNjY0LjU0NSA5ODhoLTMwNi4wOWMtNDguMyAwLTg3LjQ1NS0zOS4xNDgtODcuNDU1LTg3LjQzOVYxNzMuNDRDMjcxIDEyNS4xNDggMzEwLjE1NSA4NiAzNTguNDU1IDg2eiBtMCA1OS44MjdoLTMwNi4wOWMtMTUuMjUzIDAtMjcuNjE4IDEyLjM2Mi0yNy42MTggMjcuNjEyVjkwMC41NmMwIDE1LjI1IDEyLjM2NSAyNy42MTIgMjcuNjE4IDI3LjYxMmgzMDYuMDljMTUuMjUzIDAgMjcuNjE4LTEyLjM2MiAyNy42MTgtMjcuNjEyVjE3My40NGMwLTE1LjI1LTEyLjM2NS0yNy42MTItMjcuNjE4LTI3LjYxMnpNNTEyLjY1MSA2NzAuNDU5YzI2LjY5MiAwIDQ4LjMzIDIxLjYzNCA0OC4zMyA0OC4zMjIgMCAyNi42ODctMjEuNjM4IDQ4LjMyMS00OC4zMyA0OC4zMjEtMjYuNjkyIDAtNDguMzMtMjEuNjM0LTQ4LjMzLTQ4LjMyMSAwLTI2LjY4OCAyMS42MzgtNDguMzIyIDQ4LjMzLTQ4LjMyMnogbTk4LjcxNC0yNzEuNTJjMTYuNTI0IDAgMjkuOTE5IDEzLjM5MiAyOS45MTkgMjkuOTEzIDAgMTYuMjg1LTEzLjAxNSAyOS41My0yOS4yMTIgMjkuOTA1bC0wLjcwNyAwLjAwOEg0MTMuNzA2Yy0xNi41MjMgMC0yOS45MTgtMTMuMzkyLTI5LjkxOC0yOS45MTMgMC0xNi4yODUgMTMuMDE1LTI5LjUzIDI5LjIxMi0yOS45MDVsMC43MDYtMC4wMDhoMTk3LjY2eiBtMC0xMTYuMDEzYzE2LjUyNCAwIDI5LjkxOSAxMy4zOTMgMjkuOTE5IDI5LjkxMyAwIDE2LjI4NS0xMy4wMTUgMjkuNTMtMjkuMjEyIDI5LjkwNWwtMC43MDcgMC4wMDhINDEzLjcwNmMtMTYuNTIzIDAtMjkuOTE4LTEzLjM5Mi0yOS45MTgtMjkuOTEzIDAtMTYuMjg0IDEzLjAxNS0yOS41MyAyOS4yMTItMjkuOTA1bDAuNzA2LTAuMDA4aDE5Ny42NnoiLz48L3N2Zz4=" vertex="1" parent="1e2kQV1l2WdOp7GWkUZe-33">
          <mxGeometry x="102.63157894736842" y="109.56521739130436" width="70.43478260869566" height="70.43478260869566" as="geometry" />
        </mxCell>
        <mxCell id="1e2kQV1l2WdOp7GWkUZe-36" value="" style="shape=image;verticalLabelPosition=bottom;verticalAlign=top;imageAspect=0;aspect=fixed;image=data:image/svg+xml,PHN2ZyB4bWxuczp4bGluaz0iaHR0cDovL3d3dy53My5vcmcvMTk5OS94bGluayIgeG1sbnM9Imh0dHA6Ly93d3cudzMub3JnLzIwMDAvc3ZnIiBoZWlnaHQ9IjIwMCIgd2lkdGg9IjIwMCIgdmVyc2lvbj0iMS4xIiB2aWV3Qm94PSIwIDAgMTAyNCAxMDI0IiBjbGFzcz0iaWNvbiI+PHBhdGggZmlsbD0iIzMzMzMzMyIgZD0iTTY2NC41NDUgODZjNDguMyAwIDg3LjQ1NSAzOS4xNDggODcuNDU1IDg3LjQzOVY5MDAuNTZDNzUyIDk0OC44NTIgNzEyLjg0NSA5ODggNjY0LjU0NSA5ODhoLTMwNi4wOWMtNDguMyAwLTg3LjQ1NS0zOS4xNDgtODcuNDU1LTg3LjQzOVYxNzMuNDRDMjcxIDEyNS4xNDggMzEwLjE1NSA4NiAzNTguNDU1IDg2eiBtMCA1OS44MjdoLTMwNi4wOWMtMTUuMjUzIDAtMjcuNjE4IDEyLjM2Mi0yNy42MTggMjcuNjEyVjkwMC41NmMwIDE1LjI1IDEyLjM2NSAyNy42MTIgMjcuNjE4IDI3LjYxMmgzMDYuMDljMTUuMjUzIDAgMjcuNjE4LTEyLjM2MiAyNy42MTgtMjcuNjEyVjE3My40NGMwLTE1LjI1LTEyLjM2NS0yNy42MTItMjcuNjE4LTI3LjYxMnpNNTEyLjY1MSA2NzAuNDU5YzI2LjY5MiAwIDQ4LjMzIDIxLjYzNCA0OC4zMyA0OC4zMjIgMCAyNi42ODctMjEuNjM4IDQ4LjMyMS00OC4zMyA0OC4zMjEtMjYuNjkyIDAtNDguMzMtMjEuNjM0LTQ4LjMzLTQ4LjMyMSAwLTI2LjY4OCAyMS42MzgtNDguMzIyIDQ4LjMzLTQ4LjMyMnogbTk4LjcxNC0yNzEuNTJjMTYuNTI0IDAgMjkuOTE5IDEzLjM5MiAyOS45MTkgMjkuOTEzIDAgMTYuMjg1LTEzLjAxNSAyOS41My0yOS4yMTIgMjkuOTA1bC0wLjcwNyAwLjAwOEg0MTMuNzA2Yy0xNi41MjMgMC0yOS45MTgtMTMuMzkyLTI5LjkxOC0yOS45MTMgMC0xNi4yODUgMTMuMDE1LTI5LjUzIDI5LjIxMi0yOS45MDVsMC43MDYtMC4wMDhoMTk3LjY2eiBtMC0xMTYuMDEzYzE2LjUyNCAwIDI5LjkxOSAxMy4zOTMgMjkuOTE5IDI5LjkxMyAwIDE2LjI4NS0xMy4wMTUgMjkuNTMtMjkuMjEyIDI5LjkwNWwtMC43MDcgMC4wMDhINDEzLjcwNmMtMTYuNTIzIDAtMjkuOTE4LTEzLjM5Mi0yOS45MTgtMjkuOTEzIDAtMTYuMjg0IDEzLjAxNS0yOS41MyAyOS4yMTItMjkuOTA1bDAuNzA2LTAuMDA4aDE5Ny42NnoiLz48L3N2Zz4=" vertex="1" parent="1e2kQV1l2WdOp7GWkUZe-33">
          <mxGeometry x="135.78947368421052" y="109.56521739130436" width="70.43478260869566" height="70.43478260869566" as="geometry" />
        </mxCell>
        <mxCell id="1e2kQV1l2WdOp7GWkUZe-37" value="" style="shape=image;verticalLabelPosition=bottom;verticalAlign=top;imageAspect=0;aspect=fixed;image=data:image/svg+xml,PHN2ZyB4bWxuczp4bGluaz0iaHR0cDovL3d3dy53My5vcmcvMTk5OS94bGluayIgeG1sbnM9Imh0dHA6Ly93d3cudzMub3JnLzIwMDAvc3ZnIiBoZWlnaHQ9IjIwMCIgd2lkdGg9IjIwMCIgdmVyc2lvbj0iMS4xIiB2aWV3Qm94PSIwIDAgMTAyNCAxMDI0IiBjbGFzcz0iaWNvbiI+PHBhdGggZmlsbD0iIzMzMzMzMyIgZD0iTTY2NC41NDUgODZjNDguMyAwIDg3LjQ1NSAzOS4xNDggODcuNDU1IDg3LjQzOVY5MDAuNTZDNzUyIDk0OC44NTIgNzEyLjg0NSA5ODggNjY0LjU0NSA5ODhoLTMwNi4wOWMtNDguMyAwLTg3LjQ1NS0zOS4xNDgtODcuNDU1LTg3LjQzOVYxNzMuNDRDMjcxIDEyNS4xNDggMzEwLjE1NSA4NiAzNTguNDU1IDg2eiBtMCA1OS44MjdoLTMwNi4wOWMtMTUuMjUzIDAtMjcuNjE4IDEyLjM2Mi0yNy42MTggMjcuNjEyVjkwMC41NmMwIDE1LjI1IDEyLjM2NSAyNy42MTIgMjcuNjE4IDI3LjYxMmgzMDYuMDljMTUuMjUzIDAgMjcuNjE4LTEyLjM2MiAyNy42MTgtMjcuNjEyVjE3My40NGMwLTE1LjI1LTEyLjM2NS0yNy42MTItMjcuNjE4LTI3LjYxMnpNNTEyLjY1MSA2NzAuNDU5YzI2LjY5MiAwIDQ4LjMzIDIxLjYzNCA0OC4zMyA0OC4zMjIgMCAyNi42ODctMjEuNjM4IDQ4LjMyMS00OC4zMyA0OC4zMjEtMjYuNjkyIDAtNDguMzMtMjEuNjM0LTQ4LjMzLTQ4LjMyMSAwLTI2LjY4OCAyMS42MzgtNDguMzIyIDQ4LjMzLTQ4LjMyMnogbTk4LjcxNC0yNzEuNTJjMTYuNTI0IDAgMjkuOTE5IDEzLjM5MiAyOS45MTkgMjkuOTEzIDAgMTYuMjg1LTEzLjAxNSAyOS41My0yOS4yMTIgMjkuOTA1bC0wLjcwNyAwLjAwOEg0MTMuNzA2Yy0xNi41MjMgMC0yOS45MTgtMTMuMzkyLTI5LjkxOC0yOS45MTMgMC0xNi4yODUgMTMuMDE1LTI5LjUzIDI5LjIxMi0yOS45MDVsMC43MDYtMC4wMDhoMTk3LjY2eiBtMC0xMTYuMDEzYzE2LjUyNCAwIDI5LjkxOSAxMy4zOTMgMjkuOTE5IDI5LjkxMyAwIDE2LjI4NS0xMy4wMTUgMjkuNTMtMjkuMjEyIDI5LjkwNWwtMC43MDcgMC4wMDhINDEzLjcwNmMtMTYuNTIzIDAtMjkuOTE4LTEzLjM5Mi0yOS45MTgtMjkuOTEzIDAtMTYuMjg0IDEzLjAxNS0yOS41MyAyOS4yMTItMjkuOTA1bDAuNzA2LTAuMDA4aDE5Ny42NnoiLz48L3N2Zz4=" vertex="1" parent="1e2kQV1l2WdOp7GWkUZe-33">
          <mxGeometry x="168.94736842105263" y="109.56521739130436" width="70.43478260869566" height="70.43478260869566" as="geometry" />
        </mxCell>
        <mxCell id="1e2kQV1l2WdOp7GWkUZe-73" value="" style="shape=image;verticalLabelPosition=bottom;verticalAlign=top;imageAspect=0;aspect=fixed;image=data:image/svg+xml,PHN2ZyB4bWxuczp4bGluaz0iaHR0cDovL3d3dy53My5vcmcvMTk5OS94bGluayIgeG1sbnM9Imh0dHA6Ly93d3cudzMub3JnLzIwMDAvc3ZnIiBoZWlnaHQ9IjIwMCIgd2lkdGg9IjIwMCIgdmVyc2lvbj0iMS4xIiB2aWV3Qm94PSIwIDAgMTAyNCAxMDI0IiBjbGFzcz0iaWNvbiI+PHBhdGggZmlsbD0iIzAwMDAwMSIgZD0iTTEwNy4xNDA3NDEgNjMyLjQxNDgxNWMtMy43OTI1OTMtMzIuMjM3MDM3LTguNTMzMzMzLTY0LjQ3NDA3NC0xMi4zMjU5MjYtOTYuNzExMTExIDYuNjM3MDM3LTYuNjM3MDM3IDEzLjI3NDA3NC0xMi4zMjU5MjYgMTkuOTExMTExLTE4Ljk2Mjk2MyAxNy4wNjY2NjctNDkuMzAzNzA0IDQyLjY2NjY2Ny05My44NjY2NjcgNzUuODUxODUyLTEzNC42MzcwMzcgMTEzLjc3Nzc3OC0xNy4wNjY2NjcgMjMwLjQtMTUuMTcwMzcgMzQ3LjAyMjIyMi03LjU4NTE4NSA2OC4yNjY2NjcgMjQuNjUxODUyIDEyOC45NDgxNDggNTYuODg4ODg5IDE3OC4yNTE4NTIgMTAwLjUwMzcwMyA1Ny44MzcwMzcgMTYuMTE4NTE5IDExNS42NzQwNzQgMzEuMjg4ODg5IDE3NC40NTkyNTkgNDcuNDA3NDA4IDM1LjA4MTQ4MSA0Mi42NjY2NjcgMzguODc0MDc0IDkxLjk3MDM3IDEyLjMyNTkyNiAxNDAuMzI1OTI2bC02MC42ODE0ODEgNy41ODUxODVjMi44NDQ0NDQtOC41MzMzMzMgNC43NDA3NDEtMTguMDE0ODE1IDQuNzQwNzQtMjguNDQ0NDQ1IDAtMjUuNi0xMC40Mjk2My00OC4zNTU1NTYtMjcuNDk2Mjk2LTY1LjQyMjIyMi0xNy4wNjY2NjctMTcuMDY2NjY3LTM5LjgyMjIyMi0yNy40OTYyOTYtNjUuNDIyMjIyLTI3LjQ5NjI5NnMtNDguMzU1NTU2IDEwLjQyOTYzLTY1LjQyMjIyMiAyNy40OTYyOTZjLTE3LjA2NjY2NyAxNy4wNjY2NjctMjcuNDk2Mjk2IDM5LjgyMjIyMi0yNy40OTYyOTcgNjUuNDIyMjIyIDAgMTQuMjIyMjIyIDIuODQ0NDQ0IDI3LjQ5NjI5NiA4LjUzMzMzNCAzOC44NzQwNzRIMjk1LjgyMjIyMmM1LjY4ODg4OS0xMi4zMjU5MjYgOC41MzMzMzMtMjUuNiA4LjUzMzMzNC0zOC44NzQwNzQgMC0yNS42LTEwLjQyOTYzLTQ4LjM1NTU1Ni0yNy40OTYyOTctNjUuNDIyMjIyLTE3LjA2NjY2Ny0xNy4wNjY2NjctMzkuODIyMjIyLTI3LjQ5NjI5Ni02NS40MjIyMjItMjcuNDk2Mjk2cy00OC4zNTU1NTYgMTAuNDI5NjMtNjUuNDIyMjIyIDI3LjQ5NjI5NmMtMTcuMDY2NjY3IDE3LjA2NjY2Ny0yNy40OTYyOTYgMzkuODIyMjIyLTI3LjQ5NjI5NiA2NS40MjIyMjJ2My43OTI1OTNsLTExLjM3Nzc3OC0xMy4yNzQwNzR6IG0xMDUuMjQ0NDQ0LTY4LjI2NjY2N2MtMjEuODA3NDA3IDAtNDEuNzE4NTE5IDguNTMzMzMzLTU1Ljk0MDc0MSAyMi43NTU1NTZTMTMyLjc0MDc0MSA2MjEuMDM3MDM3IDEzMi43NDA3NDEgNjQyLjg0NDQ0NGMwIDIxLjgwNzQwNyA4LjUzMzMzMyA0MS43MTg1MTkgMjIuNzU1NTU1IDU1Ljk0MDc0MXMzNC4xMzMzMzMgMjIuNzU1NTU2IDU1Ljk0MDc0MSAyMi43NTU1NTZjMjEuODA3NDA3IDAgNDEuNzE4NTE5LTguNTMzMzMzIDU1Ljk0MDc0MS0yMi43NTU1NTZzMjIuNzU1NTU2LTM0LjEzMzMzMyAyMi43NTU1NTUtNTUuOTQwNzQxYzAtMjEuODA3NDA3LTguNTMzMzMzLTQxLjcxODUxOS0yMi43NTU1NTUtNTUuOTQwNzQtMTMuMjc0MDc0LTE0LjIyMjIyMi0zMy4xODUxODUtMjIuNzU1NTU2LTU0Ljk5MjU5My0yMi43NTU1NTZ6IG01NDEuMzkyNTkzIDBjLTIxLjgwNzQwNyAwLTQxLjcxODUxOSA4LjUzMzMzMy01NS45NDA3NDEgMjIuNzU1NTU2cy0yMi43NTU1NTYgMzQuMTMzMzMzLTIyLjc1NTU1NiA1NS45NDA3NGMwIDIxLjgwNzQwNyA4LjUzMzMzMyA0MS43MTg1MTkgMjIuNzU1NTU2IDU1Ljk0MDc0MXMzNC4xMzMzMzMgMjIuNzU1NTU2IDU1Ljk0MDc0MSAyMi43NTU1NTZjMjEuODA3NDA3IDAgNDEuNzE4NTE5LTguNTMzMzMzIDU1Ljk0MDc0MS0yMi43NTU1NTZzMjIuNzU1NTU2LTM0LjEzMzMzMyAyMi43NTU1NTUtNTUuOTQwNzQxYzAtMjEuODA3NDA3LTguNTMzMzMzLTQxLjcxODUxOS0yMi43NTU1NTUtNTUuOTQwNzRzLTM0LjEzMzMzMy0yMi43NTU1NTYtNTUuOTQwNzQxLTIyLjc1NTU1NnogbTEyLjMyNTkyNiA2OS4yMTQ4MTVjMS44OTYyOTYgMS44OTYyOTYgMy43OTI1OTMgNC43NDA3NDEgNC43NDA3NCA4LjUzMzMzMyA2LjYzNzAzNyAwIDE2LjExODUxOS0xLjg5NjI5NiAxOC45NjI5NjMtMi44NDQ0NDQgNC43NDA3NDEtMC45NDgxNDggOS40ODE0ODEtMi44NDQ0NDQgMTQuMjIyMjIzLTMuNzkyNTkzLTEuODk2Mjk2LTEwLjQyOTYzLTYuNjM3MDM3LTE5LjkxMTExMS0xNC4yMjIyMjMtMjcuNDk2Mjk2bC0xMS4zNzc3NzcgMTEuMzc3Nzc4Yy0yLjg0NDQ0NCAxLjg5NjI5Ni05LjQ4MTQ4MSA4LjUzMzMzMy0xMi4zMjU5MjYgMTQuMjIyMjIyeiBtLTcuNTg1MTg1IDI3LjQ5NjI5NmMtMC45NDgxNDggMC0yLjg0NDQ0NCAwLjk0ODE0OC0zLjc5MjU5MyAwLjk0ODE0OC0xLjg5NjI5NiAwLTMuNzkyNTkzIDAtNS42ODg4ODktMC45NDgxNDgtMy43OTI1OTMgNS42ODg4ODktNi42MzcwMzcgMTUuMTcwMzctNi42MzcwMzcgMTguMDE0ODE1LTAuOTQ4MTQ4IDMuNzkyNTkzLTEuODk2Mjk2IDguNTMzMzMzLTIuODQ0NDQ0IDEyLjMyNTkyNiA0Ljc0MDc0MSAxLjg5NjI5NiAxMC40Mjk2MyAyLjg0NDQ0NCAxNi4xMTg1MTggMi44NDQ0NDQgNC43NDA3NDEgMCA5LjQ4MTQ4MS0wLjk0ODE0OCAxNC4yMjIyMjItMS44OTYyOTYtMC45NDgxNDgtNC43NDA3NDEtMS44OTYyOTYtOC41MzMzMzMtMi44NDQ0NDQtMTMuMjc0MDc0LTIuODQ0NDQ0LTMuNzkyNTkzLTUuNjg4ODg5LTEyLjMyNTkyNi04LjUzMzMzMy0xOC4wMTQ4MTV6IG0tMTkuOTExMTEyLTIwLjg1OTI1OWMwLjk0ODE0OC0yLjg0NDQ0NCAyLjg0NDQ0NC01LjY4ODg4OSA1LjY4ODg4OS03LjU4NTE4NS0yLjg0NDQ0NC01LjY4ODg4OS0xMC40Mjk2My0xMy4yNzQwNzQtMTIuMzI1OTI2LTE1LjE3MDM3MS0zLjc5MjU5My0zLjc5MjU5My03LjU4NTE4NS03LjU4NTE4NS0xMS4zNzc3NzctMTAuNDI5NjI5IDAgMC0wLjk0ODE0OCAwLTEuODk2Mjk3IDAuOTQ4MTQ4LTYuNjM3MDM3IDYuNjM3MDM3LTExLjM3Nzc3OCAxNS4xNzAzNy0xMy4yNzQwNzQgMjUuNiA0Ljc0MDc0MSAxLjg5NjI5NiA5LjQ4MTQ4MSAyLjg0NDQ0NCAxNC4yMjIyMjIgMy43OTI1OTMgMi44NDQ0NDQgMC45NDgxNDggMTIuMzI1OTI2IDIuODQ0NDQ0IDE4Ljk2Mjk2MyAyLjg0NDQ0NHogbTE3LjA2NjY2Ny0xMy4yNzQwNzRjNC43NDA3NDEtOS40ODE0ODEgMTQuMjIyMjIyLTE4Ljk2Mjk2MyAyMi43NTU1NTYtMjcuNDk2Mjk2LTcuNTg1MTg1LTMuNzkyNTkzLTE1LjE3MDM3LTYuNjM3MDM3LTIzLjcwMzcwNC02LjYzNzAzNy03LjU4NTE4NSAwLTE1LjE3MDM3IDEuODk2Mjk2LTIxLjgwNzQwNyA0Ljc0MDc0IDguNTMzMzMzIDkuNDgxNDgxIDE4LjAxNDgxNSAxOS45MTExMTEgMjIuNzU1NTU1IDI5LjM5MjU5M3ogbTQ3LjQwNzQwNyAyMi43NTU1NTVjLTExLjM3Nzc3OCAyLjg0NDQ0NC0yNC42NTE4NTIgNS42ODg4ODktMzQuMTMzMzMzIDQuNzQwNzQxIDQuNzQwNzQxIDguNTMzMzMzIDguNTMzMzMzIDE5LjkxMTExMSAxMS4zNzc3NzggMzAuMzQwNzQxIDIuODQ0NDQ0LTEuODk2Mjk2IDUuNjg4ODg5LTQuNzQwNzQxIDguNTMzMzMzLTYuNjM3MDM3IDcuNTg1MTg1LTcuNTg1MTg1IDEzLjI3NDA3NC0xNy4wNjY2NjcgMTQuMjIyMjIyLTI4LjQ0NDQ0NXogbS03Ni44IDM0LjEzMzMzNGMyLjg0NDQ0NC0xMS4zNzc3NzggNy41ODUxODUtMjIuNzU1NTU2IDEyLjMyNTkyNi0zMS4yODg4ODktMTAuNDI5NjMgMC0yMi43NTU1NTYtMi44NDQ0NDQtMzQuMTMzMzMzLTUuNjg4ODg5IDAuOTQ4MTQ4IDEyLjMyNTkyNiA2LjYzNzAzNyAyMi43NTU1NTYgMTQuMjIyMjIyIDMxLjI4ODg4OSAyLjg0NDQ0NCAxLjg5NjI5NiA0Ljc0MDc0MSAzLjc5MjU5MyA3LjU4NTE4NSA1LjY4ODg4OXogbS01MDIuNTE4NTE4LTUwLjI1MTg1MmMxLjg5NjI5NiAxLjg5NjI5NiAzLjc5MjU5MyA0Ljc0MDc0MSA0Ljc0MDc0MSA4LjUzMzMzMyA2LjYzNzAzNyAwIDE2LjExODUxOS0xLjg5NjI5NiAxOC45NjI5NjMtMi44NDQ0NDQgNC43NDA3NDEtMC45NDgxNDggOS40ODE0ODEtMi44NDQ0NDQgMTQuMjIyMjIyLTMuNzkyNTkzLTEuODk2Mjk2LTEwLjQyOTYzLTYuNjM3MDM3LTE5LjkxMTExMS0xNC4yMjIyMjItMjcuNDk2Mjk2bC0xMS4zNzc3NzggMTEuMzc3Nzc4Yy0yLjg0NDQ0NCAxLjg5NjI5Ni05LjQ4MTQ4MSA4LjUzMzMzMy0xMi4zMjU5MjYgMTQuMjIyMjIyeiBtLTcuNTg1MTg1IDI3LjQ5NjI5NmMtMC45NDgxNDggMC0yLjg0NDQ0NCAwLjk0ODE0OC0zLjc5MjU5MyAwLjk0ODE0OC0xLjg5NjI5NiAwLTMuNzkyNTkzIDAtNS42ODg4ODktMC45NDgxNDgtMy43OTI1OTMgNS42ODg4ODktNi42MzcwMzcgMTUuMTcwMzctNi42MzcwMzcgMTguMDE0ODE1LTAuOTQ4MTQ4IDMuNzkyNTkzLTEuODk2Mjk2IDguNTMzMzMzLTIuODQ0NDQ0IDEyLjMyNTkyNiA0Ljc0MDc0MSAxLjg5NjI5NiAxMC40Mjk2MyAyLjg0NDQ0NCAxNi4xMTg1MTggMi44NDQ0NDQgNC43NDA3NDEgMCA5LjQ4MTQ4MS0wLjk0ODE0OCAxNC4yMjIyMjMtMS44OTYyOTYtMC45NDgxNDgtNC43NDA3NDEtMS44OTYyOTYtOC41MzMzMzMtMi44NDQ0NDUtMTMuMjc0MDc0LTIuODQ0NDQ0LTMuNzkyNTkzLTQuNzQwNzQxLTEyLjMyNTkyNi04LjUzMzMzMy0xOC4wMTQ4MTV6IG0tMTguOTYyOTYzLTIwLjg1OTI1OWMwLjk0ODE0OC0yLjg0NDQ0NCAyLjg0NDQ0NC01LjY4ODg4OSA1LjY4ODg4OS03LjU4NTE4NS0yLjg0NDQ0NC01LjY4ODg4OS0xMC40Mjk2My0xMy4yNzQwNzQtMTIuMzI1OTI2LTE1LjE3MDM3MS0zLjc5MjU5My0zLjc5MjU5My03LjU4NTE4NS03LjU4NTE4NS0xMS4zNzc3NzgtMTAuNDI5NjI5bC0xLjg5NjI5NiAxLjg5NjI5NmMtNi42MzcwMzcgNi42MzcwMzctMTEuMzc3Nzc4IDE1LjE3MDM3LTEzLjI3NDA3NCAyNS42IDQuNzQwNzQxIDEuODk2Mjk2IDkuNDgxNDgxIDIuODQ0NDQ0IDE0LjIyMjIyMiAzLjc5MjU5MyAyLjg0NDQ0NCAwIDEyLjMyNTkyNiAxLjg5NjI5NiAxOC45NjI5NjMgMS44OTYyOTZ6IG0xNi4xMTg1MTgtMTMuMjc0MDc0YzQuNzQwNzQxLTkuNDgxNDgxIDE0LjIyMjIyMi0xOC45NjI5NjMgMjIuNzU1NTU2LTI3LjQ5NjI5Ni03LjU4NTE4NS0zLjc5MjU5My0xNS4xNzAzNy02LjYzNzAzNy0yMy43MDM3MDQtNi42MzcwMzctNy41ODUxODUgMC0xNS4xNzAzNyAxLjg5NjI5Ni0yMS44MDc0MDcgNC43NDA3NCA4LjUzMzMzMyA5LjQ4MTQ4MSAxOC4wMTQ4MTUgMTkuOTExMTExIDIyLjc1NTU1NSAyOS4zOTI1OTN6IG00OC4zNTU1NTYgMjIuNzU1NTU1Yy0xMS4zNzc3NzggMi44NDQ0NDQtMjQuNjUxODUyIDUuNjg4ODg5LTM0LjEzMzMzMyA0Ljc0MDc0MSA0Ljc0MDc0MSA4LjUzMzMzMyA4LjUzMzMzMyAxOS45MTExMTEgMTEuMzc3Nzc3IDMwLjM0MDc0MSAyLjg0NDQ0NC0xLjg5NjI5NiA1LjY4ODg4OS00Ljc0MDc0MSA4LjUzMzMzNC02LjYzNzAzNyA3LjU4NTE4NS03LjU4NTE4NSAxMi4zMjU5MjYtMTcuMDY2NjY3IDE0LjIyMjIyMi0yOC40NDQ0NDV6IG0tNzcuNzQ4MTQ4IDM0LjEzMzMzNGMyLjg0NDQ0NC0xMS4zNzc3NzggNy41ODUxODUtMjIuNzU1NTU2IDEyLjMyNTkyNi0zMS4yODg4ODktMTAuNDI5NjMgMC0yMi43NTU1NTYtMi44NDQ0NDQtMzQuMTMzMzM0LTUuNjg4ODg5IDAuOTQ4MTQ4IDEyLjMyNTkyNiA2LjYzNzAzNyAyMi43NTU1NTYgMTQuMjIyMjIzIDMxLjI4ODg4OSAyLjg0NDQ0NCAxLjg5NjI5NiA0Ljc0MDc0MSAzLjc5MjU5MyA3LjU4NTE4NSA1LjY4ODg4OXogbTM4My4wNTE4NTItMTg5LjYyOTYzYzMuNzkyNTkzLTExLjM3Nzc3OCA3LjU4NTE4NS0yMS44MDc0MDcgMTEuMzc3Nzc3LTMzLjE4NTE4NSAyNi41NDgxNDggMC45NDgxNDggNDYuNDU5MjU5IDEwLjQyOTYzIDYyLjU3Nzc3OCAyNC42NTE4NTJsLTIuODQ0NDQ0IDUuNjg4ODg5IDE3LjA2NjY2NiA3LjU4NTE4NSAxNi4xMTg1MTktMTUuMTcwMzdjLTQyLjY2NjY2Ny0zNy45MjU5MjYtOTkuNTU1NTU2LTY1LjQyMjIyMi0xNDEuMjc0MDc0LTg2LjI4MTQ4Mi01MS4yLTIuODQ0NDQ0LTk5LjU1NTU1Ni0zLjc5MjU5My0xNDcuOTExMTExLTIuODQ0NDQ0bDMuNzkyNTkyIDUwLjI1MTg1MSAzLjc5MjU5MyA1NC4wNDQ0NDUgMjIxLjg2NjY2NyAzLjc5MjU5M2M1LjY4ODg4OSAyNC42NTE4NTIgNy41ODUxODUgNDkuMzAzNzA0IDcuNTg1MTg1IDczLjk1NTU1NSAwIDI2LjU0ODE0OC0zLjc5MjU5MyA1My4wOTYyOTYtMTAuNDI5NjMgNzkuNjQ0NDQ1SDM5NC40Mjk2M2MtNC43NDA3NDEtMTYuMTE4NTE5LTguNTMzMzMzLTMzLjE4NTE4NS0xMC40Mjk2My01MC4yNTE4NTItMi44NDQ0NDQtMTguMDE0ODE1LTQuNzQwNzQxLTM2Ljk3Nzc3OC01LjY4ODg4OS01Ni44ODg4ODl2LTQxLjcxODUxOUgzNjkuNzc3Nzc4VjU0OS45MjU5MjZjMC45NDgxNDggMTkuOTExMTExIDIuODQ0NDQ0IDM4Ljg3NDA3NCA1LjY4ODg4OSA1Ny44MzcwMzdzNy41ODUxODUgMzYuMDI5NjMgMTIuMzI1OTI2IDU0LjA0NDQ0NGwwLjk0ODE0OCAyLjg0NDQ0NUg2MTUuMzQ4MTQ4bDAuOTQ4MTQ4LTIuODQ0NDQ1YzcuNTg1MTg1LTI4LjQ0NDQ0NCAxMS4zNzc3NzgtNTYuODg4ODg5IDEyLjMyNTkyNi04NC4zODUxODUgMC0yNC42NTE4NTItMS44OTYyOTYtNDkuMzAzNzA0LTcuNTg1MTg1LTczLjk1NTU1NUg2MzUuMjU5MjU5bC0yMS44MDc0MDctOC41MzMzMzQtNDYuNDU5MjU5LTAuOTQ4MTQ4eiBtLTE3MC42NjY2NjcgMzQuMTMzMzM0djkuNDgxNDgxaDQxLjcxODUxOHYtOS40ODE0ODFoLTQxLjcxODUxOHogbS0zNS4wODE0ODItMTMyLjc0MDc0MWMtMzEuMjg4ODg5IDAuOTQ4MTQ4LTYyLjU3Nzc3OCAxLjg5NjI5Ni05My44NjY2NjYgMy43OTI1OTItMTguOTYyOTYzIDIzLjcwMzcwNC0zMS4yODg4ODkgNDkuMzAzNzA0LTQxLjcxODUxOSA3NC45MDM3MDQgNS42ODg4ODkgNy41ODUxODUgMTEuMzc3Nzc4IDE0LjIyMjIyMiAxNy4wNjY2NjcgMjEuODA3NDA3bDExMy43Nzc3NzggMS44OTYyOTcgNC43NDA3NC0xMDIuNHogbTUyOC4xMTg1MTkgMTQ3LjkxMTExMWwtNzEuMTExMTExLTE0LjIyMjIyMnMzMi4yMzcwMzcgNDkuMzAzNzA0IDQ4LjM1NTU1NSA1MC4yNTE4NTJjMTUuMTcwMzcgMC45NDgxNDggMjUuNi03LjU4NTE4NSAyNS42LTcuNTg1MTg2aDExLjM3Nzc3OGwtMTQuMjIyMjIyLTI4LjQ0NDQ0NHogbS03NTcuNTcwMzctNTMuMDk2Mjk2aDM1LjA4MTQ4MWM0Ljc0MDc0MS0zNi45Nzc3NzggNy41ODUxODUtNTIuMTQ4MTQ4IDE3LjA2NjY2Ny04Ni4yODE0ODJIMTgwLjE0ODE0OGMtMjEuODA3NDA3IDMwLjM0MDc0MS0zMC4zNDA3NDEgNDcuNDA3NDA3LTQ4LjM1NTU1NSA4Ni4yODE0ODJ6Ii8+PC9zdmc+" vertex="1" parent="1e2kQV1l2WdOp7GWkUZe-103">
          <mxGeometry y="410" width="130" height="130" as="geometry" />
        </mxCell>
        <mxCell id="1e2kQV1l2WdOp7GWkUZe-74" value="" style="shape=image;verticalLabelPosition=bottom;verticalAlign=top;imageAspect=0;aspect=fixed;image=data:image/svg+xml,PHN2ZyB4bWxuczp4bGluaz0iaHR0cDovL3d3dy53My5vcmcvMTk5OS94bGluayIgeG1sbnM9Imh0dHA6Ly93d3cudzMub3JnLzIwMDAvc3ZnIiBoZWlnaHQ9IjIwMCIgd2lkdGg9IjIwMCIgdmVyc2lvbj0iMS4xIiB2aWV3Qm94PSIwIDAgMTAyNCAxMDI0IiBjbGFzcz0iaWNvbiI+PHBhdGggZmlsbD0iIzJBMkEzNyIgZD0iTTM2OC40NjkzMzMgNTUxLjU3MzMzM2wwLjEyOC0wLjIxMzMzMy05Ny4xMzA2NjYtMTAzLjg3MmE0Mi42NjY2NjcgNDIuNjY2NjY3IDAgMCAxLTIuMDY5MzM0LTU1Ljg5MzMzM2wyMi44MDUzMzQtMjguMzMwNjY3IDM4My45Nzg2NjYgMzkxLjg5MzMzMy00NC44IDI3LjM3MDY2N2E0Mi42NjY2NjcgNDIuNjY2NjY3IDAgMCAxLTQ0LjI0NTMzMyAwLjE3MDY2N2wtMjE4LjY2NjY2Ny0yMzEuMTI1MzM0eiBtLTExLjIyMTMzMyAxOS4wMjkzMzRsNjEuODAyNjY3IDY1LjMyMjY2Ni0zOS43NDQgNjcuMjg1MzM0YTQyLjU2IDQyLjU2IDAgMCAxLTI3LjY5MDY2NyAyMC4wMTA2NjZjLTMuMDI5MzMzIDAuNzA0LTYuMTg2NjY3IDEuMDY2NjY3LTkuNDI5MzMzIDEuMDY2NjY3SDI3Ny4zMzMzMzN2NjUuMjhhNDIuNjY2NjY3IDQyLjY2NjY2NyAwIDEgMS04NS4zMzMzMzMgMHYtMTcwLjY2NjY2N2E0Mi42NjY2NjcgNDIuNjY2NjY3IDAgMSAxIDg1LjMzMzMzMyAwVjY0MGgzOC45MzMzMzRsNDAuOTYtNjkuMzk3MzMzeiBtLTM4LjI1MDY2Ny0yNDAuNjRsOTguMTc2LTEyMi4wMjY2NjdhNDIuNjY2NjY3IDQyLjY2NjY2NyAwIDAgMSA2My4xODkzMzQtMy42NDhsMzgxLjAzNDY2NiAzNzUuNTMwNjY3YTQyLjY2NjY2NyA0Mi42NjY2NjcgMCAwIDEtNy42OCA2Ni43OTQ2NjZsLTE0MC4zNzMzMzMgODUuODAyNjY3LTM5NC4zNDY2NjctNDAyLjQ1MzMzM3oiLz48L3N2Zz4=" vertex="1" parent="1e2kQV1l2WdOp7GWkUZe-103">
          <mxGeometry x="130" y="410" width="130" height="130" as="geometry" />
        </mxCell>
        <mxCell id="1e2kQV1l2WdOp7GWkUZe-75" value="" style="shape=image;verticalLabelPosition=bottom;verticalAlign=top;imageAspect=0;aspect=fixed;image=data:image/svg+xml,PHN2ZyB4bWxuczp4bGluaz0iaHR0cDovL3d3dy53My5vcmcvMTk5OS94bGluayIgeG1sbnM9Imh0dHA6Ly93d3cudzMub3JnLzIwMDAvc3ZnIiBoZWlnaHQ9IjIwMCIgd2lkdGg9IjIwMCIgdmVyc2lvbj0iMS4xIiB2aWV3Qm94PSIwIDAgMTAyNCAxMDI0IiBjbGFzcz0iaWNvbiI+PHBhdGggZmlsbD0iIzI3MjYzNiIgZD0iTTc5OC43MjMyMzQgMTc0Ljc4Mjc0NWMwLTYwLjU3NjY1Ny00OS4xMDY0MTgtMTA5LjY4MzA3NS0xMDkuNjgzMDc1LTEwOS42ODMwNzVsLTM1NC43MDg2MjggMGMtNjAuNTc2NjU3IDAtMTA5LjY4MzA3NSA0OS4xMDY0MTgtMTA5LjY4MzA3NSAxMDkuNjgzMDc1bDAgNjczLjk4MDE2MWMwIDYwLjU3NjY1NyA0OS4xMDY0MTggMTA5LjY4MzA3NSAxMDkuNjgzMDc1IDEwOS42ODMwNzVsMzU0LjcwODYyOCAwYzYwLjU3NjY1NyAwIDEwOS42ODMwNzUtNDkuMTA2NDE4IDEwOS42ODMwNzUtMTA5LjY4MzA3NUw3OTguNzIzMjM0IDE3NC43ODI3NDV6TTI2NC41NTczOTggMjM3LjAxNTExMmw0OTQuMjU2ODk0IDAgMCA1MjkuMDQ5MzA1LTQ5NC4yNTY4OTQgMEwyNjQuNTU3Mzk4IDIzNy4wMTUxMTJ6TTMzNC4zNTYwOTEgMTA1LjAwODYxMiA2ODkuMDE2NjIzIDEwNS4wMDg2MTJjMzguNTQ4OTY4IDAgNjkuNzk4NjkyIDMxLjI0OTcyNSA2OS43OTg2OTIgNjkuNzk4NjkybDAgMjIuMjk4ODY1LTQ5NC4yNTY4OTQgMCAwLTIyLjI5ODg2NUMyNjQuNTU3Mzk4IDEzNi4yNTkzNiAyOTUuODA3MTIzIDEwNS4wMDg2MTIgMzM0LjM1NjA5MSAxMDUuMDA4NjEyek02ODkuMDE2NjIzIDkxOC41MzcwNCAzMzQuMzU2MDkxIDkxOC41MzcwNGMtMzguNTQ4OTY4IDAtNjkuNzk4NjkyLTMxLjI0OTcyNS02OS43OTg2OTItNjkuNzk4NjkybDAtNDMuNzg4Mjk2IDQ5NC4yNTY4OTQgMCAwIDQzLjc4ODI5NkM3NTguODE0MjkyIDg4Ny4yODczMTUgNzI3LjU2NDU2NyA5MTguNTM3MDQgNjg5LjAxNjYyMyA5MTguNTM3MDR6Ii8+PHBhdGggZmlsbD0iIzI3MjYzNiIgZD0iTTUxMy4xNzM3MzIgODI5Ljk0MzI4MmMtMTYuNzA3NTIgMC0zMC4zMDExMiAxMy41OTM2LTMwLjMwMTEyIDMwLjMwMTEyIDAgMTYuNzA3NTIgMTMuNTkzNiAzMC4zMDExMiAzMC4zMDExMiAzMC4zMDExMnMzMC4yOTkwNzMtMTMuNTkzNiAzMC4yOTkwNzMtMzAuMzAxMTJDNTQzLjQ3MjgwNSA4NDMuNTM2ODgyIDUyOS44ODEyNTMgODI5Ljk0MzI4MiA1MTMuMTczNzMyIDgyOS45NDMyODJ6Ii8+PC9zdmc+" vertex="1" parent="1e2kQV1l2WdOp7GWkUZe-103">
          <mxGeometry x="270" y="410" width="130" height="130" as="geometry" />
        </mxCell>
        <mxCell id="1e2kQV1l2WdOp7GWkUZe-77" value="" style="html=1;fillColor=#CCCCCC;strokeColor=#6881B3;gradientColor=none;gradientDirection=north;strokeWidth=2;shape=mxgraph.networks.comm_link_edge;html=1;labelBackgroundColor=none;endArrow=none;fontFamily=Verdana;fontSize=22;fontColor=#000000;entryX=0.5;entryY=1;entryDx=0;entryDy=0;exitX=0.5;exitY=0;exitDx=0;exitDy=0;" edge="1" parent="1e2kQV1l2WdOp7GWkUZe-103" source="1e2kQV1l2WdOp7GWkUZe-73">
          <mxGeometry width="100" height="100" relative="1" as="geometry">
            <mxPoint x="-30" y="330" as="sourcePoint" />
            <mxPoint x="240" y="210" as="targetPoint" />
          </mxGeometry>
        </mxCell>
        <mxCell id="1e2kQV1l2WdOp7GWkUZe-78" value="" style="html=1;fillColor=#CCCCCC;strokeColor=#6881B3;gradientColor=none;gradientDirection=north;strokeWidth=2;shape=mxgraph.networks.comm_link_edge;html=1;labelBackgroundColor=none;endArrow=none;fontFamily=Verdana;fontSize=22;fontColor=#000000;exitX=0.5;exitY=1;exitDx=0;exitDy=0;entryX=0.5;entryY=0;entryDx=0;entryDy=0;" edge="1" parent="1e2kQV1l2WdOp7GWkUZe-103" target="1e2kQV1l2WdOp7GWkUZe-74">
          <mxGeometry width="100" height="100" relative="1" as="geometry">
            <mxPoint x="240" y="210" as="sourcePoint" />
            <mxPoint x="455" y="359" as="targetPoint" />
          </mxGeometry>
        </mxCell>
        <mxCell id="1e2kQV1l2WdOp7GWkUZe-79" value="" style="html=1;fillColor=#CCCCCC;strokeColor=#6881B3;gradientColor=none;gradientDirection=north;strokeWidth=2;shape=mxgraph.networks.comm_link_edge;html=1;labelBackgroundColor=none;endArrow=none;fontFamily=Verdana;fontSize=22;fontColor=#000000;exitX=0.5;exitY=1;exitDx=0;exitDy=0;entryX=0.5;entryY=0;entryDx=0;entryDy=0;" edge="1" parent="1e2kQV1l2WdOp7GWkUZe-103" target="1e2kQV1l2WdOp7GWkUZe-75">
          <mxGeometry width="100" height="100" relative="1" as="geometry">
            <mxPoint x="240" y="210" as="sourcePoint" />
            <mxPoint x="205" y="420" as="targetPoint" />
          </mxGeometry>
        </mxCell>
        <mxCell id="1e2kQV1l2WdOp7GWkUZe-128" value="" style="group" vertex="1" connectable="0" parent="1">
          <mxGeometry x="500" y="420" width="400" height="540" as="geometry" />
        </mxCell>
        <mxCell id="1e2kQV1l2WdOp7GWkUZe-129" value="" style="group;movable=1;resizable=1;rotatable=1;deletable=1;editable=1;locked=0;connectable=1;" vertex="1" connectable="0" parent="1e2kQV1l2WdOp7GWkUZe-128">
          <mxGeometry x="120" width="240" height="180" as="geometry" />
        </mxCell>
        <mxCell id="1e2kQV1l2WdOp7GWkUZe-130" value="" style="shape=image;verticalLabelPosition=bottom;verticalAlign=top;imageAspect=0;aspect=fixed;image=data:image/svg+xml,PHN2ZyB4bWxuczp4bGluaz0iaHR0cDovL3d3dy53My5vcmcvMTk5OS94bGluayIgeG1sbnM9Imh0dHA6Ly93d3cudzMub3JnLzIwMDAvc3ZnIiBoZWlnaHQ9IjIwMCIgd2lkdGg9IjIwMCIgdmVyc2lvbj0iMS4xIiB2aWV3Qm94PSIwIDAgMTAyNCAxMDI0IiBjbGFzcz0iaWNvbiI+PHBhdGggZmlsbD0iIzMzMzMzMyIgZD0iTTg5LjUgMzA2LjhjLTAuMi02OS4xIDI2LjktMTM1LjUgNzUuMi0xODQuOSAxMC42LTEwLjYgMTQuNi0yNi4xIDEwLjYtNDAuNS00LTE0LjUtMTUuNS0yNS42LTMwLTI5LjMtMTQuNS0zLjctMjkuOSAwLjgtNDAuMyAxMS42LTEzMy41IDEzNi43LTEzMS44IDM1NS40IDMuOCA0OTAgMTYuMyAxNi4yIDQyLjcgMTYuMSA1OC45LTAuMiAxNi4yLTE2LjMgMTYuMS00Mi43LTAuMi01OC45LTUwLjEtNDkuNi03OC4yLTExNy4zLTc4LTE4Ny44ek03MTAuOSAxNDljLTE2LjYgMTUuOS0xNy4xIDQyLjMtMS4yIDU4LjkgNTQgNTYuMyA1Mi45IDE0NS41LTIuNiAyMDAuMy0xMC45IDEwLjQtMTUuNCAyNS45LTExLjcgNDAuNSAzLjcgMTQuNiAxNS4xIDI2LjEgMjkuNyAzMCAxNC42IDMuOSAzMC4xLTAuNCA0MC42LTExLjMgODcuOC04Ni45IDg5LjYtMjI4LjIgNC0zMTcuMy03LjctOC0xOC4yLTEyLjYtMjkuMi0xMi44LTEwLjktMC4xLTIxLjYgNC0yOS42IDExLjd6IG0wIDAiLz48cGF0aCBmaWxsPSIjMzMzMzMzIiBkPSJNOTE5IDYzLjdjLTEwLjQtMTAuOC0yNS43LTE1LjMtNDAuMy0xMS42LTE0LjUgMy43LTI2IDE0LjgtMzAgMjkuMy00IDE0LjQgMC4xIDI5LjkgMTAuNiA0MC41IDEwMS40IDEwNCAxMDAuMiAyNzAuMy0yLjkgMzcyLjctMTYuMyAxNi4yLTE2LjQgNDIuNi0wLjIgNTguOSAxNi4yIDE2LjMgNDIuNiAxNi40IDU4LjkgMC4yIDEzNS43LTEzNC43IDEzNy4zLTM1My4zIDMuOS00OTB6TTMxNy4zIDQ2Ny4yYzE2LjItMTYuNCAxNi4xLTQyLjctMC4zLTU4LjktNTUuNC01NC45LTU2LjYtMTQ0LjEtMi42LTIwMC4zIDE1LjktMTYuNiAxNS40LTQzLTEuMi01OC45LTE2LjYtMTUuOS00My0xNS40LTU4LjkgMS4yLTg1LjUgODkuMS04My43IDIzMC40IDQuMSAzMTcuMyAxNi4zIDE2IDQyLjcgMTUuOSA1OC45LTAuNHogbTI1NS42LTYzLjNjNDAuNi0yNy4xIDU4LjctNzcuNiA0NC43LTEyNC40LTE0LTQ2LjgtNTctNzguOS0xMDUuOC03OS4yLTQ4LjgtMC4zLTkyLjEgMzEuNC0xMDYuNyA3OC0xNC42IDQ2LjYgMyA5Ny4zIDQzLjQgMTI0LjhMMjYxLjQgOTE3LjNjLTcuOCAyMS42IDMuMyA0NS41IDI0LjkgNTMuNCAyMS42IDcuOCA0NS41LTMuNCA1My40LTI1TDM3OS4zIDgzN2gyNjIuNmw0MC41IDExMS41YzcuMiAxOS41IDI4LjcgMjkuNiA0OC4zIDIyLjVsNy41LTIuN2MxOS41LTcuMiAyOS42LTI4LjcgMjIuNS00OC4zTDU3Mi45IDQwMy45eiBtLTYyLjMgNzIuNEw1NjEgNjE0LjhINDYwLjJsNTAuNC0xMzguNXpNNDA2LjMgNzYyLjlsMjctNzQuMUg1ODhsMjcgNzQuMUg0MDYuM3ogbTAgMCIvPjwvc3ZnPg==" vertex="1" parent="1e2kQV1l2WdOp7GWkUZe-129">
          <mxGeometry width="156.52173913043478" height="156.52173913043478" as="geometry" />
        </mxCell>
        <mxCell id="1e2kQV1l2WdOp7GWkUZe-131" value="" style="shape=image;verticalLabelPosition=bottom;verticalAlign=top;imageAspect=0;aspect=fixed;image=data:image/svg+xml,PHN2ZyB4bWxuczp4bGluaz0iaHR0cDovL3d3dy53My5vcmcvMTk5OS94bGluayIgeG1sbnM9Imh0dHA6Ly93d3cudzMub3JnLzIwMDAvc3ZnIiBoZWlnaHQ9IjIwMCIgd2lkdGg9IjIwMCIgdmVyc2lvbj0iMS4xIiB2aWV3Qm94PSIwIDAgMTAyNCAxMDI0IiBjbGFzcz0iaWNvbiI+PHBhdGggZmlsbD0iIzMzMzMzMyIgZD0iTTY2NC41NDUgODZjNDguMyAwIDg3LjQ1NSAzOS4xNDggODcuNDU1IDg3LjQzOVY5MDAuNTZDNzUyIDk0OC44NTIgNzEyLjg0NSA5ODggNjY0LjU0NSA5ODhoLTMwNi4wOWMtNDguMyAwLTg3LjQ1NS0zOS4xNDgtODcuNDU1LTg3LjQzOVYxNzMuNDRDMjcxIDEyNS4xNDggMzEwLjE1NSA4NiAzNTguNDU1IDg2eiBtMCA1OS44MjdoLTMwNi4wOWMtMTUuMjUzIDAtMjcuNjE4IDEyLjM2Mi0yNy42MTggMjcuNjEyVjkwMC41NmMwIDE1LjI1IDEyLjM2NSAyNy42MTIgMjcuNjE4IDI3LjYxMmgzMDYuMDljMTUuMjUzIDAgMjcuNjE4LTEyLjM2MiAyNy42MTgtMjcuNjEyVjE3My40NGMwLTE1LjI1LTEyLjM2NS0yNy42MTItMjcuNjE4LTI3LjYxMnpNNTEyLjY1MSA2NzAuNDU5YzI2LjY5MiAwIDQ4LjMzIDIxLjYzNCA0OC4zMyA0OC4zMjIgMCAyNi42ODctMjEuNjM4IDQ4LjMyMS00OC4zMyA0OC4zMjEtMjYuNjkyIDAtNDguMzMtMjEuNjM0LTQ4LjMzLTQ4LjMyMSAwLTI2LjY4OCAyMS42MzgtNDguMzIyIDQ4LjMzLTQ4LjMyMnogbTk4LjcxNC0yNzEuNTJjMTYuNTI0IDAgMjkuOTE5IDEzLjM5MiAyOS45MTkgMjkuOTEzIDAgMTYuMjg1LTEzLjAxNSAyOS41My0yOS4yMTIgMjkuOTA1bC0wLjcwNyAwLjAwOEg0MTMuNzA2Yy0xNi41MjMgMC0yOS45MTgtMTMuMzkyLTI5LjkxOC0yOS45MTMgMC0xNi4yODUgMTMuMDE1LTI5LjUzIDI5LjIxMi0yOS45MDVsMC43MDYtMC4wMDhoMTk3LjY2eiBtMC0xMTYuMDEzYzE2LjUyNCAwIDI5LjkxOSAxMy4zOTMgMjkuOTE5IDI5LjkxMyAwIDE2LjI4NS0xMy4wMTUgMjkuNTMtMjkuMjEyIDI5LjkwNWwtMC43MDcgMC4wMDhINDEzLjcwNmMtMTYuNTIzIDAtMjkuOTE4LTEzLjM5Mi0yOS45MTgtMjkuOTEzIDAtMTYuMjg0IDEzLjAxNS0yOS41MyAyOS4yMTItMjkuOTA1bDAuNzA2LTAuMDA4aDE5Ny42NnoiLz48L3N2Zz4=" vertex="1" parent="1e2kQV1l2WdOp7GWkUZe-129">
          <mxGeometry x="102.63157894736842" y="109.56521739130436" width="70.43478260869566" height="70.43478260869566" as="geometry" />
        </mxCell>
        <mxCell id="1e2kQV1l2WdOp7GWkUZe-132" value="" style="shape=image;verticalLabelPosition=bottom;verticalAlign=top;imageAspect=0;aspect=fixed;image=data:image/svg+xml,PHN2ZyB4bWxuczp4bGluaz0iaHR0cDovL3d3dy53My5vcmcvMTk5OS94bGluayIgeG1sbnM9Imh0dHA6Ly93d3cudzMub3JnLzIwMDAvc3ZnIiBoZWlnaHQ9IjIwMCIgd2lkdGg9IjIwMCIgdmVyc2lvbj0iMS4xIiB2aWV3Qm94PSIwIDAgMTAyNCAxMDI0IiBjbGFzcz0iaWNvbiI+PHBhdGggZmlsbD0iIzMzMzMzMyIgZD0iTTY2NC41NDUgODZjNDguMyAwIDg3LjQ1NSAzOS4xNDggODcuNDU1IDg3LjQzOVY5MDAuNTZDNzUyIDk0OC44NTIgNzEyLjg0NSA5ODggNjY0LjU0NSA5ODhoLTMwNi4wOWMtNDguMyAwLTg3LjQ1NS0zOS4xNDgtODcuNDU1LTg3LjQzOVYxNzMuNDRDMjcxIDEyNS4xNDggMzEwLjE1NSA4NiAzNTguNDU1IDg2eiBtMCA1OS44MjdoLTMwNi4wOWMtMTUuMjUzIDAtMjcuNjE4IDEyLjM2Mi0yNy42MTggMjcuNjEyVjkwMC41NmMwIDE1LjI1IDEyLjM2NSAyNy42MTIgMjcuNjE4IDI3LjYxMmgzMDYuMDljMTUuMjUzIDAgMjcuNjE4LTEyLjM2MiAyNy42MTgtMjcuNjEyVjE3My40NGMwLTE1LjI1LTEyLjM2NS0yNy42MTItMjcuNjE4LTI3LjYxMnpNNTEyLjY1MSA2NzAuNDU5YzI2LjY5MiAwIDQ4LjMzIDIxLjYzNCA0OC4zMyA0OC4zMjIgMCAyNi42ODctMjEuNjM4IDQ4LjMyMS00OC4zMyA0OC4zMjEtMjYuNjkyIDAtNDguMzMtMjEuNjM0LTQ4LjMzLTQ4LjMyMSAwLTI2LjY4OCAyMS42MzgtNDguMzIyIDQ4LjMzLTQ4LjMyMnogbTk4LjcxNC0yNzEuNTJjMTYuNTI0IDAgMjkuOTE5IDEzLjM5MiAyOS45MTkgMjkuOTEzIDAgMTYuMjg1LTEzLjAxNSAyOS41My0yOS4yMTIgMjkuOTA1bC0wLjcwNyAwLjAwOEg0MTMuNzA2Yy0xNi41MjMgMC0yOS45MTgtMTMuMzkyLTI5LjkxOC0yOS45MTMgMC0xNi4yODUgMTMuMDE1LTI5LjUzIDI5LjIxMi0yOS45MDVsMC43MDYtMC4wMDhoMTk3LjY2eiBtMC0xMTYuMDEzYzE2LjUyNCAwIDI5LjkxOSAxMy4zOTMgMjkuOTE5IDI5LjkxMyAwIDE2LjI4NS0xMy4wMTUgMjkuNTMtMjkuMjEyIDI5LjkwNWwtMC43MDcgMC4wMDhINDEzLjcwNmMtMTYuNTIzIDAtMjkuOTE4LTEzLjM5Mi0yOS45MTgtMjkuOTEzIDAtMTYuMjg0IDEzLjAxNS0yOS41MyAyOS4yMTItMjkuOTA1bDAuNzA2LTAuMDA4aDE5Ny42NnoiLz48L3N2Zz4=" vertex="1" parent="1e2kQV1l2WdOp7GWkUZe-129">
          <mxGeometry x="135.78947368421052" y="109.56521739130436" width="70.43478260869566" height="70.43478260869566" as="geometry" />
        </mxCell>
        <mxCell id="1e2kQV1l2WdOp7GWkUZe-133" value="" style="shape=image;verticalLabelPosition=bottom;verticalAlign=top;imageAspect=0;aspect=fixed;image=data:image/svg+xml,PHN2ZyB4bWxuczp4bGluaz0iaHR0cDovL3d3dy53My5vcmcvMTk5OS94bGluayIgeG1sbnM9Imh0dHA6Ly93d3cudzMub3JnLzIwMDAvc3ZnIiBoZWlnaHQ9IjIwMCIgd2lkdGg9IjIwMCIgdmVyc2lvbj0iMS4xIiB2aWV3Qm94PSIwIDAgMTAyNCAxMDI0IiBjbGFzcz0iaWNvbiI+PHBhdGggZmlsbD0iIzMzMzMzMyIgZD0iTTY2NC41NDUgODZjNDguMyAwIDg3LjQ1NSAzOS4xNDggODcuNDU1IDg3LjQzOVY5MDAuNTZDNzUyIDk0OC44NTIgNzEyLjg0NSA5ODggNjY0LjU0NSA5ODhoLTMwNi4wOWMtNDguMyAwLTg3LjQ1NS0zOS4xNDgtODcuNDU1LTg3LjQzOVYxNzMuNDRDMjcxIDEyNS4xNDggMzEwLjE1NSA4NiAzNTguNDU1IDg2eiBtMCA1OS44MjdoLTMwNi4wOWMtMTUuMjUzIDAtMjcuNjE4IDEyLjM2Mi0yNy42MTggMjcuNjEyVjkwMC41NmMwIDE1LjI1IDEyLjM2NSAyNy42MTIgMjcuNjE4IDI3LjYxMmgzMDYuMDljMTUuMjUzIDAgMjcuNjE4LTEyLjM2MiAyNy42MTgtMjcuNjEyVjE3My40NGMwLTE1LjI1LTEyLjM2NS0yNy42MTItMjcuNjE4LTI3LjYxMnpNNTEyLjY1MSA2NzAuNDU5YzI2LjY5MiAwIDQ4LjMzIDIxLjYzNCA0OC4zMyA0OC4zMjIgMCAyNi42ODctMjEuNjM4IDQ4LjMyMS00OC4zMyA0OC4zMjEtMjYuNjkyIDAtNDguMzMtMjEuNjM0LTQ4LjMzLTQ4LjMyMSAwLTI2LjY4OCAyMS42MzgtNDguMzIyIDQ4LjMzLTQ4LjMyMnogbTk4LjcxNC0yNzEuNTJjMTYuNTI0IDAgMjkuOTE5IDEzLjM5MiAyOS45MTkgMjkuOTEzIDAgMTYuMjg1LTEzLjAxNSAyOS41My0yOS4yMTIgMjkuOTA1bC0wLjcwNyAwLjAwOEg0MTMuNzA2Yy0xNi41MjMgMC0yOS45MTgtMTMuMzkyLTI5LjkxOC0yOS45MTMgMC0xNi4yODUgMTMuMDE1LTI5LjUzIDI5LjIxMi0yOS45MDVsMC43MDYtMC4wMDhoMTk3LjY2eiBtMC0xMTYuMDEzYzE2LjUyNCAwIDI5LjkxOSAxMy4zOTMgMjkuOTE5IDI5LjkxMyAwIDE2LjI4NS0xMy4wMTUgMjkuNTMtMjkuMjEyIDI5LjkwNWwtMC43MDcgMC4wMDhINDEzLjcwNmMtMTYuNTIzIDAtMjkuOTE4LTEzLjM5Mi0yOS45MTgtMjkuOTEzIDAtMTYuMjg0IDEzLjAxNS0yOS41MyAyOS4yMTItMjkuOTA1bDAuNzA2LTAuMDA4aDE5Ny42NnoiLz48L3N2Zz4=" vertex="1" parent="1e2kQV1l2WdOp7GWkUZe-129">
          <mxGeometry x="168.94736842105263" y="109.56521739130436" width="70.43478260869566" height="70.43478260869566" as="geometry" />
        </mxCell>
        <mxCell id="1e2kQV1l2WdOp7GWkUZe-134" value="" style="group;movable=1;resizable=1;rotatable=1;deletable=1;editable=1;locked=0;connectable=1;" vertex="1" connectable="0" parent="1e2kQV1l2WdOp7GWkUZe-129">
          <mxGeometry width="240" height="180" as="geometry" />
        </mxCell>
        <mxCell id="1e2kQV1l2WdOp7GWkUZe-135" value="" style="shape=image;verticalLabelPosition=bottom;verticalAlign=top;imageAspect=0;aspect=fixed;image=data:image/svg+xml,PHN2ZyB4bWxuczp4bGluaz0iaHR0cDovL3d3dy53My5vcmcvMTk5OS94bGluayIgeG1sbnM9Imh0dHA6Ly93d3cudzMub3JnLzIwMDAvc3ZnIiBoZWlnaHQ9IjIwMCIgd2lkdGg9IjIwMCIgdmVyc2lvbj0iMS4xIiB2aWV3Qm94PSIwIDAgMTAyNCAxMDI0IiBjbGFzcz0iaWNvbiI+PHBhdGggZmlsbD0iIzMzMzMzMyIgZD0iTTg5LjUgMzA2LjhjLTAuMi02OS4xIDI2LjktMTM1LjUgNzUuMi0xODQuOSAxMC42LTEwLjYgMTQuNi0yNi4xIDEwLjYtNDAuNS00LTE0LjUtMTUuNS0yNS42LTMwLTI5LjMtMTQuNS0zLjctMjkuOSAwLjgtNDAuMyAxMS42LTEzMy41IDEzNi43LTEzMS44IDM1NS40IDMuOCA0OTAgMTYuMyAxNi4yIDQyLjcgMTYuMSA1OC45LTAuMiAxNi4yLTE2LjMgMTYuMS00Mi43LTAuMi01OC45LTUwLjEtNDkuNi03OC4yLTExNy4zLTc4LTE4Ny44ek03MTAuOSAxNDljLTE2LjYgMTUuOS0xNy4xIDQyLjMtMS4yIDU4LjkgNTQgNTYuMyA1Mi45IDE0NS41LTIuNiAyMDAuMy0xMC45IDEwLjQtMTUuNCAyNS45LTExLjcgNDAuNSAzLjcgMTQuNiAxNS4xIDI2LjEgMjkuNyAzMCAxNC42IDMuOSAzMC4xLTAuNCA0MC42LTExLjMgODcuOC04Ni45IDg5LjYtMjI4LjIgNC0zMTcuMy03LjctOC0xOC4yLTEyLjYtMjkuMi0xMi44LTEwLjktMC4xLTIxLjYgNC0yOS42IDExLjd6IG0wIDAiLz48cGF0aCBmaWxsPSIjMzMzMzMzIiBkPSJNOTE5IDYzLjdjLTEwLjQtMTAuOC0yNS43LTE1LjMtNDAuMy0xMS42LTE0LjUgMy43LTI2IDE0LjgtMzAgMjkuMy00IDE0LjQgMC4xIDI5LjkgMTAuNiA0MC41IDEwMS40IDEwNCAxMDAuMiAyNzAuMy0yLjkgMzcyLjctMTYuMyAxNi4yLTE2LjQgNDIuNi0wLjIgNTguOSAxNi4yIDE2LjMgNDIuNiAxNi40IDU4LjkgMC4yIDEzNS43LTEzNC43IDEzNy4zLTM1My4zIDMuOS00OTB6TTMxNy4zIDQ2Ny4yYzE2LjItMTYuNCAxNi4xLTQyLjctMC4zLTU4LjktNTUuNC01NC45LTU2LjYtMTQ0LjEtMi42LTIwMC4zIDE1LjktMTYuNiAxNS40LTQzLTEuMi01OC45LTE2LjYtMTUuOS00My0xNS40LTU4LjkgMS4yLTg1LjUgODkuMS04My43IDIzMC40IDQuMSAzMTcuMyAxNi4zIDE2IDQyLjcgMTUuOSA1OC45LTAuNHogbTI1NS42LTYzLjNjNDAuNi0yNy4xIDU4LjctNzcuNiA0NC43LTEyNC40LTE0LTQ2LjgtNTctNzguOS0xMDUuOC03OS4yLTQ4LjgtMC4zLTkyLjEgMzEuNC0xMDYuNyA3OC0xNC42IDQ2LjYgMyA5Ny4zIDQzLjQgMTI0LjhMMjYxLjQgOTE3LjNjLTcuOCAyMS42IDMuMyA0NS41IDI0LjkgNTMuNCAyMS42IDcuOCA0NS41LTMuNCA1My40LTI1TDM3OS4zIDgzN2gyNjIuNmw0MC41IDExMS41YzcuMiAxOS41IDI4LjcgMjkuNiA0OC4zIDIyLjVsNy41LTIuN2MxOS41LTcuMiAyOS42LTI4LjcgMjIuNS00OC4zTDU3Mi45IDQwMy45eiBtLTYyLjMgNzIuNEw1NjEgNjE0LjhINDYwLjJsNTAuNC0xMzguNXpNNDA2LjMgNzYyLjlsMjctNzQuMUg1ODhsMjcgNzQuMUg0MDYuM3ogbTAgMCIvPjwvc3ZnPg==" vertex="1" parent="1e2kQV1l2WdOp7GWkUZe-134">
          <mxGeometry width="156.52173913043478" height="156.52173913043478" as="geometry" />
        </mxCell>
        <mxCell id="1e2kQV1l2WdOp7GWkUZe-136" value="" style="shape=image;verticalLabelPosition=bottom;verticalAlign=top;imageAspect=0;aspect=fixed;image=data:image/svg+xml,PHN2ZyB4bWxuczp4bGluaz0iaHR0cDovL3d3dy53My5vcmcvMTk5OS94bGluayIgeG1sbnM9Imh0dHA6Ly93d3cudzMub3JnLzIwMDAvc3ZnIiBoZWlnaHQ9IjIwMCIgd2lkdGg9IjIwMCIgdmVyc2lvbj0iMS4xIiB2aWV3Qm94PSIwIDAgMTAyNCAxMDI0IiBjbGFzcz0iaWNvbiI+PHBhdGggZmlsbD0iIzMzMzMzMyIgZD0iTTY2NC41NDUgODZjNDguMyAwIDg3LjQ1NSAzOS4xNDggODcuNDU1IDg3LjQzOVY5MDAuNTZDNzUyIDk0OC44NTIgNzEyLjg0NSA5ODggNjY0LjU0NSA5ODhoLTMwNi4wOWMtNDguMyAwLTg3LjQ1NS0zOS4xNDgtODcuNDU1LTg3LjQzOVYxNzMuNDRDMjcxIDEyNS4xNDggMzEwLjE1NSA4NiAzNTguNDU1IDg2eiBtMCA1OS44MjdoLTMwNi4wOWMtMTUuMjUzIDAtMjcuNjE4IDEyLjM2Mi0yNy42MTggMjcuNjEyVjkwMC41NmMwIDE1LjI1IDEyLjM2NSAyNy42MTIgMjcuNjE4IDI3LjYxMmgzMDYuMDljMTUuMjUzIDAgMjcuNjE4LTEyLjM2MiAyNy42MTgtMjcuNjEyVjE3My40NGMwLTE1LjI1LTEyLjM2NS0yNy42MTItMjcuNjE4LTI3LjYxMnpNNTEyLjY1MSA2NzAuNDU5YzI2LjY5MiAwIDQ4LjMzIDIxLjYzNCA0OC4zMyA0OC4zMjIgMCAyNi42ODctMjEuNjM4IDQ4LjMyMS00OC4zMyA0OC4zMjEtMjYuNjkyIDAtNDguMzMtMjEuNjM0LTQ4LjMzLTQ4LjMyMSAwLTI2LjY4OCAyMS42MzgtNDguMzIyIDQ4LjMzLTQ4LjMyMnogbTk4LjcxNC0yNzEuNTJjMTYuNTI0IDAgMjkuOTE5IDEzLjM5MiAyOS45MTkgMjkuOTEzIDAgMTYuMjg1LTEzLjAxNSAyOS41My0yOS4yMTIgMjkuOTA1bC0wLjcwNyAwLjAwOEg0MTMuNzA2Yy0xNi41MjMgMC0yOS45MTgtMTMuMzkyLTI5LjkxOC0yOS45MTMgMC0xNi4yODUgMTMuMDE1LTI5LjUzIDI5LjIxMi0yOS45MDVsMC43MDYtMC4wMDhoMTk3LjY2eiBtMC0xMTYuMDEzYzE2LjUyNCAwIDI5LjkxOSAxMy4zOTMgMjkuOTE5IDI5LjkxMyAwIDE2LjI4NS0xMy4wMTUgMjkuNTMtMjkuMjEyIDI5LjkwNWwtMC43MDcgMC4wMDhINDEzLjcwNmMtMTYuNTIzIDAtMjkuOTE4LTEzLjM5Mi0yOS45MTgtMjkuOTEzIDAtMTYuMjg0IDEzLjAxNS0yOS41MyAyOS4yMTItMjkuOTA1bDAuNzA2LTAuMDA4aDE5Ny42NnoiLz48L3N2Zz4=" vertex="1" parent="1e2kQV1l2WdOp7GWkUZe-134">
          <mxGeometry x="102.63157894736842" y="109.56521739130436" width="70.43478260869566" height="70.43478260869566" as="geometry" />
        </mxCell>
        <mxCell id="1e2kQV1l2WdOp7GWkUZe-137" value="" style="shape=image;verticalLabelPosition=bottom;verticalAlign=top;imageAspect=0;aspect=fixed;image=data:image/svg+xml,PHN2ZyB4bWxuczp4bGluaz0iaHR0cDovL3d3dy53My5vcmcvMTk5OS94bGluayIgeG1sbnM9Imh0dHA6Ly93d3cudzMub3JnLzIwMDAvc3ZnIiBoZWlnaHQ9IjIwMCIgd2lkdGg9IjIwMCIgdmVyc2lvbj0iMS4xIiB2aWV3Qm94PSIwIDAgMTAyNCAxMDI0IiBjbGFzcz0iaWNvbiI+PHBhdGggZmlsbD0iIzMzMzMzMyIgZD0iTTY2NC41NDUgODZjNDguMyAwIDg3LjQ1NSAzOS4xNDggODcuNDU1IDg3LjQzOVY5MDAuNTZDNzUyIDk0OC44NTIgNzEyLjg0NSA5ODggNjY0LjU0NSA5ODhoLTMwNi4wOWMtNDguMyAwLTg3LjQ1NS0zOS4xNDgtODcuNDU1LTg3LjQzOVYxNzMuNDRDMjcxIDEyNS4xNDggMzEwLjE1NSA4NiAzNTguNDU1IDg2eiBtMCA1OS44MjdoLTMwNi4wOWMtMTUuMjUzIDAtMjcuNjE4IDEyLjM2Mi0yNy42MTggMjcuNjEyVjkwMC41NmMwIDE1LjI1IDEyLjM2NSAyNy42MTIgMjcuNjE4IDI3LjYxMmgzMDYuMDljMTUuMjUzIDAgMjcuNjE4LTEyLjM2MiAyNy42MTgtMjcuNjEyVjE3My40NGMwLTE1LjI1LTEyLjM2NS0yNy42MTItMjcuNjE4LTI3LjYxMnpNNTEyLjY1MSA2NzAuNDU5YzI2LjY5MiAwIDQ4LjMzIDIxLjYzNCA0OC4zMyA0OC4zMjIgMCAyNi42ODctMjEuNjM4IDQ4LjMyMS00OC4zMyA0OC4zMjEtMjYuNjkyIDAtNDguMzMtMjEuNjM0LTQ4LjMzLTQ4LjMyMSAwLTI2LjY4OCAyMS42MzgtNDguMzIyIDQ4LjMzLTQ4LjMyMnogbTk4LjcxNC0yNzEuNTJjMTYuNTI0IDAgMjkuOTE5IDEzLjM5MiAyOS45MTkgMjkuOTEzIDAgMTYuMjg1LTEzLjAxNSAyOS41My0yOS4yMTIgMjkuOTA1bC0wLjcwNyAwLjAwOEg0MTMuNzA2Yy0xNi41MjMgMC0yOS45MTgtMTMuMzkyLTI5LjkxOC0yOS45MTMgMC0xNi4yODUgMTMuMDE1LTI5LjUzIDI5LjIxMi0yOS45MDVsMC43MDYtMC4wMDhoMTk3LjY2eiBtMC0xMTYuMDEzYzE2LjUyNCAwIDI5LjkxOSAxMy4zOTMgMjkuOTE5IDI5LjkxMyAwIDE2LjI4NS0xMy4wMTUgMjkuNTMtMjkuMjEyIDI5LjkwNWwtMC43MDcgMC4wMDhINDEzLjcwNmMtMTYuNTIzIDAtMjkuOTE4LTEzLjM5Mi0yOS45MTgtMjkuOTEzIDAtMTYuMjg0IDEzLjAxNS0yOS41MyAyOS4yMTItMjkuOTA1bDAuNzA2LTAuMDA4aDE5Ny42NnoiLz48L3N2Zz4=" vertex="1" parent="1e2kQV1l2WdOp7GWkUZe-134">
          <mxGeometry x="135.78947368421052" y="109.56521739130436" width="70.43478260869566" height="70.43478260869566" as="geometry" />
        </mxCell>
        <mxCell id="1e2kQV1l2WdOp7GWkUZe-138" value="" style="shape=image;verticalLabelPosition=bottom;verticalAlign=top;imageAspect=0;aspect=fixed;image=data:image/svg+xml,PHN2ZyB4bWxuczp4bGluaz0iaHR0cDovL3d3dy53My5vcmcvMTk5OS94bGluayIgeG1sbnM9Imh0dHA6Ly93d3cudzMub3JnLzIwMDAvc3ZnIiBoZWlnaHQ9IjIwMCIgd2lkdGg9IjIwMCIgdmVyc2lvbj0iMS4xIiB2aWV3Qm94PSIwIDAgMTAyNCAxMDI0IiBjbGFzcz0iaWNvbiI+PHBhdGggZmlsbD0iIzMzMzMzMyIgZD0iTTY2NC41NDUgODZjNDguMyAwIDg3LjQ1NSAzOS4xNDggODcuNDU1IDg3LjQzOVY5MDAuNTZDNzUyIDk0OC44NTIgNzEyLjg0NSA5ODggNjY0LjU0NSA5ODhoLTMwNi4wOWMtNDguMyAwLTg3LjQ1NS0zOS4xNDgtODcuNDU1LTg3LjQzOVYxNzMuNDRDMjcxIDEyNS4xNDggMzEwLjE1NSA4NiAzNTguNDU1IDg2eiBtMCA1OS44MjdoLTMwNi4wOWMtMTUuMjUzIDAtMjcuNjE4IDEyLjM2Mi0yNy42MTggMjcuNjEyVjkwMC41NmMwIDE1LjI1IDEyLjM2NSAyNy42MTIgMjcuNjE4IDI3LjYxMmgzMDYuMDljMTUuMjUzIDAgMjcuNjE4LTEyLjM2MiAyNy42MTgtMjcuNjEyVjE3My40NGMwLTE1LjI1LTEyLjM2NS0yNy42MTItMjcuNjE4LTI3LjYxMnpNNTEyLjY1MSA2NzAuNDU5YzI2LjY5MiAwIDQ4LjMzIDIxLjYzNCA0OC4zMyA0OC4zMjIgMCAyNi42ODctMjEuNjM4IDQ4LjMyMS00OC4zMyA0OC4zMjEtMjYuNjkyIDAtNDguMzMtMjEuNjM0LTQ4LjMzLTQ4LjMyMSAwLTI2LjY4OCAyMS42MzgtNDguMzIyIDQ4LjMzLTQ4LjMyMnogbTk4LjcxNC0yNzEuNTJjMTYuNTI0IDAgMjkuOTE5IDEzLjM5MiAyOS45MTkgMjkuOTEzIDAgMTYuMjg1LTEzLjAxNSAyOS41My0yOS4yMTIgMjkuOTA1bC0wLjcwNyAwLjAwOEg0MTMuNzA2Yy0xNi41MjMgMC0yOS45MTgtMTMuMzkyLTI5LjkxOC0yOS45MTMgMC0xNi4yODUgMTMuMDE1LTI5LjUzIDI5LjIxMi0yOS45MDVsMC43MDYtMC4wMDhoMTk3LjY2eiBtMC0xMTYuMDEzYzE2LjUyNCAwIDI5LjkxOSAxMy4zOTMgMjkuOTE5IDI5LjkxMyAwIDE2LjI4NS0xMy4wMTUgMjkuNTMtMjkuMjEyIDI5LjkwNWwtMC43MDcgMC4wMDhINDEzLjcwNmMtMTYuNTIzIDAtMjkuOTE4LTEzLjM5Mi0yOS45MTgtMjkuOTEzIDAtMTYuMjg0IDEzLjAxNS0yOS41MyAyOS4yMTItMjkuOTA1bDAuNzA2LTAuMDA4aDE5Ny42NnoiLz48L3N2Zz4=" vertex="1" parent="1e2kQV1l2WdOp7GWkUZe-134">
          <mxGeometry x="168.94736842105263" y="109.56521739130436" width="70.43478260869566" height="70.43478260869566" as="geometry" />
        </mxCell>
        <mxCell id="1e2kQV1l2WdOp7GWkUZe-139" value="" style="group;movable=1;resizable=1;rotatable=1;deletable=1;editable=1;locked=0;connectable=1;" vertex="1" connectable="0" parent="1e2kQV1l2WdOp7GWkUZe-134">
          <mxGeometry x="-0.6200000000000045" width="240" height="180" as="geometry" />
        </mxCell>
        <mxCell id="1e2kQV1l2WdOp7GWkUZe-140" value="" style="shape=image;verticalLabelPosition=bottom;verticalAlign=top;imageAspect=0;aspect=fixed;image=data:image/svg+xml,PHN2ZyB4bWxuczp4bGluaz0iaHR0cDovL3d3dy53My5vcmcvMTk5OS94bGluayIgeG1sbnM9Imh0dHA6Ly93d3cudzMub3JnLzIwMDAvc3ZnIiBoZWlnaHQ9IjIwMCIgd2lkdGg9IjIwMCIgdmVyc2lvbj0iMS4xIiB2aWV3Qm94PSIwIDAgMTAyNCAxMDI0IiBjbGFzcz0iaWNvbiI+PHBhdGggZmlsbD0iIzMzMzMzMyIgZD0iTTg5LjUgMzA2LjhjLTAuMi02OS4xIDI2LjktMTM1LjUgNzUuMi0xODQuOSAxMC42LTEwLjYgMTQuNi0yNi4xIDEwLjYtNDAuNS00LTE0LjUtMTUuNS0yNS42LTMwLTI5LjMtMTQuNS0zLjctMjkuOSAwLjgtNDAuMyAxMS42LTEzMy41IDEzNi43LTEzMS44IDM1NS40IDMuOCA0OTAgMTYuMyAxNi4yIDQyLjcgMTYuMSA1OC45LTAuMiAxNi4yLTE2LjMgMTYuMS00Mi43LTAuMi01OC45LTUwLjEtNDkuNi03OC4yLTExNy4zLTc4LTE4Ny44ek03MTAuOSAxNDljLTE2LjYgMTUuOS0xNy4xIDQyLjMtMS4yIDU4LjkgNTQgNTYuMyA1Mi45IDE0NS41LTIuNiAyMDAuMy0xMC45IDEwLjQtMTUuNCAyNS45LTExLjcgNDAuNSAzLjcgMTQuNiAxNS4xIDI2LjEgMjkuNyAzMCAxNC42IDMuOSAzMC4xLTAuNCA0MC42LTExLjMgODcuOC04Ni45IDg5LjYtMjI4LjIgNC0zMTcuMy03LjctOC0xOC4yLTEyLjYtMjkuMi0xMi44LTEwLjktMC4xLTIxLjYgNC0yOS42IDExLjd6IG0wIDAiLz48cGF0aCBmaWxsPSIjMzMzMzMzIiBkPSJNOTE5IDYzLjdjLTEwLjQtMTAuOC0yNS43LTE1LjMtNDAuMy0xMS42LTE0LjUgMy43LTI2IDE0LjgtMzAgMjkuMy00IDE0LjQgMC4xIDI5LjkgMTAuNiA0MC41IDEwMS40IDEwNCAxMDAuMiAyNzAuMy0yLjkgMzcyLjctMTYuMyAxNi4yLTE2LjQgNDIuNi0wLjIgNTguOSAxNi4yIDE2LjMgNDIuNiAxNi40IDU4LjkgMC4yIDEzNS43LTEzNC43IDEzNy4zLTM1My4zIDMuOS00OTB6TTMxNy4zIDQ2Ny4yYzE2LjItMTYuNCAxNi4xLTQyLjctMC4zLTU4LjktNTUuNC01NC45LTU2LjYtMTQ0LjEtMi42LTIwMC4zIDE1LjktMTYuNiAxNS40LTQzLTEuMi01OC45LTE2LjYtMTUuOS00My0xNS40LTU4LjkgMS4yLTg1LjUgODkuMS04My43IDIzMC40IDQuMSAzMTcuMyAxNi4zIDE2IDQyLjcgMTUuOSA1OC45LTAuNHogbTI1NS42LTYzLjNjNDAuNi0yNy4xIDU4LjctNzcuNiA0NC43LTEyNC40LTE0LTQ2LjgtNTctNzguOS0xMDUuOC03OS4yLTQ4LjgtMC4zLTkyLjEgMzEuNC0xMDYuNyA3OC0xNC42IDQ2LjYgMyA5Ny4zIDQzLjQgMTI0LjhMMjYxLjQgOTE3LjNjLTcuOCAyMS42IDMuMyA0NS41IDI0LjkgNTMuNCAyMS42IDcuOCA0NS41LTMuNCA1My40LTI1TDM3OS4zIDgzN2gyNjIuNmw0MC41IDExMS41YzcuMiAxOS41IDI4LjcgMjkuNiA0OC4zIDIyLjVsNy41LTIuN2MxOS41LTcuMiAyOS42LTI4LjcgMjIuNS00OC4zTDU3Mi45IDQwMy45eiBtLTYyLjMgNzIuNEw1NjEgNjE0LjhINDYwLjJsNTAuNC0xMzguNXpNNDA2LjMgNzYyLjlsMjctNzQuMUg1ODhsMjcgNzQuMUg0MDYuM3ogbTAgMCIvPjwvc3ZnPg==" vertex="1" parent="1e2kQV1l2WdOp7GWkUZe-139">
          <mxGeometry width="156.52173913043478" height="156.52173913043478" as="geometry" />
        </mxCell>
        <mxCell id="1e2kQV1l2WdOp7GWkUZe-141" value="" style="shape=image;verticalLabelPosition=bottom;verticalAlign=top;imageAspect=0;aspect=fixed;image=data:image/svg+xml,PHN2ZyB4bWxuczp4bGluaz0iaHR0cDovL3d3dy53My5vcmcvMTk5OS94bGluayIgeG1sbnM9Imh0dHA6Ly93d3cudzMub3JnLzIwMDAvc3ZnIiBoZWlnaHQ9IjIwMCIgd2lkdGg9IjIwMCIgdmVyc2lvbj0iMS4xIiB2aWV3Qm94PSIwIDAgMTAyNCAxMDI0IiBjbGFzcz0iaWNvbiI+PHBhdGggZmlsbD0iIzMzMzMzMyIgZD0iTTY2NC41NDUgODZjNDguMyAwIDg3LjQ1NSAzOS4xNDggODcuNDU1IDg3LjQzOVY5MDAuNTZDNzUyIDk0OC44NTIgNzEyLjg0NSA5ODggNjY0LjU0NSA5ODhoLTMwNi4wOWMtNDguMyAwLTg3LjQ1NS0zOS4xNDgtODcuNDU1LTg3LjQzOVYxNzMuNDRDMjcxIDEyNS4xNDggMzEwLjE1NSA4NiAzNTguNDU1IDg2eiBtMCA1OS44MjdoLTMwNi4wOWMtMTUuMjUzIDAtMjcuNjE4IDEyLjM2Mi0yNy42MTggMjcuNjEyVjkwMC41NmMwIDE1LjI1IDEyLjM2NSAyNy42MTIgMjcuNjE4IDI3LjYxMmgzMDYuMDljMTUuMjUzIDAgMjcuNjE4LTEyLjM2MiAyNy42MTgtMjcuNjEyVjE3My40NGMwLTE1LjI1LTEyLjM2NS0yNy42MTItMjcuNjE4LTI3LjYxMnpNNTEyLjY1MSA2NzAuNDU5YzI2LjY5MiAwIDQ4LjMzIDIxLjYzNCA0OC4zMyA0OC4zMjIgMCAyNi42ODctMjEuNjM4IDQ4LjMyMS00OC4zMyA0OC4zMjEtMjYuNjkyIDAtNDguMzMtMjEuNjM0LTQ4LjMzLTQ4LjMyMSAwLTI2LjY4OCAyMS42MzgtNDguMzIyIDQ4LjMzLTQ4LjMyMnogbTk4LjcxNC0yNzEuNTJjMTYuNTI0IDAgMjkuOTE5IDEzLjM5MiAyOS45MTkgMjkuOTEzIDAgMTYuMjg1LTEzLjAxNSAyOS41My0yOS4yMTIgMjkuOTA1bC0wLjcwNyAwLjAwOEg0MTMuNzA2Yy0xNi41MjMgMC0yOS45MTgtMTMuMzkyLTI5LjkxOC0yOS45MTMgMC0xNi4yODUgMTMuMDE1LTI5LjUzIDI5LjIxMi0yOS45MDVsMC43MDYtMC4wMDhoMTk3LjY2eiBtMC0xMTYuMDEzYzE2LjUyNCAwIDI5LjkxOSAxMy4zOTMgMjkuOTE5IDI5LjkxMyAwIDE2LjI4NS0xMy4wMTUgMjkuNTMtMjkuMjEyIDI5LjkwNWwtMC43MDcgMC4wMDhINDEzLjcwNmMtMTYuNTIzIDAtMjkuOTE4LTEzLjM5Mi0yOS45MTgtMjkuOTEzIDAtMTYuMjg0IDEzLjAxNS0yOS41MyAyOS4yMTItMjkuOTA1bDAuNzA2LTAuMDA4aDE5Ny42NnoiLz48L3N2Zz4=" vertex="1" parent="1e2kQV1l2WdOp7GWkUZe-139">
          <mxGeometry x="102.63157894736842" y="109.56521739130436" width="70.43478260869566" height="70.43478260869566" as="geometry" />
        </mxCell>
        <mxCell id="1e2kQV1l2WdOp7GWkUZe-142" value="" style="shape=image;verticalLabelPosition=bottom;verticalAlign=top;imageAspect=0;aspect=fixed;image=data:image/svg+xml,PHN2ZyB4bWxuczp4bGluaz0iaHR0cDovL3d3dy53My5vcmcvMTk5OS94bGluayIgeG1sbnM9Imh0dHA6Ly93d3cudzMub3JnLzIwMDAvc3ZnIiBoZWlnaHQ9IjIwMCIgd2lkdGg9IjIwMCIgdmVyc2lvbj0iMS4xIiB2aWV3Qm94PSIwIDAgMTAyNCAxMDI0IiBjbGFzcz0iaWNvbiI+PHBhdGggZmlsbD0iIzMzMzMzMyIgZD0iTTY2NC41NDUgODZjNDguMyAwIDg3LjQ1NSAzOS4xNDggODcuNDU1IDg3LjQzOVY5MDAuNTZDNzUyIDk0OC44NTIgNzEyLjg0NSA5ODggNjY0LjU0NSA5ODhoLTMwNi4wOWMtNDguMyAwLTg3LjQ1NS0zOS4xNDgtODcuNDU1LTg3LjQzOVYxNzMuNDRDMjcxIDEyNS4xNDggMzEwLjE1NSA4NiAzNTguNDU1IDg2eiBtMCA1OS44MjdoLTMwNi4wOWMtMTUuMjUzIDAtMjcuNjE4IDEyLjM2Mi0yNy42MTggMjcuNjEyVjkwMC41NmMwIDE1LjI1IDEyLjM2NSAyNy42MTIgMjcuNjE4IDI3LjYxMmgzMDYuMDljMTUuMjUzIDAgMjcuNjE4LTEyLjM2MiAyNy42MTgtMjcuNjEyVjE3My40NGMwLTE1LjI1LTEyLjM2NS0yNy42MTItMjcuNjE4LTI3LjYxMnpNNTEyLjY1MSA2NzAuNDU5YzI2LjY5MiAwIDQ4LjMzIDIxLjYzNCA0OC4zMyA0OC4zMjIgMCAyNi42ODctMjEuNjM4IDQ4LjMyMS00OC4zMyA0OC4zMjEtMjYuNjkyIDAtNDguMzMtMjEuNjM0LTQ4LjMzLTQ4LjMyMSAwLTI2LjY4OCAyMS42MzgtNDguMzIyIDQ4LjMzLTQ4LjMyMnogbTk4LjcxNC0yNzEuNTJjMTYuNTI0IDAgMjkuOTE5IDEzLjM5MiAyOS45MTkgMjkuOTEzIDAgMTYuMjg1LTEzLjAxNSAyOS41My0yOS4yMTIgMjkuOTA1bC0wLjcwNyAwLjAwOEg0MTMuNzA2Yy0xNi41MjMgMC0yOS45MTgtMTMuMzkyLTI5LjkxOC0yOS45MTMgMC0xNi4yODUgMTMuMDE1LTI5LjUzIDI5LjIxMi0yOS45MDVsMC43MDYtMC4wMDhoMTk3LjY2eiBtMC0xMTYuMDEzYzE2LjUyNCAwIDI5LjkxOSAxMy4zOTMgMjkuOTE5IDI5LjkxMyAwIDE2LjI4NS0xMy4wMTUgMjkuNTMtMjkuMjEyIDI5LjkwNWwtMC43MDcgMC4wMDhINDEzLjcwNmMtMTYuNTIzIDAtMjkuOTE4LTEzLjM5Mi0yOS45MTgtMjkuOTEzIDAtMTYuMjg0IDEzLjAxNS0yOS41MyAyOS4yMTItMjkuOTA1bDAuNzA2LTAuMDA4aDE5Ny42NnoiLz48L3N2Zz4=" vertex="1" parent="1e2kQV1l2WdOp7GWkUZe-139">
          <mxGeometry x="135.78947368421052" y="109.56521739130436" width="70.43478260869566" height="70.43478260869566" as="geometry" />
        </mxCell>
        <mxCell id="1e2kQV1l2WdOp7GWkUZe-143" value="" style="shape=image;verticalLabelPosition=bottom;verticalAlign=top;imageAspect=0;aspect=fixed;image=data:image/svg+xml,PHN2ZyB4bWxuczp4bGluaz0iaHR0cDovL3d3dy53My5vcmcvMTk5OS94bGluayIgeG1sbnM9Imh0dHA6Ly93d3cudzMub3JnLzIwMDAvc3ZnIiBoZWlnaHQ9IjIwMCIgd2lkdGg9IjIwMCIgdmVyc2lvbj0iMS4xIiB2aWV3Qm94PSIwIDAgMTAyNCAxMDI0IiBjbGFzcz0iaWNvbiI+PHBhdGggZmlsbD0iIzMzMzMzMyIgZD0iTTY2NC41NDUgODZjNDguMyAwIDg3LjQ1NSAzOS4xNDggODcuNDU1IDg3LjQzOVY5MDAuNTZDNzUyIDk0OC44NTIgNzEyLjg0NSA5ODggNjY0LjU0NSA5ODhoLTMwNi4wOWMtNDguMyAwLTg3LjQ1NS0zOS4xNDgtODcuNDU1LTg3LjQzOVYxNzMuNDRDMjcxIDEyNS4xNDggMzEwLjE1NSA4NiAzNTguNDU1IDg2eiBtMCA1OS44MjdoLTMwNi4wOWMtMTUuMjUzIDAtMjcuNjE4IDEyLjM2Mi0yNy42MTggMjcuNjEyVjkwMC41NmMwIDE1LjI1IDEyLjM2NSAyNy42MTIgMjcuNjE4IDI3LjYxMmgzMDYuMDljMTUuMjUzIDAgMjcuNjE4LTEyLjM2MiAyNy42MTgtMjcuNjEyVjE3My40NGMwLTE1LjI1LTEyLjM2NS0yNy42MTItMjcuNjE4LTI3LjYxMnpNNTEyLjY1MSA2NzAuNDU5YzI2LjY5MiAwIDQ4LjMzIDIxLjYzNCA0OC4zMyA0OC4zMjIgMCAyNi42ODctMjEuNjM4IDQ4LjMyMS00OC4zMyA0OC4zMjEtMjYuNjkyIDAtNDguMzMtMjEuNjM0LTQ4LjMzLTQ4LjMyMSAwLTI2LjY4OCAyMS42MzgtNDguMzIyIDQ4LjMzLTQ4LjMyMnogbTk4LjcxNC0yNzEuNTJjMTYuNTI0IDAgMjkuOTE5IDEzLjM5MiAyOS45MTkgMjkuOTEzIDAgMTYuMjg1LTEzLjAxNSAyOS41My0yOS4yMTIgMjkuOTA1bC0wLjcwNyAwLjAwOEg0MTMuNzA2Yy0xNi41MjMgMC0yOS45MTgtMTMuMzkyLTI5LjkxOC0yOS45MTMgMC0xNi4yODUgMTMuMDE1LTI5LjUzIDI5LjIxMi0yOS45MDVsMC43MDYtMC4wMDhoMTk3LjY2eiBtMC0xMTYuMDEzYzE2LjUyNCAwIDI5LjkxOSAxMy4zOTMgMjkuOTE5IDI5LjkxMyAwIDE2LjI4NS0xMy4wMTUgMjkuNTMtMjkuMjEyIDI5LjkwNWwtMC43MDcgMC4wMDhINDEzLjcwNmMtMTYuNTIzIDAtMjkuOTE4LTEzLjM5Mi0yOS45MTgtMjkuOTEzIDAtMTYuMjg0IDEzLjAxNS0yOS41MyAyOS4yMTItMjkuOTA1bDAuNzA2LTAuMDA4aDE5Ny42NnoiLz48L3N2Zz4=" vertex="1" parent="1e2kQV1l2WdOp7GWkUZe-139">
          <mxGeometry x="168.94736842105263" y="109.56521739130436" width="70.43478260869566" height="70.43478260869566" as="geometry" />
        </mxCell>
        <mxCell id="1e2kQV1l2WdOp7GWkUZe-144" value="" style="shape=image;verticalLabelPosition=bottom;verticalAlign=top;imageAspect=0;aspect=fixed;image=data:image/svg+xml,PHN2ZyB4bWxuczp4bGluaz0iaHR0cDovL3d3dy53My5vcmcvMTk5OS94bGluayIgeG1sbnM9Imh0dHA6Ly93d3cudzMub3JnLzIwMDAvc3ZnIiBoZWlnaHQ9IjIwMCIgd2lkdGg9IjIwMCIgdmVyc2lvbj0iMS4xIiB2aWV3Qm94PSIwIDAgMTAyNCAxMDI0IiBjbGFzcz0iaWNvbiI+PHBhdGggZmlsbD0iIzAwMDAwMSIgZD0iTTEwNy4xNDA3NDEgNjMyLjQxNDgxNWMtMy43OTI1OTMtMzIuMjM3MDM3LTguNTMzMzMzLTY0LjQ3NDA3NC0xMi4zMjU5MjYtOTYuNzExMTExIDYuNjM3MDM3LTYuNjM3MDM3IDEzLjI3NDA3NC0xMi4zMjU5MjYgMTkuOTExMTExLTE4Ljk2Mjk2MyAxNy4wNjY2NjctNDkuMzAzNzA0IDQyLjY2NjY2Ny05My44NjY2NjcgNzUuODUxODUyLTEzNC42MzcwMzcgMTEzLjc3Nzc3OC0xNy4wNjY2NjcgMjMwLjQtMTUuMTcwMzcgMzQ3LjAyMjIyMi03LjU4NTE4NSA2OC4yNjY2NjcgMjQuNjUxODUyIDEyOC45NDgxNDggNTYuODg4ODg5IDE3OC4yNTE4NTIgMTAwLjUwMzcwMyA1Ny44MzcwMzcgMTYuMTE4NTE5IDExNS42NzQwNzQgMzEuMjg4ODg5IDE3NC40NTkyNTkgNDcuNDA3NDA4IDM1LjA4MTQ4MSA0Mi42NjY2NjcgMzguODc0MDc0IDkxLjk3MDM3IDEyLjMyNTkyNiAxNDAuMzI1OTI2bC02MC42ODE0ODEgNy41ODUxODVjMi44NDQ0NDQtOC41MzMzMzMgNC43NDA3NDEtMTguMDE0ODE1IDQuNzQwNzQtMjguNDQ0NDQ1IDAtMjUuNi0xMC40Mjk2My00OC4zNTU1NTYtMjcuNDk2Mjk2LTY1LjQyMjIyMi0xNy4wNjY2NjctMTcuMDY2NjY3LTM5LjgyMjIyMi0yNy40OTYyOTYtNjUuNDIyMjIyLTI3LjQ5NjI5NnMtNDguMzU1NTU2IDEwLjQyOTYzLTY1LjQyMjIyMiAyNy40OTYyOTZjLTE3LjA2NjY2NyAxNy4wNjY2NjctMjcuNDk2Mjk2IDM5LjgyMjIyMi0yNy40OTYyOTcgNjUuNDIyMjIyIDAgMTQuMjIyMjIyIDIuODQ0NDQ0IDI3LjQ5NjI5NiA4LjUzMzMzNCAzOC44NzQwNzRIMjk1LjgyMjIyMmM1LjY4ODg4OS0xMi4zMjU5MjYgOC41MzMzMzMtMjUuNiA4LjUzMzMzNC0zOC44NzQwNzQgMC0yNS42LTEwLjQyOTYzLTQ4LjM1NTU1Ni0yNy40OTYyOTctNjUuNDIyMjIyLTE3LjA2NjY2Ny0xNy4wNjY2NjctMzkuODIyMjIyLTI3LjQ5NjI5Ni02NS40MjIyMjItMjcuNDk2Mjk2cy00OC4zNTU1NTYgMTAuNDI5NjMtNjUuNDIyMjIyIDI3LjQ5NjI5NmMtMTcuMDY2NjY3IDE3LjA2NjY2Ny0yNy40OTYyOTYgMzkuODIyMjIyLTI3LjQ5NjI5NiA2NS40MjIyMjJ2My43OTI1OTNsLTExLjM3Nzc3OC0xMy4yNzQwNzR6IG0xMDUuMjQ0NDQ0LTY4LjI2NjY2N2MtMjEuODA3NDA3IDAtNDEuNzE4NTE5IDguNTMzMzMzLTU1Ljk0MDc0MSAyMi43NTU1NTZTMTMyLjc0MDc0MSA2MjEuMDM3MDM3IDEzMi43NDA3NDEgNjQyLjg0NDQ0NGMwIDIxLjgwNzQwNyA4LjUzMzMzMyA0MS43MTg1MTkgMjIuNzU1NTU1IDU1Ljk0MDc0MXMzNC4xMzMzMzMgMjIuNzU1NTU2IDU1Ljk0MDc0MSAyMi43NTU1NTZjMjEuODA3NDA3IDAgNDEuNzE4NTE5LTguNTMzMzMzIDU1Ljk0MDc0MS0yMi43NTU1NTZzMjIuNzU1NTU2LTM0LjEzMzMzMyAyMi43NTU1NTUtNTUuOTQwNzQxYzAtMjEuODA3NDA3LTguNTMzMzMzLTQxLjcxODUxOS0yMi43NTU1NTUtNTUuOTQwNzQtMTMuMjc0MDc0LTE0LjIyMjIyMi0zMy4xODUxODUtMjIuNzU1NTU2LTU0Ljk5MjU5My0yMi43NTU1NTZ6IG01NDEuMzkyNTkzIDBjLTIxLjgwNzQwNyAwLTQxLjcxODUxOSA4LjUzMzMzMy01NS45NDA3NDEgMjIuNzU1NTU2cy0yMi43NTU1NTYgMzQuMTMzMzMzLTIyLjc1NTU1NiA1NS45NDA3NGMwIDIxLjgwNzQwNyA4LjUzMzMzMyA0MS43MTg1MTkgMjIuNzU1NTU2IDU1Ljk0MDc0MXMzNC4xMzMzMzMgMjIuNzU1NTU2IDU1Ljk0MDc0MSAyMi43NTU1NTZjMjEuODA3NDA3IDAgNDEuNzE4NTE5LTguNTMzMzMzIDU1Ljk0MDc0MS0yMi43NTU1NTZzMjIuNzU1NTU2LTM0LjEzMzMzMyAyMi43NTU1NTUtNTUuOTQwNzQxYzAtMjEuODA3NDA3LTguNTMzMzMzLTQxLjcxODUxOS0yMi43NTU1NTUtNTUuOTQwNzRzLTM0LjEzMzMzMy0yMi43NTU1NTYtNTUuOTQwNzQxLTIyLjc1NTU1NnogbTEyLjMyNTkyNiA2OS4yMTQ4MTVjMS44OTYyOTYgMS44OTYyOTYgMy43OTI1OTMgNC43NDA3NDEgNC43NDA3NCA4LjUzMzMzMyA2LjYzNzAzNyAwIDE2LjExODUxOS0xLjg5NjI5NiAxOC45NjI5NjMtMi44NDQ0NDQgNC43NDA3NDEtMC45NDgxNDggOS40ODE0ODEtMi44NDQ0NDQgMTQuMjIyMjIzLTMuNzkyNTkzLTEuODk2Mjk2LTEwLjQyOTYzLTYuNjM3MDM3LTE5LjkxMTExMS0xNC4yMjIyMjMtMjcuNDk2Mjk2bC0xMS4zNzc3NzcgMTEuMzc3Nzc4Yy0yLjg0NDQ0NCAxLjg5NjI5Ni05LjQ4MTQ4MSA4LjUzMzMzMy0xMi4zMjU5MjYgMTQuMjIyMjIyeiBtLTcuNTg1MTg1IDI3LjQ5NjI5NmMtMC45NDgxNDggMC0yLjg0NDQ0NCAwLjk0ODE0OC0zLjc5MjU5MyAwLjk0ODE0OC0xLjg5NjI5NiAwLTMuNzkyNTkzIDAtNS42ODg4ODktMC45NDgxNDgtMy43OTI1OTMgNS42ODg4ODktNi42MzcwMzcgMTUuMTcwMzctNi42MzcwMzcgMTguMDE0ODE1LTAuOTQ4MTQ4IDMuNzkyNTkzLTEuODk2Mjk2IDguNTMzMzMzLTIuODQ0NDQ0IDEyLjMyNTkyNiA0Ljc0MDc0MSAxLjg5NjI5NiAxMC40Mjk2MyAyLjg0NDQ0NCAxNi4xMTg1MTggMi44NDQ0NDQgNC43NDA3NDEgMCA5LjQ4MTQ4MS0wLjk0ODE0OCAxNC4yMjIyMjItMS44OTYyOTYtMC45NDgxNDgtNC43NDA3NDEtMS44OTYyOTYtOC41MzMzMzMtMi44NDQ0NDQtMTMuMjc0MDc0LTIuODQ0NDQ0LTMuNzkyNTkzLTUuNjg4ODg5LTEyLjMyNTkyNi04LjUzMzMzMy0xOC4wMTQ4MTV6IG0tMTkuOTExMTEyLTIwLjg1OTI1OWMwLjk0ODE0OC0yLjg0NDQ0NCAyLjg0NDQ0NC01LjY4ODg4OSA1LjY4ODg4OS03LjU4NTE4NS0yLjg0NDQ0NC01LjY4ODg4OS0xMC40Mjk2My0xMy4yNzQwNzQtMTIuMzI1OTI2LTE1LjE3MDM3MS0zLjc5MjU5My0zLjc5MjU5My03LjU4NTE4NS03LjU4NTE4NS0xMS4zNzc3NzctMTAuNDI5NjI5IDAgMC0wLjk0ODE0OCAwLTEuODk2Mjk3IDAuOTQ4MTQ4LTYuNjM3MDM3IDYuNjM3MDM3LTExLjM3Nzc3OCAxNS4xNzAzNy0xMy4yNzQwNzQgMjUuNiA0Ljc0MDc0MSAxLjg5NjI5NiA5LjQ4MTQ4MSAyLjg0NDQ0NCAxNC4yMjIyMjIgMy43OTI1OTMgMi44NDQ0NDQgMC45NDgxNDggMTIuMzI1OTI2IDIuODQ0NDQ0IDE4Ljk2Mjk2MyAyLjg0NDQ0NHogbTE3LjA2NjY2Ny0xMy4yNzQwNzRjNC43NDA3NDEtOS40ODE0ODEgMTQuMjIyMjIyLTE4Ljk2Mjk2MyAyMi43NTU1NTYtMjcuNDk2Mjk2LTcuNTg1MTg1LTMuNzkyNTkzLTE1LjE3MDM3LTYuNjM3MDM3LTIzLjcwMzcwNC02LjYzNzAzNy03LjU4NTE4NSAwLTE1LjE3MDM3IDEuODk2Mjk2LTIxLjgwNzQwNyA0Ljc0MDc0IDguNTMzMzMzIDkuNDgxNDgxIDE4LjAxNDgxNSAxOS45MTExMTEgMjIuNzU1NTU1IDI5LjM5MjU5M3ogbTQ3LjQwNzQwNyAyMi43NTU1NTVjLTExLjM3Nzc3OCAyLjg0NDQ0NC0yNC42NTE4NTIgNS42ODg4ODktMzQuMTMzMzMzIDQuNzQwNzQxIDQuNzQwNzQxIDguNTMzMzMzIDguNTMzMzMzIDE5LjkxMTExMSAxMS4zNzc3NzggMzAuMzQwNzQxIDIuODQ0NDQ0LTEuODk2Mjk2IDUuNjg4ODg5LTQuNzQwNzQxIDguNTMzMzMzLTYuNjM3MDM3IDcuNTg1MTg1LTcuNTg1MTg1IDEzLjI3NDA3NC0xNy4wNjY2NjcgMTQuMjIyMjIyLTI4LjQ0NDQ0NXogbS03Ni44IDM0LjEzMzMzNGMyLjg0NDQ0NC0xMS4zNzc3NzggNy41ODUxODUtMjIuNzU1NTU2IDEyLjMyNTkyNi0zMS4yODg4ODktMTAuNDI5NjMgMC0yMi43NTU1NTYtMi44NDQ0NDQtMzQuMTMzMzMzLTUuNjg4ODg5IDAuOTQ4MTQ4IDEyLjMyNTkyNiA2LjYzNzAzNyAyMi43NTU1NTYgMTQuMjIyMjIyIDMxLjI4ODg4OSAyLjg0NDQ0NCAxLjg5NjI5NiA0Ljc0MDc0MSAzLjc5MjU5MyA3LjU4NTE4NSA1LjY4ODg4OXogbS01MDIuNTE4NTE4LTUwLjI1MTg1MmMxLjg5NjI5NiAxLjg5NjI5NiAzLjc5MjU5MyA0Ljc0MDc0MSA0Ljc0MDc0MSA4LjUzMzMzMyA2LjYzNzAzNyAwIDE2LjExODUxOS0xLjg5NjI5NiAxOC45NjI5NjMtMi44NDQ0NDQgNC43NDA3NDEtMC45NDgxNDggOS40ODE0ODEtMi44NDQ0NDQgMTQuMjIyMjIyLTMuNzkyNTkzLTEuODk2Mjk2LTEwLjQyOTYzLTYuNjM3MDM3LTE5LjkxMTExMS0xNC4yMjIyMjItMjcuNDk2Mjk2bC0xMS4zNzc3NzggMTEuMzc3Nzc4Yy0yLjg0NDQ0NCAxLjg5NjI5Ni05LjQ4MTQ4MSA4LjUzMzMzMy0xMi4zMjU5MjYgMTQuMjIyMjIyeiBtLTcuNTg1MTg1IDI3LjQ5NjI5NmMtMC45NDgxNDggMC0yLjg0NDQ0NCAwLjk0ODE0OC0zLjc5MjU5MyAwLjk0ODE0OC0xLjg5NjI5NiAwLTMuNzkyNTkzIDAtNS42ODg4ODktMC45NDgxNDgtMy43OTI1OTMgNS42ODg4ODktNi42MzcwMzcgMTUuMTcwMzctNi42MzcwMzcgMTguMDE0ODE1LTAuOTQ4MTQ4IDMuNzkyNTkzLTEuODk2Mjk2IDguNTMzMzMzLTIuODQ0NDQ0IDEyLjMyNTkyNiA0Ljc0MDc0MSAxLjg5NjI5NiAxMC40Mjk2MyAyLjg0NDQ0NCAxNi4xMTg1MTggMi44NDQ0NDQgNC43NDA3NDEgMCA5LjQ4MTQ4MS0wLjk0ODE0OCAxNC4yMjIyMjMtMS44OTYyOTYtMC45NDgxNDgtNC43NDA3NDEtMS44OTYyOTYtOC41MzMzMzMtMi44NDQ0NDUtMTMuMjc0MDc0LTIuODQ0NDQ0LTMuNzkyNTkzLTQuNzQwNzQxLTEyLjMyNTkyNi04LjUzMzMzMy0xOC4wMTQ4MTV6IG0tMTguOTYyOTYzLTIwLjg1OTI1OWMwLjk0ODE0OC0yLjg0NDQ0NCAyLjg0NDQ0NC01LjY4ODg4OSA1LjY4ODg4OS03LjU4NTE4NS0yLjg0NDQ0NC01LjY4ODg4OS0xMC40Mjk2My0xMy4yNzQwNzQtMTIuMzI1OTI2LTE1LjE3MDM3MS0zLjc5MjU5My0zLjc5MjU5My03LjU4NTE4NS03LjU4NTE4NS0xMS4zNzc3NzgtMTAuNDI5NjI5bC0xLjg5NjI5NiAxLjg5NjI5NmMtNi42MzcwMzcgNi42MzcwMzctMTEuMzc3Nzc4IDE1LjE3MDM3LTEzLjI3NDA3NCAyNS42IDQuNzQwNzQxIDEuODk2Mjk2IDkuNDgxNDgxIDIuODQ0NDQ0IDE0LjIyMjIyMiAzLjc5MjU5MyAyLjg0NDQ0NCAwIDEyLjMyNTkyNiAxLjg5NjI5NiAxOC45NjI5NjMgMS44OTYyOTZ6IG0xNi4xMTg1MTgtMTMuMjc0MDc0YzQuNzQwNzQxLTkuNDgxNDgxIDE0LjIyMjIyMi0xOC45NjI5NjMgMjIuNzU1NTU2LTI3LjQ5NjI5Ni03LjU4NTE4NS0zLjc5MjU5My0xNS4xNzAzNy02LjYzNzAzNy0yMy43MDM3MDQtNi42MzcwMzctNy41ODUxODUgMC0xNS4xNzAzNyAxLjg5NjI5Ni0yMS44MDc0MDcgNC43NDA3NCA4LjUzMzMzMyA5LjQ4MTQ4MSAxOC4wMTQ4MTUgMTkuOTExMTExIDIyLjc1NTU1NSAyOS4zOTI1OTN6IG00OC4zNTU1NTYgMjIuNzU1NTU1Yy0xMS4zNzc3NzggMi44NDQ0NDQtMjQuNjUxODUyIDUuNjg4ODg5LTM0LjEzMzMzMyA0Ljc0MDc0MSA0Ljc0MDc0MSA4LjUzMzMzMyA4LjUzMzMzMyAxOS45MTExMTEgMTEuMzc3Nzc3IDMwLjM0MDc0MSAyLjg0NDQ0NC0xLjg5NjI5NiA1LjY4ODg4OS00Ljc0MDc0MSA4LjUzMzMzNC02LjYzNzAzNyA3LjU4NTE4NS03LjU4NTE4NSAxMi4zMjU5MjYtMTcuMDY2NjY3IDE0LjIyMjIyMi0yOC40NDQ0NDV6IG0tNzcuNzQ4MTQ4IDM0LjEzMzMzNGMyLjg0NDQ0NC0xMS4zNzc3NzggNy41ODUxODUtMjIuNzU1NTU2IDEyLjMyNTkyNi0zMS4yODg4ODktMTAuNDI5NjMgMC0yMi43NTU1NTYtMi44NDQ0NDQtMzQuMTMzMzM0LTUuNjg4ODg5IDAuOTQ4MTQ4IDEyLjMyNTkyNiA2LjYzNzAzNyAyMi43NTU1NTYgMTQuMjIyMjIzIDMxLjI4ODg4OSAyLjg0NDQ0NCAxLjg5NjI5NiA0Ljc0MDc0MSAzLjc5MjU5MyA3LjU4NTE4NSA1LjY4ODg4OXogbTM4My4wNTE4NTItMTg5LjYyOTYzYzMuNzkyNTkzLTExLjM3Nzc3OCA3LjU4NTE4NS0yMS44MDc0MDcgMTEuMzc3Nzc3LTMzLjE4NTE4NSAyNi41NDgxNDggMC45NDgxNDggNDYuNDU5MjU5IDEwLjQyOTYzIDYyLjU3Nzc3OCAyNC42NTE4NTJsLTIuODQ0NDQ0IDUuNjg4ODg5IDE3LjA2NjY2NiA3LjU4NTE4NSAxNi4xMTg1MTktMTUuMTcwMzdjLTQyLjY2NjY2Ny0zNy45MjU5MjYtOTkuNTU1NTU2LTY1LjQyMjIyMi0xNDEuMjc0MDc0LTg2LjI4MTQ4Mi01MS4yLTIuODQ0NDQ0LTk5LjU1NTU1Ni0zLjc5MjU5My0xNDcuOTExMTExLTIuODQ0NDQ0bDMuNzkyNTkyIDUwLjI1MTg1MSAzLjc5MjU5MyA1NC4wNDQ0NDUgMjIxLjg2NjY2NyAzLjc5MjU5M2M1LjY4ODg4OSAyNC42NTE4NTIgNy41ODUxODUgNDkuMzAzNzA0IDcuNTg1MTg1IDczLjk1NTU1NSAwIDI2LjU0ODE0OC0zLjc5MjU5MyA1My4wOTYyOTYtMTAuNDI5NjMgNzkuNjQ0NDQ1SDM5NC40Mjk2M2MtNC43NDA3NDEtMTYuMTE4NTE5LTguNTMzMzMzLTMzLjE4NTE4NS0xMC40Mjk2My01MC4yNTE4NTItMi44NDQ0NDQtMTguMDE0ODE1LTQuNzQwNzQxLTM2Ljk3Nzc3OC01LjY4ODg4OS01Ni44ODg4ODl2LTQxLjcxODUxOUgzNjkuNzc3Nzc4VjU0OS45MjU5MjZjMC45NDgxNDggMTkuOTExMTExIDIuODQ0NDQ0IDM4Ljg3NDA3NCA1LjY4ODg4OSA1Ny44MzcwMzdzNy41ODUxODUgMzYuMDI5NjMgMTIuMzI1OTI2IDU0LjA0NDQ0NGwwLjk0ODE0OCAyLjg0NDQ0NUg2MTUuMzQ4MTQ4bDAuOTQ4MTQ4LTIuODQ0NDQ1YzcuNTg1MTg1LTI4LjQ0NDQ0NCAxMS4zNzc3NzgtNTYuODg4ODg5IDEyLjMyNTkyNi04NC4zODUxODUgMC0yNC42NTE4NTItMS44OTYyOTYtNDkuMzAzNzA0LTcuNTg1MTg1LTczLjk1NTU1NUg2MzUuMjU5MjU5bC0yMS44MDc0MDctOC41MzMzMzQtNDYuNDU5MjU5LTAuOTQ4MTQ4eiBtLTE3MC42NjY2NjcgMzQuMTMzMzM0djkuNDgxNDgxaDQxLjcxODUxOHYtOS40ODE0ODFoLTQxLjcxODUxOHogbS0zNS4wODE0ODItMTMyLjc0MDc0MWMtMzEuMjg4ODg5IDAuOTQ4MTQ4LTYyLjU3Nzc3OCAxLjg5NjI5Ni05My44NjY2NjYgMy43OTI1OTItMTguOTYyOTYzIDIzLjcwMzcwNC0zMS4yODg4ODkgNDkuMzAzNzA0LTQxLjcxODUxOSA3NC45MDM3MDQgNS42ODg4ODkgNy41ODUxODUgMTEuMzc3Nzc4IDE0LjIyMjIyMiAxNy4wNjY2NjcgMjEuODA3NDA3bDExMy43Nzc3NzggMS44OTYyOTcgNC43NDA3NC0xMDIuNHogbTUyOC4xMTg1MTkgMTQ3LjkxMTExMWwtNzEuMTExMTExLTE0LjIyMjIyMnMzMi4yMzcwMzcgNDkuMzAzNzA0IDQ4LjM1NTU1NSA1MC4yNTE4NTJjMTUuMTcwMzcgMC45NDgxNDggMjUuNi03LjU4NTE4NSAyNS42LTcuNTg1MTg2aDExLjM3Nzc3OGwtMTQuMjIyMjIyLTI4LjQ0NDQ0NHogbS03NTcuNTcwMzctNTMuMDk2Mjk2aDM1LjA4MTQ4MWM0Ljc0MDc0MS0zNi45Nzc3NzggNy41ODUxODUtNTIuMTQ4MTQ4IDE3LjA2NjY2Ny04Ni4yODE0ODJIMTgwLjE0ODE0OGMtMjEuODA3NDA3IDMwLjM0MDc0MS0zMC4zNDA3NDEgNDcuNDA3NDA3LTQ4LjM1NTU1NSA4Ni4yODE0ODJ6Ii8+PC9zdmc+" vertex="1" parent="1e2kQV1l2WdOp7GWkUZe-128">
          <mxGeometry y="410" width="130" height="130" as="geometry" />
        </mxCell>
        <mxCell id="1e2kQV1l2WdOp7GWkUZe-145" value="" style="shape=image;verticalLabelPosition=bottom;verticalAlign=top;imageAspect=0;aspect=fixed;image=data:image/svg+xml,PHN2ZyB4bWxuczp4bGluaz0iaHR0cDovL3d3dy53My5vcmcvMTk5OS94bGluayIgeG1sbnM9Imh0dHA6Ly93d3cudzMub3JnLzIwMDAvc3ZnIiBoZWlnaHQ9IjIwMCIgd2lkdGg9IjIwMCIgdmVyc2lvbj0iMS4xIiB2aWV3Qm94PSIwIDAgMTAyNCAxMDI0IiBjbGFzcz0iaWNvbiI+PHBhdGggZmlsbD0iIzJBMkEzNyIgZD0iTTM2OC40NjkzMzMgNTUxLjU3MzMzM2wwLjEyOC0wLjIxMzMzMy05Ny4xMzA2NjYtMTAzLjg3MmE0Mi42NjY2NjcgNDIuNjY2NjY3IDAgMCAxLTIuMDY5MzM0LTU1Ljg5MzMzM2wyMi44MDUzMzQtMjguMzMwNjY3IDM4My45Nzg2NjYgMzkxLjg5MzMzMy00NC44IDI3LjM3MDY2N2E0Mi42NjY2NjcgNDIuNjY2NjY3IDAgMCAxLTQ0LjI0NTMzMyAwLjE3MDY2N2wtMjE4LjY2NjY2Ny0yMzEuMTI1MzM0eiBtLTExLjIyMTMzMyAxOS4wMjkzMzRsNjEuODAyNjY3IDY1LjMyMjY2Ni0zOS43NDQgNjcuMjg1MzM0YTQyLjU2IDQyLjU2IDAgMCAxLTI3LjY5MDY2NyAyMC4wMTA2NjZjLTMuMDI5MzMzIDAuNzA0LTYuMTg2NjY3IDEuMDY2NjY3LTkuNDI5MzMzIDEuMDY2NjY3SDI3Ny4zMzMzMzN2NjUuMjhhNDIuNjY2NjY3IDQyLjY2NjY2NyAwIDEgMS04NS4zMzMzMzMgMHYtMTcwLjY2NjY2N2E0Mi42NjY2NjcgNDIuNjY2NjY3IDAgMSAxIDg1LjMzMzMzMyAwVjY0MGgzOC45MzMzMzRsNDAuOTYtNjkuMzk3MzMzeiBtLTM4LjI1MDY2Ny0yNDAuNjRsOTguMTc2LTEyMi4wMjY2NjdhNDIuNjY2NjY3IDQyLjY2NjY2NyAwIDAgMSA2My4xODkzMzQtMy42NDhsMzgxLjAzNDY2NiAzNzUuNTMwNjY3YTQyLjY2NjY2NyA0Mi42NjY2NjcgMCAwIDEtNy42OCA2Ni43OTQ2NjZsLTE0MC4zNzMzMzMgODUuODAyNjY3LTM5NC4zNDY2NjctNDAyLjQ1MzMzM3oiLz48L3N2Zz4=" vertex="1" parent="1e2kQV1l2WdOp7GWkUZe-128">
          <mxGeometry x="130" y="410" width="130" height="130" as="geometry" />
        </mxCell>
        <mxCell id="1e2kQV1l2WdOp7GWkUZe-146" value="" style="shape=image;verticalLabelPosition=bottom;verticalAlign=top;imageAspect=0;aspect=fixed;image=data:image/svg+xml,PHN2ZyB4bWxuczp4bGluaz0iaHR0cDovL3d3dy53My5vcmcvMTk5OS94bGluayIgeG1sbnM9Imh0dHA6Ly93d3cudzMub3JnLzIwMDAvc3ZnIiBoZWlnaHQ9IjIwMCIgd2lkdGg9IjIwMCIgdmVyc2lvbj0iMS4xIiB2aWV3Qm94PSIwIDAgMTAyNCAxMDI0IiBjbGFzcz0iaWNvbiI+PHBhdGggZmlsbD0iIzI3MjYzNiIgZD0iTTc5OC43MjMyMzQgMTc0Ljc4Mjc0NWMwLTYwLjU3NjY1Ny00OS4xMDY0MTgtMTA5LjY4MzA3NS0xMDkuNjgzMDc1LTEwOS42ODMwNzVsLTM1NC43MDg2MjggMGMtNjAuNTc2NjU3IDAtMTA5LjY4MzA3NSA0OS4xMDY0MTgtMTA5LjY4MzA3NSAxMDkuNjgzMDc1bDAgNjczLjk4MDE2MWMwIDYwLjU3NjY1NyA0OS4xMDY0MTggMTA5LjY4MzA3NSAxMDkuNjgzMDc1IDEwOS42ODMwNzVsMzU0LjcwODYyOCAwYzYwLjU3NjY1NyAwIDEwOS42ODMwNzUtNDkuMTA2NDE4IDEwOS42ODMwNzUtMTA5LjY4MzA3NUw3OTguNzIzMjM0IDE3NC43ODI3NDV6TTI2NC41NTczOTggMjM3LjAxNTExMmw0OTQuMjU2ODk0IDAgMCA1MjkuMDQ5MzA1LTQ5NC4yNTY4OTQgMEwyNjQuNTU3Mzk4IDIzNy4wMTUxMTJ6TTMzNC4zNTYwOTEgMTA1LjAwODYxMiA2ODkuMDE2NjIzIDEwNS4wMDg2MTJjMzguNTQ4OTY4IDAgNjkuNzk4NjkyIDMxLjI0OTcyNSA2OS43OTg2OTIgNjkuNzk4NjkybDAgMjIuMjk4ODY1LTQ5NC4yNTY4OTQgMCAwLTIyLjI5ODg2NUMyNjQuNTU3Mzk4IDEzNi4yNTkzNiAyOTUuODA3MTIzIDEwNS4wMDg2MTIgMzM0LjM1NjA5MSAxMDUuMDA4NjEyek02ODkuMDE2NjIzIDkxOC41MzcwNCAzMzQuMzU2MDkxIDkxOC41MzcwNGMtMzguNTQ4OTY4IDAtNjkuNzk4NjkyLTMxLjI0OTcyNS02OS43OTg2OTItNjkuNzk4NjkybDAtNDMuNzg4Mjk2IDQ5NC4yNTY4OTQgMCAwIDQzLjc4ODI5NkM3NTguODE0MjkyIDg4Ny4yODczMTUgNzI3LjU2NDU2NyA5MTguNTM3MDQgNjg5LjAxNjYyMyA5MTguNTM3MDR6Ii8+PHBhdGggZmlsbD0iIzI3MjYzNiIgZD0iTTUxMy4xNzM3MzIgODI5Ljk0MzI4MmMtMTYuNzA3NTIgMC0zMC4zMDExMiAxMy41OTM2LTMwLjMwMTEyIDMwLjMwMTEyIDAgMTYuNzA3NTIgMTMuNTkzNiAzMC4zMDExMiAzMC4zMDExMiAzMC4zMDExMnMzMC4yOTkwNzMtMTMuNTkzNiAzMC4yOTkwNzMtMzAuMzAxMTJDNTQzLjQ3MjgwNSA4NDMuNTM2ODgyIDUyOS44ODEyNTMgODI5Ljk0MzI4MiA1MTMuMTczNzMyIDgyOS45NDMyODJ6Ii8+PC9zdmc+" vertex="1" parent="1e2kQV1l2WdOp7GWkUZe-128">
          <mxGeometry x="270" y="410" width="130" height="130" as="geometry" />
        </mxCell>
        <mxCell id="1e2kQV1l2WdOp7GWkUZe-147" value="" style="html=1;fillColor=#CCCCCC;strokeColor=#6881B3;gradientColor=none;gradientDirection=north;strokeWidth=2;shape=mxgraph.networks.comm_link_edge;html=1;labelBackgroundColor=none;endArrow=none;fontFamily=Verdana;fontSize=22;fontColor=#000000;entryX=0.5;entryY=1;entryDx=0;entryDy=0;exitX=0.5;exitY=0;exitDx=0;exitDy=0;" edge="1" parent="1e2kQV1l2WdOp7GWkUZe-128" source="1e2kQV1l2WdOp7GWkUZe-144">
          <mxGeometry width="100" height="100" relative="1" as="geometry">
            <mxPoint x="-30" y="330" as="sourcePoint" />
            <mxPoint x="240" y="210" as="targetPoint" />
          </mxGeometry>
        </mxCell>
        <mxCell id="1e2kQV1l2WdOp7GWkUZe-148" value="" style="html=1;fillColor=#CCCCCC;strokeColor=#6881B3;gradientColor=none;gradientDirection=north;strokeWidth=2;shape=mxgraph.networks.comm_link_edge;html=1;labelBackgroundColor=none;endArrow=none;fontFamily=Verdana;fontSize=22;fontColor=#000000;exitX=0.5;exitY=1;exitDx=0;exitDy=0;entryX=0.5;entryY=0;entryDx=0;entryDy=0;" edge="1" parent="1e2kQV1l2WdOp7GWkUZe-128" target="1e2kQV1l2WdOp7GWkUZe-145">
          <mxGeometry width="100" height="100" relative="1" as="geometry">
            <mxPoint x="240" y="210" as="sourcePoint" />
            <mxPoint x="455" y="359" as="targetPoint" />
          </mxGeometry>
        </mxCell>
        <mxCell id="1e2kQV1l2WdOp7GWkUZe-149" value="" style="html=1;fillColor=#CCCCCC;strokeColor=#6881B3;gradientColor=none;gradientDirection=north;strokeWidth=2;shape=mxgraph.networks.comm_link_edge;html=1;labelBackgroundColor=none;endArrow=none;fontFamily=Verdana;fontSize=22;fontColor=#000000;exitX=0.5;exitY=1;exitDx=0;exitDy=0;entryX=0.5;entryY=0;entryDx=0;entryDy=0;" edge="1" parent="1e2kQV1l2WdOp7GWkUZe-128" target="1e2kQV1l2WdOp7GWkUZe-146">
          <mxGeometry width="100" height="100" relative="1" as="geometry">
            <mxPoint x="240" y="210" as="sourcePoint" />
            <mxPoint x="205" y="420" as="targetPoint" />
          </mxGeometry>
        </mxCell>
        <mxCell id="1e2kQV1l2WdOp7GWkUZe-150" value="" style="group" vertex="1" connectable="0" parent="1">
          <mxGeometry x="1030" y="410" width="400" height="540" as="geometry" />
        </mxCell>
        <mxCell id="1e2kQV1l2WdOp7GWkUZe-151" value="" style="group;movable=1;resizable=1;rotatable=1;deletable=1;editable=1;locked=0;connectable=1;" vertex="1" connectable="0" parent="1e2kQV1l2WdOp7GWkUZe-150">
          <mxGeometry x="120" width="240" height="180" as="geometry" />
        </mxCell>
        <mxCell id="1e2kQV1l2WdOp7GWkUZe-152" value="" style="shape=image;verticalLabelPosition=bottom;verticalAlign=top;imageAspect=0;aspect=fixed;image=data:image/svg+xml,PHN2ZyB4bWxuczp4bGluaz0iaHR0cDovL3d3dy53My5vcmcvMTk5OS94bGluayIgeG1sbnM9Imh0dHA6Ly93d3cudzMub3JnLzIwMDAvc3ZnIiBoZWlnaHQ9IjIwMCIgd2lkdGg9IjIwMCIgdmVyc2lvbj0iMS4xIiB2aWV3Qm94PSIwIDAgMTAyNCAxMDI0IiBjbGFzcz0iaWNvbiI+PHBhdGggZmlsbD0iIzMzMzMzMyIgZD0iTTg5LjUgMzA2LjhjLTAuMi02OS4xIDI2LjktMTM1LjUgNzUuMi0xODQuOSAxMC42LTEwLjYgMTQuNi0yNi4xIDEwLjYtNDAuNS00LTE0LjUtMTUuNS0yNS42LTMwLTI5LjMtMTQuNS0zLjctMjkuOSAwLjgtNDAuMyAxMS42LTEzMy41IDEzNi43LTEzMS44IDM1NS40IDMuOCA0OTAgMTYuMyAxNi4yIDQyLjcgMTYuMSA1OC45LTAuMiAxNi4yLTE2LjMgMTYuMS00Mi43LTAuMi01OC45LTUwLjEtNDkuNi03OC4yLTExNy4zLTc4LTE4Ny44ek03MTAuOSAxNDljLTE2LjYgMTUuOS0xNy4xIDQyLjMtMS4yIDU4LjkgNTQgNTYuMyA1Mi45IDE0NS41LTIuNiAyMDAuMy0xMC45IDEwLjQtMTUuNCAyNS45LTExLjcgNDAuNSAzLjcgMTQuNiAxNS4xIDI2LjEgMjkuNyAzMCAxNC42IDMuOSAzMC4xLTAuNCA0MC42LTExLjMgODcuOC04Ni45IDg5LjYtMjI4LjIgNC0zMTcuMy03LjctOC0xOC4yLTEyLjYtMjkuMi0xMi44LTEwLjktMC4xLTIxLjYgNC0yOS42IDExLjd6IG0wIDAiLz48cGF0aCBmaWxsPSIjMzMzMzMzIiBkPSJNOTE5IDYzLjdjLTEwLjQtMTAuOC0yNS43LTE1LjMtNDAuMy0xMS42LTE0LjUgMy43LTI2IDE0LjgtMzAgMjkuMy00IDE0LjQgMC4xIDI5LjkgMTAuNiA0MC41IDEwMS40IDEwNCAxMDAuMiAyNzAuMy0yLjkgMzcyLjctMTYuMyAxNi4yLTE2LjQgNDIuNi0wLjIgNTguOSAxNi4yIDE2LjMgNDIuNiAxNi40IDU4LjkgMC4yIDEzNS43LTEzNC43IDEzNy4zLTM1My4zIDMuOS00OTB6TTMxNy4zIDQ2Ny4yYzE2LjItMTYuNCAxNi4xLTQyLjctMC4zLTU4LjktNTUuNC01NC45LTU2LjYtMTQ0LjEtMi42LTIwMC4zIDE1LjktMTYuNiAxNS40LTQzLTEuMi01OC45LTE2LjYtMTUuOS00My0xNS40LTU4LjkgMS4yLTg1LjUgODkuMS04My43IDIzMC40IDQuMSAzMTcuMyAxNi4zIDE2IDQyLjcgMTUuOSA1OC45LTAuNHogbTI1NS42LTYzLjNjNDAuNi0yNy4xIDU4LjctNzcuNiA0NC43LTEyNC40LTE0LTQ2LjgtNTctNzguOS0xMDUuOC03OS4yLTQ4LjgtMC4zLTkyLjEgMzEuNC0xMDYuNyA3OC0xNC42IDQ2LjYgMyA5Ny4zIDQzLjQgMTI0LjhMMjYxLjQgOTE3LjNjLTcuOCAyMS42IDMuMyA0NS41IDI0LjkgNTMuNCAyMS42IDcuOCA0NS41LTMuNCA1My40LTI1TDM3OS4zIDgzN2gyNjIuNmw0MC41IDExMS41YzcuMiAxOS41IDI4LjcgMjkuNiA0OC4zIDIyLjVsNy41LTIuN2MxOS41LTcuMiAyOS42LTI4LjcgMjIuNS00OC4zTDU3Mi45IDQwMy45eiBtLTYyLjMgNzIuNEw1NjEgNjE0LjhINDYwLjJsNTAuNC0xMzguNXpNNDA2LjMgNzYyLjlsMjctNzQuMUg1ODhsMjcgNzQuMUg0MDYuM3ogbTAgMCIvPjwvc3ZnPg==" vertex="1" parent="1e2kQV1l2WdOp7GWkUZe-151">
          <mxGeometry width="156.52173913043478" height="156.52173913043478" as="geometry" />
        </mxCell>
        <mxCell id="1e2kQV1l2WdOp7GWkUZe-153" value="" style="shape=image;verticalLabelPosition=bottom;verticalAlign=top;imageAspect=0;aspect=fixed;image=data:image/svg+xml,PHN2ZyB4bWxuczp4bGluaz0iaHR0cDovL3d3dy53My5vcmcvMTk5OS94bGluayIgeG1sbnM9Imh0dHA6Ly93d3cudzMub3JnLzIwMDAvc3ZnIiBoZWlnaHQ9IjIwMCIgd2lkdGg9IjIwMCIgdmVyc2lvbj0iMS4xIiB2aWV3Qm94PSIwIDAgMTAyNCAxMDI0IiBjbGFzcz0iaWNvbiI+PHBhdGggZmlsbD0iIzMzMzMzMyIgZD0iTTY2NC41NDUgODZjNDguMyAwIDg3LjQ1NSAzOS4xNDggODcuNDU1IDg3LjQzOVY5MDAuNTZDNzUyIDk0OC44NTIgNzEyLjg0NSA5ODggNjY0LjU0NSA5ODhoLTMwNi4wOWMtNDguMyAwLTg3LjQ1NS0zOS4xNDgtODcuNDU1LTg3LjQzOVYxNzMuNDRDMjcxIDEyNS4xNDggMzEwLjE1NSA4NiAzNTguNDU1IDg2eiBtMCA1OS44MjdoLTMwNi4wOWMtMTUuMjUzIDAtMjcuNjE4IDEyLjM2Mi0yNy42MTggMjcuNjEyVjkwMC41NmMwIDE1LjI1IDEyLjM2NSAyNy42MTIgMjcuNjE4IDI3LjYxMmgzMDYuMDljMTUuMjUzIDAgMjcuNjE4LTEyLjM2MiAyNy42MTgtMjcuNjEyVjE3My40NGMwLTE1LjI1LTEyLjM2NS0yNy42MTItMjcuNjE4LTI3LjYxMnpNNTEyLjY1MSA2NzAuNDU5YzI2LjY5MiAwIDQ4LjMzIDIxLjYzNCA0OC4zMyA0OC4zMjIgMCAyNi42ODctMjEuNjM4IDQ4LjMyMS00OC4zMyA0OC4zMjEtMjYuNjkyIDAtNDguMzMtMjEuNjM0LTQ4LjMzLTQ4LjMyMSAwLTI2LjY4OCAyMS42MzgtNDguMzIyIDQ4LjMzLTQ4LjMyMnogbTk4LjcxNC0yNzEuNTJjMTYuNTI0IDAgMjkuOTE5IDEzLjM5MiAyOS45MTkgMjkuOTEzIDAgMTYuMjg1LTEzLjAxNSAyOS41My0yOS4yMTIgMjkuOTA1bC0wLjcwNyAwLjAwOEg0MTMuNzA2Yy0xNi41MjMgMC0yOS45MTgtMTMuMzkyLTI5LjkxOC0yOS45MTMgMC0xNi4yODUgMTMuMDE1LTI5LjUzIDI5LjIxMi0yOS45MDVsMC43MDYtMC4wMDhoMTk3LjY2eiBtMC0xMTYuMDEzYzE2LjUyNCAwIDI5LjkxOSAxMy4zOTMgMjkuOTE5IDI5LjkxMyAwIDE2LjI4NS0xMy4wMTUgMjkuNTMtMjkuMjEyIDI5LjkwNWwtMC43MDcgMC4wMDhINDEzLjcwNmMtMTYuNTIzIDAtMjkuOTE4LTEzLjM5Mi0yOS45MTgtMjkuOTEzIDAtMTYuMjg0IDEzLjAxNS0yOS41MyAyOS4yMTItMjkuOTA1bDAuNzA2LTAuMDA4aDE5Ny42NnoiLz48L3N2Zz4=" vertex="1" parent="1e2kQV1l2WdOp7GWkUZe-151">
          <mxGeometry x="102.63157894736842" y="109.56521739130436" width="70.43478260869566" height="70.43478260869566" as="geometry" />
        </mxCell>
        <mxCell id="1e2kQV1l2WdOp7GWkUZe-154" value="" style="shape=image;verticalLabelPosition=bottom;verticalAlign=top;imageAspect=0;aspect=fixed;image=data:image/svg+xml,PHN2ZyB4bWxuczp4bGluaz0iaHR0cDovL3d3dy53My5vcmcvMTk5OS94bGluayIgeG1sbnM9Imh0dHA6Ly93d3cudzMub3JnLzIwMDAvc3ZnIiBoZWlnaHQ9IjIwMCIgd2lkdGg9IjIwMCIgdmVyc2lvbj0iMS4xIiB2aWV3Qm94PSIwIDAgMTAyNCAxMDI0IiBjbGFzcz0iaWNvbiI+PHBhdGggZmlsbD0iIzMzMzMzMyIgZD0iTTY2NC41NDUgODZjNDguMyAwIDg3LjQ1NSAzOS4xNDggODcuNDU1IDg3LjQzOVY5MDAuNTZDNzUyIDk0OC44NTIgNzEyLjg0NSA5ODggNjY0LjU0NSA5ODhoLTMwNi4wOWMtNDguMyAwLTg3LjQ1NS0zOS4xNDgtODcuNDU1LTg3LjQzOVYxNzMuNDRDMjcxIDEyNS4xNDggMzEwLjE1NSA4NiAzNTguNDU1IDg2eiBtMCA1OS44MjdoLTMwNi4wOWMtMTUuMjUzIDAtMjcuNjE4IDEyLjM2Mi0yNy42MTggMjcuNjEyVjkwMC41NmMwIDE1LjI1IDEyLjM2NSAyNy42MTIgMjcuNjE4IDI3LjYxMmgzMDYuMDljMTUuMjUzIDAgMjcuNjE4LTEyLjM2MiAyNy42MTgtMjcuNjEyVjE3My40NGMwLTE1LjI1LTEyLjM2NS0yNy42MTItMjcuNjE4LTI3LjYxMnpNNTEyLjY1MSA2NzAuNDU5YzI2LjY5MiAwIDQ4LjMzIDIxLjYzNCA0OC4zMyA0OC4zMjIgMCAyNi42ODctMjEuNjM4IDQ4LjMyMS00OC4zMyA0OC4zMjEtMjYuNjkyIDAtNDguMzMtMjEuNjM0LTQ4LjMzLTQ4LjMyMSAwLTI2LjY4OCAyMS42MzgtNDguMzIyIDQ4LjMzLTQ4LjMyMnogbTk4LjcxNC0yNzEuNTJjMTYuNTI0IDAgMjkuOTE5IDEzLjM5MiAyOS45MTkgMjkuOTEzIDAgMTYuMjg1LTEzLjAxNSAyOS41My0yOS4yMTIgMjkuOTA1bC0wLjcwNyAwLjAwOEg0MTMuNzA2Yy0xNi41MjMgMC0yOS45MTgtMTMuMzkyLTI5LjkxOC0yOS45MTMgMC0xNi4yODUgMTMuMDE1LTI5LjUzIDI5LjIxMi0yOS45MDVsMC43MDYtMC4wMDhoMTk3LjY2eiBtMC0xMTYuMDEzYzE2LjUyNCAwIDI5LjkxOSAxMy4zOTMgMjkuOTE5IDI5LjkxMyAwIDE2LjI4NS0xMy4wMTUgMjkuNTMtMjkuMjEyIDI5LjkwNWwtMC43MDcgMC4wMDhINDEzLjcwNmMtMTYuNTIzIDAtMjkuOTE4LTEzLjM5Mi0yOS45MTgtMjkuOTEzIDAtMTYuMjg0IDEzLjAxNS0yOS41MyAyOS4yMTItMjkuOTA1bDAuNzA2LTAuMDA4aDE5Ny42NnoiLz48L3N2Zz4=" vertex="1" parent="1e2kQV1l2WdOp7GWkUZe-151">
          <mxGeometry x="135.78947368421052" y="109.56521739130436" width="70.43478260869566" height="70.43478260869566" as="geometry" />
        </mxCell>
        <mxCell id="1e2kQV1l2WdOp7GWkUZe-155" value="" style="shape=image;verticalLabelPosition=bottom;verticalAlign=top;imageAspect=0;aspect=fixed;image=data:image/svg+xml,PHN2ZyB4bWxuczp4bGluaz0iaHR0cDovL3d3dy53My5vcmcvMTk5OS94bGluayIgeG1sbnM9Imh0dHA6Ly93d3cudzMub3JnLzIwMDAvc3ZnIiBoZWlnaHQ9IjIwMCIgd2lkdGg9IjIwMCIgdmVyc2lvbj0iMS4xIiB2aWV3Qm94PSIwIDAgMTAyNCAxMDI0IiBjbGFzcz0iaWNvbiI+PHBhdGggZmlsbD0iIzMzMzMzMyIgZD0iTTY2NC41NDUgODZjNDguMyAwIDg3LjQ1NSAzOS4xNDggODcuNDU1IDg3LjQzOVY5MDAuNTZDNzUyIDk0OC44NTIgNzEyLjg0NSA5ODggNjY0LjU0NSA5ODhoLTMwNi4wOWMtNDguMyAwLTg3LjQ1NS0zOS4xNDgtODcuNDU1LTg3LjQzOVYxNzMuNDRDMjcxIDEyNS4xNDggMzEwLjE1NSA4NiAzNTguNDU1IDg2eiBtMCA1OS44MjdoLTMwNi4wOWMtMTUuMjUzIDAtMjcuNjE4IDEyLjM2Mi0yNy42MTggMjcuNjEyVjkwMC41NmMwIDE1LjI1IDEyLjM2NSAyNy42MTIgMjcuNjE4IDI3LjYxMmgzMDYuMDljMTUuMjUzIDAgMjcuNjE4LTEyLjM2MiAyNy42MTgtMjcuNjEyVjE3My40NGMwLTE1LjI1LTEyLjM2NS0yNy42MTItMjcuNjE4LTI3LjYxMnpNNTEyLjY1MSA2NzAuNDU5YzI2LjY5MiAwIDQ4LjMzIDIxLjYzNCA0OC4zMyA0OC4zMjIgMCAyNi42ODctMjEuNjM4IDQ4LjMyMS00OC4zMyA0OC4zMjEtMjYuNjkyIDAtNDguMzMtMjEuNjM0LTQ4LjMzLTQ4LjMyMSAwLTI2LjY4OCAyMS42MzgtNDguMzIyIDQ4LjMzLTQ4LjMyMnogbTk4LjcxNC0yNzEuNTJjMTYuNTI0IDAgMjkuOTE5IDEzLjM5MiAyOS45MTkgMjkuOTEzIDAgMTYuMjg1LTEzLjAxNSAyOS41My0yOS4yMTIgMjkuOTA1bC0wLjcwNyAwLjAwOEg0MTMuNzA2Yy0xNi41MjMgMC0yOS45MTgtMTMuMzkyLTI5LjkxOC0yOS45MTMgMC0xNi4yODUgMTMuMDE1LTI5LjUzIDI5LjIxMi0yOS45MDVsMC43MDYtMC4wMDhoMTk3LjY2eiBtMC0xMTYuMDEzYzE2LjUyNCAwIDI5LjkxOSAxMy4zOTMgMjkuOTE5IDI5LjkxMyAwIDE2LjI4NS0xMy4wMTUgMjkuNTMtMjkuMjEyIDI5LjkwNWwtMC43MDcgMC4wMDhINDEzLjcwNmMtMTYuNTIzIDAtMjkuOTE4LTEzLjM5Mi0yOS45MTgtMjkuOTEzIDAtMTYuMjg0IDEzLjAxNS0yOS41MyAyOS4yMTItMjkuOTA1bDAuNzA2LTAuMDA4aDE5Ny42NnoiLz48L3N2Zz4=" vertex="1" parent="1e2kQV1l2WdOp7GWkUZe-151">
          <mxGeometry x="168.94736842105263" y="109.56521739130436" width="70.43478260869566" height="70.43478260869566" as="geometry" />
        </mxCell>
        <mxCell id="1e2kQV1l2WdOp7GWkUZe-156" value="" style="group;movable=1;resizable=1;rotatable=1;deletable=1;editable=1;locked=0;connectable=1;" vertex="1" connectable="0" parent="1e2kQV1l2WdOp7GWkUZe-151">
          <mxGeometry width="240" height="180" as="geometry" />
        </mxCell>
        <mxCell id="1e2kQV1l2WdOp7GWkUZe-157" value="" style="shape=image;verticalLabelPosition=bottom;verticalAlign=top;imageAspect=0;aspect=fixed;image=data:image/svg+xml,PHN2ZyB4bWxuczp4bGluaz0iaHR0cDovL3d3dy53My5vcmcvMTk5OS94bGluayIgeG1sbnM9Imh0dHA6Ly93d3cudzMub3JnLzIwMDAvc3ZnIiBoZWlnaHQ9IjIwMCIgd2lkdGg9IjIwMCIgdmVyc2lvbj0iMS4xIiB2aWV3Qm94PSIwIDAgMTAyNCAxMDI0IiBjbGFzcz0iaWNvbiI+PHBhdGggZmlsbD0iIzMzMzMzMyIgZD0iTTg5LjUgMzA2LjhjLTAuMi02OS4xIDI2LjktMTM1LjUgNzUuMi0xODQuOSAxMC42LTEwLjYgMTQuNi0yNi4xIDEwLjYtNDAuNS00LTE0LjUtMTUuNS0yNS42LTMwLTI5LjMtMTQuNS0zLjctMjkuOSAwLjgtNDAuMyAxMS42LTEzMy41IDEzNi43LTEzMS44IDM1NS40IDMuOCA0OTAgMTYuMyAxNi4yIDQyLjcgMTYuMSA1OC45LTAuMiAxNi4yLTE2LjMgMTYuMS00Mi43LTAuMi01OC45LTUwLjEtNDkuNi03OC4yLTExNy4zLTc4LTE4Ny44ek03MTAuOSAxNDljLTE2LjYgMTUuOS0xNy4xIDQyLjMtMS4yIDU4LjkgNTQgNTYuMyA1Mi45IDE0NS41LTIuNiAyMDAuMy0xMC45IDEwLjQtMTUuNCAyNS45LTExLjcgNDAuNSAzLjcgMTQuNiAxNS4xIDI2LjEgMjkuNyAzMCAxNC42IDMuOSAzMC4xLTAuNCA0MC42LTExLjMgODcuOC04Ni45IDg5LjYtMjI4LjIgNC0zMTcuMy03LjctOC0xOC4yLTEyLjYtMjkuMi0xMi44LTEwLjktMC4xLTIxLjYgNC0yOS42IDExLjd6IG0wIDAiLz48cGF0aCBmaWxsPSIjMzMzMzMzIiBkPSJNOTE5IDYzLjdjLTEwLjQtMTAuOC0yNS43LTE1LjMtNDAuMy0xMS42LTE0LjUgMy43LTI2IDE0LjgtMzAgMjkuMy00IDE0LjQgMC4xIDI5LjkgMTAuNiA0MC41IDEwMS40IDEwNCAxMDAuMiAyNzAuMy0yLjkgMzcyLjctMTYuMyAxNi4yLTE2LjQgNDIuNi0wLjIgNTguOSAxNi4yIDE2LjMgNDIuNiAxNi40IDU4LjkgMC4yIDEzNS43LTEzNC43IDEzNy4zLTM1My4zIDMuOS00OTB6TTMxNy4zIDQ2Ny4yYzE2LjItMTYuNCAxNi4xLTQyLjctMC4zLTU4LjktNTUuNC01NC45LTU2LjYtMTQ0LjEtMi42LTIwMC4zIDE1LjktMTYuNiAxNS40LTQzLTEuMi01OC45LTE2LjYtMTUuOS00My0xNS40LTU4LjkgMS4yLTg1LjUgODkuMS04My43IDIzMC40IDQuMSAzMTcuMyAxNi4zIDE2IDQyLjcgMTUuOSA1OC45LTAuNHogbTI1NS42LTYzLjNjNDAuNi0yNy4xIDU4LjctNzcuNiA0NC43LTEyNC40LTE0LTQ2LjgtNTctNzguOS0xMDUuOC03OS4yLTQ4LjgtMC4zLTkyLjEgMzEuNC0xMDYuNyA3OC0xNC42IDQ2LjYgMyA5Ny4zIDQzLjQgMTI0LjhMMjYxLjQgOTE3LjNjLTcuOCAyMS42IDMuMyA0NS41IDI0LjkgNTMuNCAyMS42IDcuOCA0NS41LTMuNCA1My40LTI1TDM3OS4zIDgzN2gyNjIuNmw0MC41IDExMS41YzcuMiAxOS41IDI4LjcgMjkuNiA0OC4zIDIyLjVsNy41LTIuN2MxOS41LTcuMiAyOS42LTI4LjcgMjIuNS00OC4zTDU3Mi45IDQwMy45eiBtLTYyLjMgNzIuNEw1NjEgNjE0LjhINDYwLjJsNTAuNC0xMzguNXpNNDA2LjMgNzYyLjlsMjctNzQuMUg1ODhsMjcgNzQuMUg0MDYuM3ogbTAgMCIvPjwvc3ZnPg==" vertex="1" parent="1e2kQV1l2WdOp7GWkUZe-156">
          <mxGeometry width="156.52173913043478" height="156.52173913043478" as="geometry" />
        </mxCell>
        <mxCell id="1e2kQV1l2WdOp7GWkUZe-158" value="" style="shape=image;verticalLabelPosition=bottom;verticalAlign=top;imageAspect=0;aspect=fixed;image=data:image/svg+xml,PHN2ZyB4bWxuczp4bGluaz0iaHR0cDovL3d3dy53My5vcmcvMTk5OS94bGluayIgeG1sbnM9Imh0dHA6Ly93d3cudzMub3JnLzIwMDAvc3ZnIiBoZWlnaHQ9IjIwMCIgd2lkdGg9IjIwMCIgdmVyc2lvbj0iMS4xIiB2aWV3Qm94PSIwIDAgMTAyNCAxMDI0IiBjbGFzcz0iaWNvbiI+PHBhdGggZmlsbD0iIzMzMzMzMyIgZD0iTTY2NC41NDUgODZjNDguMyAwIDg3LjQ1NSAzOS4xNDggODcuNDU1IDg3LjQzOVY5MDAuNTZDNzUyIDk0OC44NTIgNzEyLjg0NSA5ODggNjY0LjU0NSA5ODhoLTMwNi4wOWMtNDguMyAwLTg3LjQ1NS0zOS4xNDgtODcuNDU1LTg3LjQzOVYxNzMuNDRDMjcxIDEyNS4xNDggMzEwLjE1NSA4NiAzNTguNDU1IDg2eiBtMCA1OS44MjdoLTMwNi4wOWMtMTUuMjUzIDAtMjcuNjE4IDEyLjM2Mi0yNy42MTggMjcuNjEyVjkwMC41NmMwIDE1LjI1IDEyLjM2NSAyNy42MTIgMjcuNjE4IDI3LjYxMmgzMDYuMDljMTUuMjUzIDAgMjcuNjE4LTEyLjM2MiAyNy42MTgtMjcuNjEyVjE3My40NGMwLTE1LjI1LTEyLjM2NS0yNy42MTItMjcuNjE4LTI3LjYxMnpNNTEyLjY1MSA2NzAuNDU5YzI2LjY5MiAwIDQ4LjMzIDIxLjYzNCA0OC4zMyA0OC4zMjIgMCAyNi42ODctMjEuNjM4IDQ4LjMyMS00OC4zMyA0OC4zMjEtMjYuNjkyIDAtNDguMzMtMjEuNjM0LTQ4LjMzLTQ4LjMyMSAwLTI2LjY4OCAyMS42MzgtNDguMzIyIDQ4LjMzLTQ4LjMyMnogbTk4LjcxNC0yNzEuNTJjMTYuNTI0IDAgMjkuOTE5IDEzLjM5MiAyOS45MTkgMjkuOTEzIDAgMTYuMjg1LTEzLjAxNSAyOS41My0yOS4yMTIgMjkuOTA1bC0wLjcwNyAwLjAwOEg0MTMuNzA2Yy0xNi41MjMgMC0yOS45MTgtMTMuMzkyLTI5LjkxOC0yOS45MTMgMC0xNi4yODUgMTMuMDE1LTI5LjUzIDI5LjIxMi0yOS45MDVsMC43MDYtMC4wMDhoMTk3LjY2eiBtMC0xMTYuMDEzYzE2LjUyNCAwIDI5LjkxOSAxMy4zOTMgMjkuOTE5IDI5LjkxMyAwIDE2LjI4NS0xMy4wMTUgMjkuNTMtMjkuMjEyIDI5LjkwNWwtMC43MDcgMC4wMDhINDEzLjcwNmMtMTYuNTIzIDAtMjkuOTE4LTEzLjM5Mi0yOS45MTgtMjkuOTEzIDAtMTYuMjg0IDEzLjAxNS0yOS41MyAyOS4yMTItMjkuOTA1bDAuNzA2LTAuMDA4aDE5Ny42NnoiLz48L3N2Zz4=" vertex="1" parent="1e2kQV1l2WdOp7GWkUZe-156">
          <mxGeometry x="102.63157894736842" y="109.56521739130436" width="70.43478260869566" height="70.43478260869566" as="geometry" />
        </mxCell>
        <mxCell id="1e2kQV1l2WdOp7GWkUZe-159" value="" style="shape=image;verticalLabelPosition=bottom;verticalAlign=top;imageAspect=0;aspect=fixed;image=data:image/svg+xml,PHN2ZyB4bWxuczp4bGluaz0iaHR0cDovL3d3dy53My5vcmcvMTk5OS94bGluayIgeG1sbnM9Imh0dHA6Ly93d3cudzMub3JnLzIwMDAvc3ZnIiBoZWlnaHQ9IjIwMCIgd2lkdGg9IjIwMCIgdmVyc2lvbj0iMS4xIiB2aWV3Qm94PSIwIDAgMTAyNCAxMDI0IiBjbGFzcz0iaWNvbiI+PHBhdGggZmlsbD0iIzMzMzMzMyIgZD0iTTY2NC41NDUgODZjNDguMyAwIDg3LjQ1NSAzOS4xNDggODcuNDU1IDg3LjQzOVY5MDAuNTZDNzUyIDk0OC44NTIgNzEyLjg0NSA5ODggNjY0LjU0NSA5ODhoLTMwNi4wOWMtNDguMyAwLTg3LjQ1NS0zOS4xNDgtODcuNDU1LTg3LjQzOVYxNzMuNDRDMjcxIDEyNS4xNDggMzEwLjE1NSA4NiAzNTguNDU1IDg2eiBtMCA1OS44MjdoLTMwNi4wOWMtMTUuMjUzIDAtMjcuNjE4IDEyLjM2Mi0yNy42MTggMjcuNjEyVjkwMC41NmMwIDE1LjI1IDEyLjM2NSAyNy42MTIgMjcuNjE4IDI3LjYxMmgzMDYuMDljMTUuMjUzIDAgMjcuNjE4LTEyLjM2MiAyNy42MTgtMjcuNjEyVjE3My40NGMwLTE1LjI1LTEyLjM2NS0yNy42MTItMjcuNjE4LTI3LjYxMnpNNTEyLjY1MSA2NzAuNDU5YzI2LjY5MiAwIDQ4LjMzIDIxLjYzNCA0OC4zMyA0OC4zMjIgMCAyNi42ODctMjEuNjM4IDQ4LjMyMS00OC4zMyA0OC4zMjEtMjYuNjkyIDAtNDguMzMtMjEuNjM0LTQ4LjMzLTQ4LjMyMSAwLTI2LjY4OCAyMS42MzgtNDguMzIyIDQ4LjMzLTQ4LjMyMnogbTk4LjcxNC0yNzEuNTJjMTYuNTI0IDAgMjkuOTE5IDEzLjM5MiAyOS45MTkgMjkuOTEzIDAgMTYuMjg1LTEzLjAxNSAyOS41My0yOS4yMTIgMjkuOTA1bC0wLjcwNyAwLjAwOEg0MTMuNzA2Yy0xNi41MjMgMC0yOS45MTgtMTMuMzkyLTI5LjkxOC0yOS45MTMgMC0xNi4yODUgMTMuMDE1LTI5LjUzIDI5LjIxMi0yOS45MDVsMC43MDYtMC4wMDhoMTk3LjY2eiBtMC0xMTYuMDEzYzE2LjUyNCAwIDI5LjkxOSAxMy4zOTMgMjkuOTE5IDI5LjkxMyAwIDE2LjI4NS0xMy4wMTUgMjkuNTMtMjkuMjEyIDI5LjkwNWwtMC43MDcgMC4wMDhINDEzLjcwNmMtMTYuNTIzIDAtMjkuOTE4LTEzLjM5Mi0yOS45MTgtMjkuOTEzIDAtMTYuMjg0IDEzLjAxNS0yOS41MyAyOS4yMTItMjkuOTA1bDAuNzA2LTAuMDA4aDE5Ny42NnoiLz48L3N2Zz4=" vertex="1" parent="1e2kQV1l2WdOp7GWkUZe-156">
          <mxGeometry x="135.78947368421052" y="109.56521739130436" width="70.43478260869566" height="70.43478260869566" as="geometry" />
        </mxCell>
        <mxCell id="1e2kQV1l2WdOp7GWkUZe-160" value="" style="shape=image;verticalLabelPosition=bottom;verticalAlign=top;imageAspect=0;aspect=fixed;image=data:image/svg+xml,PHN2ZyB4bWxuczp4bGluaz0iaHR0cDovL3d3dy53My5vcmcvMTk5OS94bGluayIgeG1sbnM9Imh0dHA6Ly93d3cudzMub3JnLzIwMDAvc3ZnIiBoZWlnaHQ9IjIwMCIgd2lkdGg9IjIwMCIgdmVyc2lvbj0iMS4xIiB2aWV3Qm94PSIwIDAgMTAyNCAxMDI0IiBjbGFzcz0iaWNvbiI+PHBhdGggZmlsbD0iIzMzMzMzMyIgZD0iTTY2NC41NDUgODZjNDguMyAwIDg3LjQ1NSAzOS4xNDggODcuNDU1IDg3LjQzOVY5MDAuNTZDNzUyIDk0OC44NTIgNzEyLjg0NSA5ODggNjY0LjU0NSA5ODhoLTMwNi4wOWMtNDguMyAwLTg3LjQ1NS0zOS4xNDgtODcuNDU1LTg3LjQzOVYxNzMuNDRDMjcxIDEyNS4xNDggMzEwLjE1NSA4NiAzNTguNDU1IDg2eiBtMCA1OS44MjdoLTMwNi4wOWMtMTUuMjUzIDAtMjcuNjE4IDEyLjM2Mi0yNy42MTggMjcuNjEyVjkwMC41NmMwIDE1LjI1IDEyLjM2NSAyNy42MTIgMjcuNjE4IDI3LjYxMmgzMDYuMDljMTUuMjUzIDAgMjcuNjE4LTEyLjM2MiAyNy42MTgtMjcuNjEyVjE3My40NGMwLTE1LjI1LTEyLjM2NS0yNy42MTItMjcuNjE4LTI3LjYxMnpNNTEyLjY1MSA2NzAuNDU5YzI2LjY5MiAwIDQ4LjMzIDIxLjYzNCA0OC4zMyA0OC4zMjIgMCAyNi42ODctMjEuNjM4IDQ4LjMyMS00OC4zMyA0OC4zMjEtMjYuNjkyIDAtNDguMzMtMjEuNjM0LTQ4LjMzLTQ4LjMyMSAwLTI2LjY4OCAyMS42MzgtNDguMzIyIDQ4LjMzLTQ4LjMyMnogbTk4LjcxNC0yNzEuNTJjMTYuNTI0IDAgMjkuOTE5IDEzLjM5MiAyOS45MTkgMjkuOTEzIDAgMTYuMjg1LTEzLjAxNSAyOS41My0yOS4yMTIgMjkuOTA1bC0wLjcwNyAwLjAwOEg0MTMuNzA2Yy0xNi41MjMgMC0yOS45MTgtMTMuMzkyLTI5LjkxOC0yOS45MTMgMC0xNi4yODUgMTMuMDE1LTI5LjUzIDI5LjIxMi0yOS45MDVsMC43MDYtMC4wMDhoMTk3LjY2eiBtMC0xMTYuMDEzYzE2LjUyNCAwIDI5LjkxOSAxMy4zOTMgMjkuOTE5IDI5LjkxMyAwIDE2LjI4NS0xMy4wMTUgMjkuNTMtMjkuMjEyIDI5LjkwNWwtMC43MDcgMC4wMDhINDEzLjcwNmMtMTYuNTIzIDAtMjkuOTE4LTEzLjM5Mi0yOS45MTgtMjkuOTEzIDAtMTYuMjg0IDEzLjAxNS0yOS41MyAyOS4yMTItMjkuOTA1bDAuNzA2LTAuMDA4aDE5Ny42NnoiLz48L3N2Zz4=" vertex="1" parent="1e2kQV1l2WdOp7GWkUZe-156">
          <mxGeometry x="168.94736842105263" y="109.56521739130436" width="70.43478260869566" height="70.43478260869566" as="geometry" />
        </mxCell>
        <mxCell id="1e2kQV1l2WdOp7GWkUZe-161" value="" style="group;movable=1;resizable=1;rotatable=1;deletable=1;editable=1;locked=0;connectable=1;" vertex="1" connectable="0" parent="1e2kQV1l2WdOp7GWkUZe-156">
          <mxGeometry x="-0.6200000000000045" width="240" height="180" as="geometry" />
        </mxCell>
        <mxCell id="1e2kQV1l2WdOp7GWkUZe-162" value="" style="shape=image;verticalLabelPosition=bottom;verticalAlign=top;imageAspect=0;aspect=fixed;image=data:image/svg+xml,PHN2ZyB4bWxuczp4bGluaz0iaHR0cDovL3d3dy53My5vcmcvMTk5OS94bGluayIgeG1sbnM9Imh0dHA6Ly93d3cudzMub3JnLzIwMDAvc3ZnIiBoZWlnaHQ9IjIwMCIgd2lkdGg9IjIwMCIgdmVyc2lvbj0iMS4xIiB2aWV3Qm94PSIwIDAgMTAyNCAxMDI0IiBjbGFzcz0iaWNvbiI+PHBhdGggZmlsbD0iIzMzMzMzMyIgZD0iTTg5LjUgMzA2LjhjLTAuMi02OS4xIDI2LjktMTM1LjUgNzUuMi0xODQuOSAxMC42LTEwLjYgMTQuNi0yNi4xIDEwLjYtNDAuNS00LTE0LjUtMTUuNS0yNS42LTMwLTI5LjMtMTQuNS0zLjctMjkuOSAwLjgtNDAuMyAxMS42LTEzMy41IDEzNi43LTEzMS44IDM1NS40IDMuOCA0OTAgMTYuMyAxNi4yIDQyLjcgMTYuMSA1OC45LTAuMiAxNi4yLTE2LjMgMTYuMS00Mi43LTAuMi01OC45LTUwLjEtNDkuNi03OC4yLTExNy4zLTc4LTE4Ny44ek03MTAuOSAxNDljLTE2LjYgMTUuOS0xNy4xIDQyLjMtMS4yIDU4LjkgNTQgNTYuMyA1Mi45IDE0NS41LTIuNiAyMDAuMy0xMC45IDEwLjQtMTUuNCAyNS45LTExLjcgNDAuNSAzLjcgMTQuNiAxNS4xIDI2LjEgMjkuNyAzMCAxNC42IDMuOSAzMC4xLTAuNCA0MC42LTExLjMgODcuOC04Ni45IDg5LjYtMjI4LjIgNC0zMTcuMy03LjctOC0xOC4yLTEyLjYtMjkuMi0xMi44LTEwLjktMC4xLTIxLjYgNC0yOS42IDExLjd6IG0wIDAiLz48cGF0aCBmaWxsPSIjMzMzMzMzIiBkPSJNOTE5IDYzLjdjLTEwLjQtMTAuOC0yNS43LTE1LjMtNDAuMy0xMS42LTE0LjUgMy43LTI2IDE0LjgtMzAgMjkuMy00IDE0LjQgMC4xIDI5LjkgMTAuNiA0MC41IDEwMS40IDEwNCAxMDAuMiAyNzAuMy0yLjkgMzcyLjctMTYuMyAxNi4yLTE2LjQgNDIuNi0wLjIgNTguOSAxNi4yIDE2LjMgNDIuNiAxNi40IDU4LjkgMC4yIDEzNS43LTEzNC43IDEzNy4zLTM1My4zIDMuOS00OTB6TTMxNy4zIDQ2Ny4yYzE2LjItMTYuNCAxNi4xLTQyLjctMC4zLTU4LjktNTUuNC01NC45LTU2LjYtMTQ0LjEtMi42LTIwMC4zIDE1LjktMTYuNiAxNS40LTQzLTEuMi01OC45LTE2LjYtMTUuOS00My0xNS40LTU4LjkgMS4yLTg1LjUgODkuMS04My43IDIzMC40IDQuMSAzMTcuMyAxNi4zIDE2IDQyLjcgMTUuOSA1OC45LTAuNHogbTI1NS42LTYzLjNjNDAuNi0yNy4xIDU4LjctNzcuNiA0NC43LTEyNC40LTE0LTQ2LjgtNTctNzguOS0xMDUuOC03OS4yLTQ4LjgtMC4zLTkyLjEgMzEuNC0xMDYuNyA3OC0xNC42IDQ2LjYgMyA5Ny4zIDQzLjQgMTI0LjhMMjYxLjQgOTE3LjNjLTcuOCAyMS42IDMuMyA0NS41IDI0LjkgNTMuNCAyMS42IDcuOCA0NS41LTMuNCA1My40LTI1TDM3OS4zIDgzN2gyNjIuNmw0MC41IDExMS41YzcuMiAxOS41IDI4LjcgMjkuNiA0OC4zIDIyLjVsNy41LTIuN2MxOS41LTcuMiAyOS42LTI4LjcgMjIuNS00OC4zTDU3Mi45IDQwMy45eiBtLTYyLjMgNzIuNEw1NjEgNjE0LjhINDYwLjJsNTAuNC0xMzguNXpNNDA2LjMgNzYyLjlsMjctNzQuMUg1ODhsMjcgNzQuMUg0MDYuM3ogbTAgMCIvPjwvc3ZnPg==" vertex="1" parent="1e2kQV1l2WdOp7GWkUZe-161">
          <mxGeometry width="156.52173913043478" height="156.52173913043478" as="geometry" />
        </mxCell>
        <mxCell id="1e2kQV1l2WdOp7GWkUZe-163" value="" style="shape=image;verticalLabelPosition=bottom;verticalAlign=top;imageAspect=0;aspect=fixed;image=data:image/svg+xml,PHN2ZyB4bWxuczp4bGluaz0iaHR0cDovL3d3dy53My5vcmcvMTk5OS94bGluayIgeG1sbnM9Imh0dHA6Ly93d3cudzMub3JnLzIwMDAvc3ZnIiBoZWlnaHQ9IjIwMCIgd2lkdGg9IjIwMCIgdmVyc2lvbj0iMS4xIiB2aWV3Qm94PSIwIDAgMTAyNCAxMDI0IiBjbGFzcz0iaWNvbiI+PHBhdGggZmlsbD0iIzMzMzMzMyIgZD0iTTY2NC41NDUgODZjNDguMyAwIDg3LjQ1NSAzOS4xNDggODcuNDU1IDg3LjQzOVY5MDAuNTZDNzUyIDk0OC44NTIgNzEyLjg0NSA5ODggNjY0LjU0NSA5ODhoLTMwNi4wOWMtNDguMyAwLTg3LjQ1NS0zOS4xNDgtODcuNDU1LTg3LjQzOVYxNzMuNDRDMjcxIDEyNS4xNDggMzEwLjE1NSA4NiAzNTguNDU1IDg2eiBtMCA1OS44MjdoLTMwNi4wOWMtMTUuMjUzIDAtMjcuNjE4IDEyLjM2Mi0yNy42MTggMjcuNjEyVjkwMC41NmMwIDE1LjI1IDEyLjM2NSAyNy42MTIgMjcuNjE4IDI3LjYxMmgzMDYuMDljMTUuMjUzIDAgMjcuNjE4LTEyLjM2MiAyNy42MTgtMjcuNjEyVjE3My40NGMwLTE1LjI1LTEyLjM2NS0yNy42MTItMjcuNjE4LTI3LjYxMnpNNTEyLjY1MSA2NzAuNDU5YzI2LjY5MiAwIDQ4LjMzIDIxLjYzNCA0OC4zMyA0OC4zMjIgMCAyNi42ODctMjEuNjM4IDQ4LjMyMS00OC4zMyA0OC4zMjEtMjYuNjkyIDAtNDguMzMtMjEuNjM0LTQ4LjMzLTQ4LjMyMSAwLTI2LjY4OCAyMS42MzgtNDguMzIyIDQ4LjMzLTQ4LjMyMnogbTk4LjcxNC0yNzEuNTJjMTYuNTI0IDAgMjkuOTE5IDEzLjM5MiAyOS45MTkgMjkuOTEzIDAgMTYuMjg1LTEzLjAxNSAyOS41My0yOS4yMTIgMjkuOTA1bC0wLjcwNyAwLjAwOEg0MTMuNzA2Yy0xNi41MjMgMC0yOS45MTgtMTMuMzkyLTI5LjkxOC0yOS45MTMgMC0xNi4yODUgMTMuMDE1LTI5LjUzIDI5LjIxMi0yOS45MDVsMC43MDYtMC4wMDhoMTk3LjY2eiBtMC0xMTYuMDEzYzE2LjUyNCAwIDI5LjkxOSAxMy4zOTMgMjkuOTE5IDI5LjkxMyAwIDE2LjI4NS0xMy4wMTUgMjkuNTMtMjkuMjEyIDI5LjkwNWwtMC43MDcgMC4wMDhINDEzLjcwNmMtMTYuNTIzIDAtMjkuOTE4LTEzLjM5Mi0yOS45MTgtMjkuOTEzIDAtMTYuMjg0IDEzLjAxNS0yOS41MyAyOS4yMTItMjkuOTA1bDAuNzA2LTAuMDA4aDE5Ny42NnoiLz48L3N2Zz4=" vertex="1" parent="1e2kQV1l2WdOp7GWkUZe-161">
          <mxGeometry x="102.63157894736842" y="109.56521739130436" width="70.43478260869566" height="70.43478260869566" as="geometry" />
        </mxCell>
        <mxCell id="1e2kQV1l2WdOp7GWkUZe-164" value="" style="shape=image;verticalLabelPosition=bottom;verticalAlign=top;imageAspect=0;aspect=fixed;image=data:image/svg+xml,PHN2ZyB4bWxuczp4bGluaz0iaHR0cDovL3d3dy53My5vcmcvMTk5OS94bGluayIgeG1sbnM9Imh0dHA6Ly93d3cudzMub3JnLzIwMDAvc3ZnIiBoZWlnaHQ9IjIwMCIgd2lkdGg9IjIwMCIgdmVyc2lvbj0iMS4xIiB2aWV3Qm94PSIwIDAgMTAyNCAxMDI0IiBjbGFzcz0iaWNvbiI+PHBhdGggZmlsbD0iIzMzMzMzMyIgZD0iTTY2NC41NDUgODZjNDguMyAwIDg3LjQ1NSAzOS4xNDggODcuNDU1IDg3LjQzOVY5MDAuNTZDNzUyIDk0OC44NTIgNzEyLjg0NSA5ODggNjY0LjU0NSA5ODhoLTMwNi4wOWMtNDguMyAwLTg3LjQ1NS0zOS4xNDgtODcuNDU1LTg3LjQzOVYxNzMuNDRDMjcxIDEyNS4xNDggMzEwLjE1NSA4NiAzNTguNDU1IDg2eiBtMCA1OS44MjdoLTMwNi4wOWMtMTUuMjUzIDAtMjcuNjE4IDEyLjM2Mi0yNy42MTggMjcuNjEyVjkwMC41NmMwIDE1LjI1IDEyLjM2NSAyNy42MTIgMjcuNjE4IDI3LjYxMmgzMDYuMDljMTUuMjUzIDAgMjcuNjE4LTEyLjM2MiAyNy42MTgtMjcuNjEyVjE3My40NGMwLTE1LjI1LTEyLjM2NS0yNy42MTItMjcuNjE4LTI3LjYxMnpNNTEyLjY1MSA2NzAuNDU5YzI2LjY5MiAwIDQ4LjMzIDIxLjYzNCA0OC4zMyA0OC4zMjIgMCAyNi42ODctMjEuNjM4IDQ4LjMyMS00OC4zMyA0OC4zMjEtMjYuNjkyIDAtNDguMzMtMjEuNjM0LTQ4LjMzLTQ4LjMyMSAwLTI2LjY4OCAyMS42MzgtNDguMzIyIDQ4LjMzLTQ4LjMyMnogbTk4LjcxNC0yNzEuNTJjMTYuNTI0IDAgMjkuOTE5IDEzLjM5MiAyOS45MTkgMjkuOTEzIDAgMTYuMjg1LTEzLjAxNSAyOS41My0yOS4yMTIgMjkuOTA1bC0wLjcwNyAwLjAwOEg0MTMuNzA2Yy0xNi41MjMgMC0yOS45MTgtMTMuMzkyLTI5LjkxOC0yOS45MTMgMC0xNi4yODUgMTMuMDE1LTI5LjUzIDI5LjIxMi0yOS45MDVsMC43MDYtMC4wMDhoMTk3LjY2eiBtMC0xMTYuMDEzYzE2LjUyNCAwIDI5LjkxOSAxMy4zOTMgMjkuOTE5IDI5LjkxMyAwIDE2LjI4NS0xMy4wMTUgMjkuNTMtMjkuMjEyIDI5LjkwNWwtMC43MDcgMC4wMDhINDEzLjcwNmMtMTYuNTIzIDAtMjkuOTE4LTEzLjM5Mi0yOS45MTgtMjkuOTEzIDAtMTYuMjg0IDEzLjAxNS0yOS41MyAyOS4yMTItMjkuOTA1bDAuNzA2LTAuMDA4aDE5Ny42NnoiLz48L3N2Zz4=" vertex="1" parent="1e2kQV1l2WdOp7GWkUZe-161">
          <mxGeometry x="135.78947368421052" y="109.56521739130436" width="70.43478260869566" height="70.43478260869566" as="geometry" />
        </mxCell>
        <mxCell id="1e2kQV1l2WdOp7GWkUZe-165" value="" style="shape=image;verticalLabelPosition=bottom;verticalAlign=top;imageAspect=0;aspect=fixed;image=data:image/svg+xml,PHN2ZyB4bWxuczp4bGluaz0iaHR0cDovL3d3dy53My5vcmcvMTk5OS94bGluayIgeG1sbnM9Imh0dHA6Ly93d3cudzMub3JnLzIwMDAvc3ZnIiBoZWlnaHQ9IjIwMCIgd2lkdGg9IjIwMCIgdmVyc2lvbj0iMS4xIiB2aWV3Qm94PSIwIDAgMTAyNCAxMDI0IiBjbGFzcz0iaWNvbiI+PHBhdGggZmlsbD0iIzMzMzMzMyIgZD0iTTY2NC41NDUgODZjNDguMyAwIDg3LjQ1NSAzOS4xNDggODcuNDU1IDg3LjQzOVY5MDAuNTZDNzUyIDk0OC44NTIgNzEyLjg0NSA5ODggNjY0LjU0NSA5ODhoLTMwNi4wOWMtNDguMyAwLTg3LjQ1NS0zOS4xNDgtODcuNDU1LTg3LjQzOVYxNzMuNDRDMjcxIDEyNS4xNDggMzEwLjE1NSA4NiAzNTguNDU1IDg2eiBtMCA1OS44MjdoLTMwNi4wOWMtMTUuMjUzIDAtMjcuNjE4IDEyLjM2Mi0yNy42MTggMjcuNjEyVjkwMC41NmMwIDE1LjI1IDEyLjM2NSAyNy42MTIgMjcuNjE4IDI3LjYxMmgzMDYuMDljMTUuMjUzIDAgMjcuNjE4LTEyLjM2MiAyNy42MTgtMjcuNjEyVjE3My40NGMwLTE1LjI1LTEyLjM2NS0yNy42MTItMjcuNjE4LTI3LjYxMnpNNTEyLjY1MSA2NzAuNDU5YzI2LjY5MiAwIDQ4LjMzIDIxLjYzNCA0OC4zMyA0OC4zMjIgMCAyNi42ODctMjEuNjM4IDQ4LjMyMS00OC4zMyA0OC4zMjEtMjYuNjkyIDAtNDguMzMtMjEuNjM0LTQ4LjMzLTQ4LjMyMSAwLTI2LjY4OCAyMS42MzgtNDguMzIyIDQ4LjMzLTQ4LjMyMnogbTk4LjcxNC0yNzEuNTJjMTYuNTI0IDAgMjkuOTE5IDEzLjM5MiAyOS45MTkgMjkuOTEzIDAgMTYuMjg1LTEzLjAxNSAyOS41My0yOS4yMTIgMjkuOTA1bC0wLjcwNyAwLjAwOEg0MTMuNzA2Yy0xNi41MjMgMC0yOS45MTgtMTMuMzkyLTI5LjkxOC0yOS45MTMgMC0xNi4yODUgMTMuMDE1LTI5LjUzIDI5LjIxMi0yOS45MDVsMC43MDYtMC4wMDhoMTk3LjY2eiBtMC0xMTYuMDEzYzE2LjUyNCAwIDI5LjkxOSAxMy4zOTMgMjkuOTE5IDI5LjkxMyAwIDE2LjI4NS0xMy4wMTUgMjkuNTMtMjkuMjEyIDI5LjkwNWwtMC43MDcgMC4wMDhINDEzLjcwNmMtMTYuNTIzIDAtMjkuOTE4LTEzLjM5Mi0yOS45MTgtMjkuOTEzIDAtMTYuMjg0IDEzLjAxNS0yOS41MyAyOS4yMTItMjkuOTA1bDAuNzA2LTAuMDA4aDE5Ny42NnoiLz48L3N2Zz4=" vertex="1" parent="1e2kQV1l2WdOp7GWkUZe-161">
          <mxGeometry x="168.94736842105263" y="109.56521739130436" width="70.43478260869566" height="70.43478260869566" as="geometry" />
        </mxCell>
        <mxCell id="1e2kQV1l2WdOp7GWkUZe-166" value="" style="shape=image;verticalLabelPosition=bottom;verticalAlign=top;imageAspect=0;aspect=fixed;image=data:image/svg+xml,PHN2ZyB4bWxuczp4bGluaz0iaHR0cDovL3d3dy53My5vcmcvMTk5OS94bGluayIgeG1sbnM9Imh0dHA6Ly93d3cudzMub3JnLzIwMDAvc3ZnIiBoZWlnaHQ9IjIwMCIgd2lkdGg9IjIwMCIgdmVyc2lvbj0iMS4xIiB2aWV3Qm94PSIwIDAgMTAyNCAxMDI0IiBjbGFzcz0iaWNvbiI+PHBhdGggZmlsbD0iIzAwMDAwMSIgZD0iTTEwNy4xNDA3NDEgNjMyLjQxNDgxNWMtMy43OTI1OTMtMzIuMjM3MDM3LTguNTMzMzMzLTY0LjQ3NDA3NC0xMi4zMjU5MjYtOTYuNzExMTExIDYuNjM3MDM3LTYuNjM3MDM3IDEzLjI3NDA3NC0xMi4zMjU5MjYgMTkuOTExMTExLTE4Ljk2Mjk2MyAxNy4wNjY2NjctNDkuMzAzNzA0IDQyLjY2NjY2Ny05My44NjY2NjcgNzUuODUxODUyLTEzNC42MzcwMzcgMTEzLjc3Nzc3OC0xNy4wNjY2NjcgMjMwLjQtMTUuMTcwMzcgMzQ3LjAyMjIyMi03LjU4NTE4NSA2OC4yNjY2NjcgMjQuNjUxODUyIDEyOC45NDgxNDggNTYuODg4ODg5IDE3OC4yNTE4NTIgMTAwLjUwMzcwMyA1Ny44MzcwMzcgMTYuMTE4NTE5IDExNS42NzQwNzQgMzEuMjg4ODg5IDE3NC40NTkyNTkgNDcuNDA3NDA4IDM1LjA4MTQ4MSA0Mi42NjY2NjcgMzguODc0MDc0IDkxLjk3MDM3IDEyLjMyNTkyNiAxNDAuMzI1OTI2bC02MC42ODE0ODEgNy41ODUxODVjMi44NDQ0NDQtOC41MzMzMzMgNC43NDA3NDEtMTguMDE0ODE1IDQuNzQwNzQtMjguNDQ0NDQ1IDAtMjUuNi0xMC40Mjk2My00OC4zNTU1NTYtMjcuNDk2Mjk2LTY1LjQyMjIyMi0xNy4wNjY2NjctMTcuMDY2NjY3LTM5LjgyMjIyMi0yNy40OTYyOTYtNjUuNDIyMjIyLTI3LjQ5NjI5NnMtNDguMzU1NTU2IDEwLjQyOTYzLTY1LjQyMjIyMiAyNy40OTYyOTZjLTE3LjA2NjY2NyAxNy4wNjY2NjctMjcuNDk2Mjk2IDM5LjgyMjIyMi0yNy40OTYyOTcgNjUuNDIyMjIyIDAgMTQuMjIyMjIyIDIuODQ0NDQ0IDI3LjQ5NjI5NiA4LjUzMzMzNCAzOC44NzQwNzRIMjk1LjgyMjIyMmM1LjY4ODg4OS0xMi4zMjU5MjYgOC41MzMzMzMtMjUuNiA4LjUzMzMzNC0zOC44NzQwNzQgMC0yNS42LTEwLjQyOTYzLTQ4LjM1NTU1Ni0yNy40OTYyOTctNjUuNDIyMjIyLTE3LjA2NjY2Ny0xNy4wNjY2NjctMzkuODIyMjIyLTI3LjQ5NjI5Ni02NS40MjIyMjItMjcuNDk2Mjk2cy00OC4zNTU1NTYgMTAuNDI5NjMtNjUuNDIyMjIyIDI3LjQ5NjI5NmMtMTcuMDY2NjY3IDE3LjA2NjY2Ny0yNy40OTYyOTYgMzkuODIyMjIyLTI3LjQ5NjI5NiA2NS40MjIyMjJ2My43OTI1OTNsLTExLjM3Nzc3OC0xMy4yNzQwNzR6IG0xMDUuMjQ0NDQ0LTY4LjI2NjY2N2MtMjEuODA3NDA3IDAtNDEuNzE4NTE5IDguNTMzMzMzLTU1Ljk0MDc0MSAyMi43NTU1NTZTMTMyLjc0MDc0MSA2MjEuMDM3MDM3IDEzMi43NDA3NDEgNjQyLjg0NDQ0NGMwIDIxLjgwNzQwNyA4LjUzMzMzMyA0MS43MTg1MTkgMjIuNzU1NTU1IDU1Ljk0MDc0MXMzNC4xMzMzMzMgMjIuNzU1NTU2IDU1Ljk0MDc0MSAyMi43NTU1NTZjMjEuODA3NDA3IDAgNDEuNzE4NTE5LTguNTMzMzMzIDU1Ljk0MDc0MS0yMi43NTU1NTZzMjIuNzU1NTU2LTM0LjEzMzMzMyAyMi43NTU1NTUtNTUuOTQwNzQxYzAtMjEuODA3NDA3LTguNTMzMzMzLTQxLjcxODUxOS0yMi43NTU1NTUtNTUuOTQwNzQtMTMuMjc0MDc0LTE0LjIyMjIyMi0zMy4xODUxODUtMjIuNzU1NTU2LTU0Ljk5MjU5My0yMi43NTU1NTZ6IG01NDEuMzkyNTkzIDBjLTIxLjgwNzQwNyAwLTQxLjcxODUxOSA4LjUzMzMzMy01NS45NDA3NDEgMjIuNzU1NTU2cy0yMi43NTU1NTYgMzQuMTMzMzMzLTIyLjc1NTU1NiA1NS45NDA3NGMwIDIxLjgwNzQwNyA4LjUzMzMzMyA0MS43MTg1MTkgMjIuNzU1NTU2IDU1Ljk0MDc0MXMzNC4xMzMzMzMgMjIuNzU1NTU2IDU1Ljk0MDc0MSAyMi43NTU1NTZjMjEuODA3NDA3IDAgNDEuNzE4NTE5LTguNTMzMzMzIDU1Ljk0MDc0MS0yMi43NTU1NTZzMjIuNzU1NTU2LTM0LjEzMzMzMyAyMi43NTU1NTUtNTUuOTQwNzQxYzAtMjEuODA3NDA3LTguNTMzMzMzLTQxLjcxODUxOS0yMi43NTU1NTUtNTUuOTQwNzRzLTM0LjEzMzMzMy0yMi43NTU1NTYtNTUuOTQwNzQxLTIyLjc1NTU1NnogbTEyLjMyNTkyNiA2OS4yMTQ4MTVjMS44OTYyOTYgMS44OTYyOTYgMy43OTI1OTMgNC43NDA3NDEgNC43NDA3NCA4LjUzMzMzMyA2LjYzNzAzNyAwIDE2LjExODUxOS0xLjg5NjI5NiAxOC45NjI5NjMtMi44NDQ0NDQgNC43NDA3NDEtMC45NDgxNDggOS40ODE0ODEtMi44NDQ0NDQgMTQuMjIyMjIzLTMuNzkyNTkzLTEuODk2Mjk2LTEwLjQyOTYzLTYuNjM3MDM3LTE5LjkxMTExMS0xNC4yMjIyMjMtMjcuNDk2Mjk2bC0xMS4zNzc3NzcgMTEuMzc3Nzc4Yy0yLjg0NDQ0NCAxLjg5NjI5Ni05LjQ4MTQ4MSA4LjUzMzMzMy0xMi4zMjU5MjYgMTQuMjIyMjIyeiBtLTcuNTg1MTg1IDI3LjQ5NjI5NmMtMC45NDgxNDggMC0yLjg0NDQ0NCAwLjk0ODE0OC0zLjc5MjU5MyAwLjk0ODE0OC0xLjg5NjI5NiAwLTMuNzkyNTkzIDAtNS42ODg4ODktMC45NDgxNDgtMy43OTI1OTMgNS42ODg4ODktNi42MzcwMzcgMTUuMTcwMzctNi42MzcwMzcgMTguMDE0ODE1LTAuOTQ4MTQ4IDMuNzkyNTkzLTEuODk2Mjk2IDguNTMzMzMzLTIuODQ0NDQ0IDEyLjMyNTkyNiA0Ljc0MDc0MSAxLjg5NjI5NiAxMC40Mjk2MyAyLjg0NDQ0NCAxNi4xMTg1MTggMi44NDQ0NDQgNC43NDA3NDEgMCA5LjQ4MTQ4MS0wLjk0ODE0OCAxNC4yMjIyMjItMS44OTYyOTYtMC45NDgxNDgtNC43NDA3NDEtMS44OTYyOTYtOC41MzMzMzMtMi44NDQ0NDQtMTMuMjc0MDc0LTIuODQ0NDQ0LTMuNzkyNTkzLTUuNjg4ODg5LTEyLjMyNTkyNi04LjUzMzMzMy0xOC4wMTQ4MTV6IG0tMTkuOTExMTEyLTIwLjg1OTI1OWMwLjk0ODE0OC0yLjg0NDQ0NCAyLjg0NDQ0NC01LjY4ODg4OSA1LjY4ODg4OS03LjU4NTE4NS0yLjg0NDQ0NC01LjY4ODg4OS0xMC40Mjk2My0xMy4yNzQwNzQtMTIuMzI1OTI2LTE1LjE3MDM3MS0zLjc5MjU5My0zLjc5MjU5My03LjU4NTE4NS03LjU4NTE4NS0xMS4zNzc3NzctMTAuNDI5NjI5IDAgMC0wLjk0ODE0OCAwLTEuODk2Mjk3IDAuOTQ4MTQ4LTYuNjM3MDM3IDYuNjM3MDM3LTExLjM3Nzc3OCAxNS4xNzAzNy0xMy4yNzQwNzQgMjUuNiA0Ljc0MDc0MSAxLjg5NjI5NiA5LjQ4MTQ4MSAyLjg0NDQ0NCAxNC4yMjIyMjIgMy43OTI1OTMgMi44NDQ0NDQgMC45NDgxNDggMTIuMzI1OTI2IDIuODQ0NDQ0IDE4Ljk2Mjk2MyAyLjg0NDQ0NHogbTE3LjA2NjY2Ny0xMy4yNzQwNzRjNC43NDA3NDEtOS40ODE0ODEgMTQuMjIyMjIyLTE4Ljk2Mjk2MyAyMi43NTU1NTYtMjcuNDk2Mjk2LTcuNTg1MTg1LTMuNzkyNTkzLTE1LjE3MDM3LTYuNjM3MDM3LTIzLjcwMzcwNC02LjYzNzAzNy03LjU4NTE4NSAwLTE1LjE3MDM3IDEuODk2Mjk2LTIxLjgwNzQwNyA0Ljc0MDc0IDguNTMzMzMzIDkuNDgxNDgxIDE4LjAxNDgxNSAxOS45MTExMTEgMjIuNzU1NTU1IDI5LjM5MjU5M3ogbTQ3LjQwNzQwNyAyMi43NTU1NTVjLTExLjM3Nzc3OCAyLjg0NDQ0NC0yNC42NTE4NTIgNS42ODg4ODktMzQuMTMzMzMzIDQuNzQwNzQxIDQuNzQwNzQxIDguNTMzMzMzIDguNTMzMzMzIDE5LjkxMTExMSAxMS4zNzc3NzggMzAuMzQwNzQxIDIuODQ0NDQ0LTEuODk2Mjk2IDUuNjg4ODg5LTQuNzQwNzQxIDguNTMzMzMzLTYuNjM3MDM3IDcuNTg1MTg1LTcuNTg1MTg1IDEzLjI3NDA3NC0xNy4wNjY2NjcgMTQuMjIyMjIyLTI4LjQ0NDQ0NXogbS03Ni44IDM0LjEzMzMzNGMyLjg0NDQ0NC0xMS4zNzc3NzggNy41ODUxODUtMjIuNzU1NTU2IDEyLjMyNTkyNi0zMS4yODg4ODktMTAuNDI5NjMgMC0yMi43NTU1NTYtMi44NDQ0NDQtMzQuMTMzMzMzLTUuNjg4ODg5IDAuOTQ4MTQ4IDEyLjMyNTkyNiA2LjYzNzAzNyAyMi43NTU1NTYgMTQuMjIyMjIyIDMxLjI4ODg4OSAyLjg0NDQ0NCAxLjg5NjI5NiA0Ljc0MDc0MSAzLjc5MjU5MyA3LjU4NTE4NSA1LjY4ODg4OXogbS01MDIuNTE4NTE4LTUwLjI1MTg1MmMxLjg5NjI5NiAxLjg5NjI5NiAzLjc5MjU5MyA0Ljc0MDc0MSA0Ljc0MDc0MSA4LjUzMzMzMyA2LjYzNzAzNyAwIDE2LjExODUxOS0xLjg5NjI5NiAxOC45NjI5NjMtMi44NDQ0NDQgNC43NDA3NDEtMC45NDgxNDggOS40ODE0ODEtMi44NDQ0NDQgMTQuMjIyMjIyLTMuNzkyNTkzLTEuODk2Mjk2LTEwLjQyOTYzLTYuNjM3MDM3LTE5LjkxMTExMS0xNC4yMjIyMjItMjcuNDk2Mjk2bC0xMS4zNzc3NzggMTEuMzc3Nzc4Yy0yLjg0NDQ0NCAxLjg5NjI5Ni05LjQ4MTQ4MSA4LjUzMzMzMy0xMi4zMjU5MjYgMTQuMjIyMjIyeiBtLTcuNTg1MTg1IDI3LjQ5NjI5NmMtMC45NDgxNDggMC0yLjg0NDQ0NCAwLjk0ODE0OC0zLjc5MjU5MyAwLjk0ODE0OC0xLjg5NjI5NiAwLTMuNzkyNTkzIDAtNS42ODg4ODktMC45NDgxNDgtMy43OTI1OTMgNS42ODg4ODktNi42MzcwMzcgMTUuMTcwMzctNi42MzcwMzcgMTguMDE0ODE1LTAuOTQ4MTQ4IDMuNzkyNTkzLTEuODk2Mjk2IDguNTMzMzMzLTIuODQ0NDQ0IDEyLjMyNTkyNiA0Ljc0MDc0MSAxLjg5NjI5NiAxMC40Mjk2MyAyLjg0NDQ0NCAxNi4xMTg1MTggMi44NDQ0NDQgNC43NDA3NDEgMCA5LjQ4MTQ4MS0wLjk0ODE0OCAxNC4yMjIyMjMtMS44OTYyOTYtMC45NDgxNDgtNC43NDA3NDEtMS44OTYyOTYtOC41MzMzMzMtMi44NDQ0NDUtMTMuMjc0MDc0LTIuODQ0NDQ0LTMuNzkyNTkzLTQuNzQwNzQxLTEyLjMyNTkyNi04LjUzMzMzMy0xOC4wMTQ4MTV6IG0tMTguOTYyOTYzLTIwLjg1OTI1OWMwLjk0ODE0OC0yLjg0NDQ0NCAyLjg0NDQ0NC01LjY4ODg4OSA1LjY4ODg4OS03LjU4NTE4NS0yLjg0NDQ0NC01LjY4ODg4OS0xMC40Mjk2My0xMy4yNzQwNzQtMTIuMzI1OTI2LTE1LjE3MDM3MS0zLjc5MjU5My0zLjc5MjU5My03LjU4NTE4NS03LjU4NTE4NS0xMS4zNzc3NzgtMTAuNDI5NjI5bC0xLjg5NjI5NiAxLjg5NjI5NmMtNi42MzcwMzcgNi42MzcwMzctMTEuMzc3Nzc4IDE1LjE3MDM3LTEzLjI3NDA3NCAyNS42IDQuNzQwNzQxIDEuODk2Mjk2IDkuNDgxNDgxIDIuODQ0NDQ0IDE0LjIyMjIyMiAzLjc5MjU5MyAyLjg0NDQ0NCAwIDEyLjMyNTkyNiAxLjg5NjI5NiAxOC45NjI5NjMgMS44OTYyOTZ6IG0xNi4xMTg1MTgtMTMuMjc0MDc0YzQuNzQwNzQxLTkuNDgxNDgxIDE0LjIyMjIyMi0xOC45NjI5NjMgMjIuNzU1NTU2LTI3LjQ5NjI5Ni03LjU4NTE4NS0zLjc5MjU5My0xNS4xNzAzNy02LjYzNzAzNy0yMy43MDM3MDQtNi42MzcwMzctNy41ODUxODUgMC0xNS4xNzAzNyAxLjg5NjI5Ni0yMS44MDc0MDcgNC43NDA3NCA4LjUzMzMzMyA5LjQ4MTQ4MSAxOC4wMTQ4MTUgMTkuOTExMTExIDIyLjc1NTU1NSAyOS4zOTI1OTN6IG00OC4zNTU1NTYgMjIuNzU1NTU1Yy0xMS4zNzc3NzggMi44NDQ0NDQtMjQuNjUxODUyIDUuNjg4ODg5LTM0LjEzMzMzMyA0Ljc0MDc0MSA0Ljc0MDc0MSA4LjUzMzMzMyA4LjUzMzMzMyAxOS45MTExMTEgMTEuMzc3Nzc3IDMwLjM0MDc0MSAyLjg0NDQ0NC0xLjg5NjI5NiA1LjY4ODg4OS00Ljc0MDc0MSA4LjUzMzMzNC02LjYzNzAzNyA3LjU4NTE4NS03LjU4NTE4NSAxMi4zMjU5MjYtMTcuMDY2NjY3IDE0LjIyMjIyMi0yOC40NDQ0NDV6IG0tNzcuNzQ4MTQ4IDM0LjEzMzMzNGMyLjg0NDQ0NC0xMS4zNzc3NzggNy41ODUxODUtMjIuNzU1NTU2IDEyLjMyNTkyNi0zMS4yODg4ODktMTAuNDI5NjMgMC0yMi43NTU1NTYtMi44NDQ0NDQtMzQuMTMzMzM0LTUuNjg4ODg5IDAuOTQ4MTQ4IDEyLjMyNTkyNiA2LjYzNzAzNyAyMi43NTU1NTYgMTQuMjIyMjIzIDMxLjI4ODg4OSAyLjg0NDQ0NCAxLjg5NjI5NiA0Ljc0MDc0MSAzLjc5MjU5MyA3LjU4NTE4NSA1LjY4ODg4OXogbTM4My4wNTE4NTItMTg5LjYyOTYzYzMuNzkyNTkzLTExLjM3Nzc3OCA3LjU4NTE4NS0yMS44MDc0MDcgMTEuMzc3Nzc3LTMzLjE4NTE4NSAyNi41NDgxNDggMC45NDgxNDggNDYuNDU5MjU5IDEwLjQyOTYzIDYyLjU3Nzc3OCAyNC42NTE4NTJsLTIuODQ0NDQ0IDUuNjg4ODg5IDE3LjA2NjY2NiA3LjU4NTE4NSAxNi4xMTg1MTktMTUuMTcwMzdjLTQyLjY2NjY2Ny0zNy45MjU5MjYtOTkuNTU1NTU2LTY1LjQyMjIyMi0xNDEuMjc0MDc0LTg2LjI4MTQ4Mi01MS4yLTIuODQ0NDQ0LTk5LjU1NTU1Ni0zLjc5MjU5My0xNDcuOTExMTExLTIuODQ0NDQ0bDMuNzkyNTkyIDUwLjI1MTg1MSAzLjc5MjU5MyA1NC4wNDQ0NDUgMjIxLjg2NjY2NyAzLjc5MjU5M2M1LjY4ODg4OSAyNC42NTE4NTIgNy41ODUxODUgNDkuMzAzNzA0IDcuNTg1MTg1IDczLjk1NTU1NSAwIDI2LjU0ODE0OC0zLjc5MjU5MyA1My4wOTYyOTYtMTAuNDI5NjMgNzkuNjQ0NDQ1SDM5NC40Mjk2M2MtNC43NDA3NDEtMTYuMTE4NTE5LTguNTMzMzMzLTMzLjE4NTE4NS0xMC40Mjk2My01MC4yNTE4NTItMi44NDQ0NDQtMTguMDE0ODE1LTQuNzQwNzQxLTM2Ljk3Nzc3OC01LjY4ODg4OS01Ni44ODg4ODl2LTQxLjcxODUxOUgzNjkuNzc3Nzc4VjU0OS45MjU5MjZjMC45NDgxNDggMTkuOTExMTExIDIuODQ0NDQ0IDM4Ljg3NDA3NCA1LjY4ODg4OSA1Ny44MzcwMzdzNy41ODUxODUgMzYuMDI5NjMgMTIuMzI1OTI2IDU0LjA0NDQ0NGwwLjk0ODE0OCAyLjg0NDQ0NUg2MTUuMzQ4MTQ4bDAuOTQ4MTQ4LTIuODQ0NDQ1YzcuNTg1MTg1LTI4LjQ0NDQ0NCAxMS4zNzc3NzgtNTYuODg4ODg5IDEyLjMyNTkyNi04NC4zODUxODUgMC0yNC42NTE4NTItMS44OTYyOTYtNDkuMzAzNzA0LTcuNTg1MTg1LTczLjk1NTU1NUg2MzUuMjU5MjU5bC0yMS44MDc0MDctOC41MzMzMzQtNDYuNDU5MjU5LTAuOTQ4MTQ4eiBtLTE3MC42NjY2NjcgMzQuMTMzMzM0djkuNDgxNDgxaDQxLjcxODUxOHYtOS40ODE0ODFoLTQxLjcxODUxOHogbS0zNS4wODE0ODItMTMyLjc0MDc0MWMtMzEuMjg4ODg5IDAuOTQ4MTQ4LTYyLjU3Nzc3OCAxLjg5NjI5Ni05My44NjY2NjYgMy43OTI1OTItMTguOTYyOTYzIDIzLjcwMzcwNC0zMS4yODg4ODkgNDkuMzAzNzA0LTQxLjcxODUxOSA3NC45MDM3MDQgNS42ODg4ODkgNy41ODUxODUgMTEuMzc3Nzc4IDE0LjIyMjIyMiAxNy4wNjY2NjcgMjEuODA3NDA3bDExMy43Nzc3NzggMS44OTYyOTcgNC43NDA3NC0xMDIuNHogbTUyOC4xMTg1MTkgMTQ3LjkxMTExMWwtNzEuMTExMTExLTE0LjIyMjIyMnMzMi4yMzcwMzcgNDkuMzAzNzA0IDQ4LjM1NTU1NSA1MC4yNTE4NTJjMTUuMTcwMzcgMC45NDgxNDggMjUuNi03LjU4NTE4NSAyNS42LTcuNTg1MTg2aDExLjM3Nzc3OGwtMTQuMjIyMjIyLTI4LjQ0NDQ0NHogbS03NTcuNTcwMzctNTMuMDk2Mjk2aDM1LjA4MTQ4MWM0Ljc0MDc0MS0zNi45Nzc3NzggNy41ODUxODUtNTIuMTQ4MTQ4IDE3LjA2NjY2Ny04Ni4yODE0ODJIMTgwLjE0ODE0OGMtMjEuODA3NDA3IDMwLjM0MDc0MS0zMC4zNDA3NDEgNDcuNDA3NDA3LTQ4LjM1NTU1NSA4Ni4yODE0ODJ6Ii8+PC9zdmc+" vertex="1" parent="1e2kQV1l2WdOp7GWkUZe-150">
          <mxGeometry y="410" width="130" height="130" as="geometry" />
        </mxCell>
        <mxCell id="1e2kQV1l2WdOp7GWkUZe-167" value="" style="shape=image;verticalLabelPosition=bottom;verticalAlign=top;imageAspect=0;aspect=fixed;image=data:image/svg+xml,PHN2ZyB4bWxuczp4bGluaz0iaHR0cDovL3d3dy53My5vcmcvMTk5OS94bGluayIgeG1sbnM9Imh0dHA6Ly93d3cudzMub3JnLzIwMDAvc3ZnIiBoZWlnaHQ9IjIwMCIgd2lkdGg9IjIwMCIgdmVyc2lvbj0iMS4xIiB2aWV3Qm94PSIwIDAgMTAyNCAxMDI0IiBjbGFzcz0iaWNvbiI+PHBhdGggZmlsbD0iIzJBMkEzNyIgZD0iTTM2OC40NjkzMzMgNTUxLjU3MzMzM2wwLjEyOC0wLjIxMzMzMy05Ny4xMzA2NjYtMTAzLjg3MmE0Mi42NjY2NjcgNDIuNjY2NjY3IDAgMCAxLTIuMDY5MzM0LTU1Ljg5MzMzM2wyMi44MDUzMzQtMjguMzMwNjY3IDM4My45Nzg2NjYgMzkxLjg5MzMzMy00NC44IDI3LjM3MDY2N2E0Mi42NjY2NjcgNDIuNjY2NjY3IDAgMCAxLTQ0LjI0NTMzMyAwLjE3MDY2N2wtMjE4LjY2NjY2Ny0yMzEuMTI1MzM0eiBtLTExLjIyMTMzMyAxOS4wMjkzMzRsNjEuODAyNjY3IDY1LjMyMjY2Ni0zOS43NDQgNjcuMjg1MzM0YTQyLjU2IDQyLjU2IDAgMCAxLTI3LjY5MDY2NyAyMC4wMTA2NjZjLTMuMDI5MzMzIDAuNzA0LTYuMTg2NjY3IDEuMDY2NjY3LTkuNDI5MzMzIDEuMDY2NjY3SDI3Ny4zMzMzMzN2NjUuMjhhNDIuNjY2NjY3IDQyLjY2NjY2NyAwIDEgMS04NS4zMzMzMzMgMHYtMTcwLjY2NjY2N2E0Mi42NjY2NjcgNDIuNjY2NjY3IDAgMSAxIDg1LjMzMzMzMyAwVjY0MGgzOC45MzMzMzRsNDAuOTYtNjkuMzk3MzMzeiBtLTM4LjI1MDY2Ny0yNDAuNjRsOTguMTc2LTEyMi4wMjY2NjdhNDIuNjY2NjY3IDQyLjY2NjY2NyAwIDAgMSA2My4xODkzMzQtMy42NDhsMzgxLjAzNDY2NiAzNzUuNTMwNjY3YTQyLjY2NjY2NyA0Mi42NjY2NjcgMCAwIDEtNy42OCA2Ni43OTQ2NjZsLTE0MC4zNzMzMzMgODUuODAyNjY3LTM5NC4zNDY2NjctNDAyLjQ1MzMzM3oiLz48L3N2Zz4=" vertex="1" parent="1e2kQV1l2WdOp7GWkUZe-150">
          <mxGeometry x="130" y="410" width="130" height="130" as="geometry" />
        </mxCell>
        <mxCell id="1e2kQV1l2WdOp7GWkUZe-168" value="" style="shape=image;verticalLabelPosition=bottom;verticalAlign=top;imageAspect=0;aspect=fixed;image=data:image/svg+xml,PHN2ZyB4bWxuczp4bGluaz0iaHR0cDovL3d3dy53My5vcmcvMTk5OS94bGluayIgeG1sbnM9Imh0dHA6Ly93d3cudzMub3JnLzIwMDAvc3ZnIiBoZWlnaHQ9IjIwMCIgd2lkdGg9IjIwMCIgdmVyc2lvbj0iMS4xIiB2aWV3Qm94PSIwIDAgMTAyNCAxMDI0IiBjbGFzcz0iaWNvbiI+PHBhdGggZmlsbD0iIzI3MjYzNiIgZD0iTTc5OC43MjMyMzQgMTc0Ljc4Mjc0NWMwLTYwLjU3NjY1Ny00OS4xMDY0MTgtMTA5LjY4MzA3NS0xMDkuNjgzMDc1LTEwOS42ODMwNzVsLTM1NC43MDg2MjggMGMtNjAuNTc2NjU3IDAtMTA5LjY4MzA3NSA0OS4xMDY0MTgtMTA5LjY4MzA3NSAxMDkuNjgzMDc1bDAgNjczLjk4MDE2MWMwIDYwLjU3NjY1NyA0OS4xMDY0MTggMTA5LjY4MzA3NSAxMDkuNjgzMDc1IDEwOS42ODMwNzVsMzU0LjcwODYyOCAwYzYwLjU3NjY1NyAwIDEwOS42ODMwNzUtNDkuMTA2NDE4IDEwOS42ODMwNzUtMTA5LjY4MzA3NUw3OTguNzIzMjM0IDE3NC43ODI3NDV6TTI2NC41NTczOTggMjM3LjAxNTExMmw0OTQuMjU2ODk0IDAgMCA1MjkuMDQ5MzA1LTQ5NC4yNTY4OTQgMEwyNjQuNTU3Mzk4IDIzNy4wMTUxMTJ6TTMzNC4zNTYwOTEgMTA1LjAwODYxMiA2ODkuMDE2NjIzIDEwNS4wMDg2MTJjMzguNTQ4OTY4IDAgNjkuNzk4NjkyIDMxLjI0OTcyNSA2OS43OTg2OTIgNjkuNzk4NjkybDAgMjIuMjk4ODY1LTQ5NC4yNTY4OTQgMCAwLTIyLjI5ODg2NUMyNjQuNTU3Mzk4IDEzNi4yNTkzNiAyOTUuODA3MTIzIDEwNS4wMDg2MTIgMzM0LjM1NjA5MSAxMDUuMDA4NjEyek02ODkuMDE2NjIzIDkxOC41MzcwNCAzMzQuMzU2MDkxIDkxOC41MzcwNGMtMzguNTQ4OTY4IDAtNjkuNzk4NjkyLTMxLjI0OTcyNS02OS43OTg2OTItNjkuNzk4NjkybDAtNDMuNzg4Mjk2IDQ5NC4yNTY4OTQgMCAwIDQzLjc4ODI5NkM3NTguODE0MjkyIDg4Ny4yODczMTUgNzI3LjU2NDU2NyA5MTguNTM3MDQgNjg5LjAxNjYyMyA5MTguNTM3MDR6Ii8+PHBhdGggZmlsbD0iIzI3MjYzNiIgZD0iTTUxMy4xNzM3MzIgODI5Ljk0MzI4MmMtMTYuNzA3NTIgMC0zMC4zMDExMiAxMy41OTM2LTMwLjMwMTEyIDMwLjMwMTEyIDAgMTYuNzA3NTIgMTMuNTkzNiAzMC4zMDExMiAzMC4zMDExMiAzMC4zMDExMnMzMC4yOTkwNzMtMTMuNTkzNiAzMC4yOTkwNzMtMzAuMzAxMTJDNTQzLjQ3MjgwNSA4NDMuNTM2ODgyIDUyOS44ODEyNTMgODI5Ljk0MzI4MiA1MTMuMTczNzMyIDgyOS45NDMyODJ6Ii8+PC9zdmc+" vertex="1" parent="1e2kQV1l2WdOp7GWkUZe-150">
          <mxGeometry x="270" y="410" width="130" height="130" as="geometry" />
        </mxCell>
        <mxCell id="1e2kQV1l2WdOp7GWkUZe-169" value="" style="html=1;fillColor=#CCCCCC;strokeColor=#6881B3;gradientColor=none;gradientDirection=north;strokeWidth=2;shape=mxgraph.networks.comm_link_edge;html=1;labelBackgroundColor=none;endArrow=none;fontFamily=Verdana;fontSize=22;fontColor=#000000;entryX=0.5;entryY=1;entryDx=0;entryDy=0;exitX=0.5;exitY=0;exitDx=0;exitDy=0;" edge="1" parent="1e2kQV1l2WdOp7GWkUZe-150" source="1e2kQV1l2WdOp7GWkUZe-166">
          <mxGeometry width="100" height="100" relative="1" as="geometry">
            <mxPoint x="-30" y="330" as="sourcePoint" />
            <mxPoint x="240" y="210" as="targetPoint" />
          </mxGeometry>
        </mxCell>
        <mxCell id="1e2kQV1l2WdOp7GWkUZe-170" value="" style="html=1;fillColor=#CCCCCC;strokeColor=#6881B3;gradientColor=none;gradientDirection=north;strokeWidth=2;shape=mxgraph.networks.comm_link_edge;html=1;labelBackgroundColor=none;endArrow=none;fontFamily=Verdana;fontSize=22;fontColor=#000000;exitX=0.5;exitY=1;exitDx=0;exitDy=0;entryX=0.5;entryY=0;entryDx=0;entryDy=0;" edge="1" parent="1e2kQV1l2WdOp7GWkUZe-150" target="1e2kQV1l2WdOp7GWkUZe-167">
          <mxGeometry width="100" height="100" relative="1" as="geometry">
            <mxPoint x="240" y="210" as="sourcePoint" />
            <mxPoint x="455" y="359" as="targetPoint" />
          </mxGeometry>
        </mxCell>
        <mxCell id="1e2kQV1l2WdOp7GWkUZe-171" value="" style="html=1;fillColor=#CCCCCC;strokeColor=#6881B3;gradientColor=none;gradientDirection=north;strokeWidth=2;shape=mxgraph.networks.comm_link_edge;html=1;labelBackgroundColor=none;endArrow=none;fontFamily=Verdana;fontSize=22;fontColor=#000000;exitX=0.5;exitY=1;exitDx=0;exitDy=0;entryX=0.5;entryY=0;entryDx=0;entryDy=0;" edge="1" parent="1e2kQV1l2WdOp7GWkUZe-150" target="1e2kQV1l2WdOp7GWkUZe-168">
          <mxGeometry width="100" height="100" relative="1" as="geometry">
            <mxPoint x="240" y="210" as="sourcePoint" />
            <mxPoint x="205" y="420" as="targetPoint" />
          </mxGeometry>
        </mxCell>
        <mxCell id="1e2kQV1l2WdOp7GWkUZe-172" value="" style="shape=image;verticalLabelPosition=bottom;verticalAlign=top;imageAspect=0;aspect=fixed;image=data:image/svg+xml,PHN2ZyB4bWxuczp4bGluaz0iaHR0cDovL3d3dy53My5vcmcvMTk5OS94bGluayIgeG1sbnM9Imh0dHA6Ly93d3cudzMub3JnLzIwMDAvc3ZnIiBoZWlnaHQ9IjIwMCIgd2lkdGg9IjIwMCIgdmVyc2lvbj0iMS4xIiB2aWV3Qm94PSIwIDAgMTAyNCAxMDI0IiBjbGFzcz0iaWNvbiI+PHBhdGggZmlsbD0iIzQ0NDQ0NCIgZD0iTTc0Ni42NjY2NjcgNzI1LjMzMzMzM2M1OS43MzMzMzMtMTIuOCAxMDYuNjY2NjY3LTY0IDEwNi42NjY2NjYtMTI4IDAtNzIuNTMzMzMzLTU1LjQ2NjY2Ny0xMjgtMTI4LTEyOC0xNy4wNjY2NjcgMC0yOS44NjY2NjcgNC4yNjY2NjctNDIuNjY2NjY2IDguNTMzMzM0VjQ2OS4zMzMzMzNjMC05My44NjY2NjctNzYuOC0xNzAuNjY2NjY3LTE3MC42NjY2NjctMTcwLjY2NjY2NnMtMTcwLjY2NjY2NyA3Ni44LTE3MC42NjY2NjcgMTcwLjY2NjY2NmMwIDE3LjA2NjY2NyA0LjI2NjY2NyAyOS44NjY2NjcgNC4yNjY2NjcgNDYuOTMzMzM0LTguNTMzMzMzLTQuMjY2NjY3LTE3LjA2NjY2Ny00LjI2NjY2Ny0yNS42LTQuMjY2NjY3QzI2MC4yNjY2NjcgNTEyIDIxMy4zMzMzMzMgNTU4LjkzMzMzMyAyMTMuMzMzMzMzIDYxOC42NjY2NjdTMjYwLjI2NjY2NyA3MjUuMzMzMzMzIDMyMCA3MjUuMzMzMzMzaDQyNi42NjY2Njd6IG0wIDg1LjMzMzMzNGgtNDI2LjY2NjY2N0MyMTMuMzMzMzMzIDgxMC42NjY2NjcgMTI4IDcyNS4zMzMzMzMgMTI4IDYxOC42NjY2NjdjMC04NS4zMzMzMzMgNTUuNDY2NjY3LTE1Ny44NjY2NjcgMTI4LTE4My40NjY2NjdDMjczLjA2NjY2NyAzMTEuNDY2NjY3IDM3OS43MzMzMzMgMjEzLjMzMzMzMyA1MTIgMjEzLjMzMzMzM2MxMTAuOTMzMzMzIDAgMjA5LjA2NjY2NyA3Mi41MzMzMzMgMjQzLjIgMTcwLjY2NjY2NyAxMDIuNCAxMi44IDE4My40NjY2NjcgMTAyLjQgMTgzLjQ2NjY2NyAyMTMuMzMzMzMzcy04NS4zMzMzMzMgMjAwLjUzMzMzMy0xOTIgMjEzLjMzMzMzNHoiLz48L3N2Zz4=" vertex="1" parent="1">
          <mxGeometry x="540" y="-220" width="360" height="360" as="geometry" />
        </mxCell>
        <mxCell id="1e2kQV1l2WdOp7GWkUZe-173" value="" style="shape=image;verticalLabelPosition=bottom;verticalAlign=top;imageAspect=0;aspect=fixed;image=data:image/svg+xml,PHN2ZyB4bWxuczp4bGluaz0iaHR0cDovL3d3dy53My5vcmcvMTk5OS94bGluayIgeG1sbnM9Imh0dHA6Ly93d3cudzMub3JnLzIwMDAvc3ZnIiBoZWlnaHQ9IjIwMCIgd2lkdGg9IjIwMCIgdmVyc2lvbj0iMS4xIiB2aWV3Qm94PSIwIDAgMTAyNCAxMDI0IiBjbGFzcz0iaWNvbiI+PHBhdGggZmlsbD0iIzMzMzMzMyIgZD0iTTY2NC41NDUgODZjNDguMyAwIDg3LjQ1NSAzOS4xNDggODcuNDU1IDg3LjQzOVY5MDAuNTZDNzUyIDk0OC44NTIgNzEyLjg0NSA5ODggNjY0LjU0NSA5ODhoLTMwNi4wOWMtNDguMyAwLTg3LjQ1NS0zOS4xNDgtODcuNDU1LTg3LjQzOVYxNzMuNDRDMjcxIDEyNS4xNDggMzEwLjE1NSA4NiAzNTguNDU1IDg2eiBtMCA1OS44MjdoLTMwNi4wOWMtMTUuMjUzIDAtMjcuNjE4IDEyLjM2Mi0yNy42MTggMjcuNjEyVjkwMC41NmMwIDE1LjI1IDEyLjM2NSAyNy42MTIgMjcuNjE4IDI3LjYxMmgzMDYuMDljMTUuMjUzIDAgMjcuNjE4LTEyLjM2MiAyNy42MTgtMjcuNjEyVjE3My40NGMwLTE1LjI1LTEyLjM2NS0yNy42MTItMjcuNjE4LTI3LjYxMnpNNTEyLjY1MSA2NzAuNDU5YzI2LjY5MiAwIDQ4LjMzIDIxLjYzNCA0OC4zMyA0OC4zMjIgMCAyNi42ODctMjEuNjM4IDQ4LjMyMS00OC4zMyA0OC4zMjEtMjYuNjkyIDAtNDguMzMtMjEuNjM0LTQ4LjMzLTQ4LjMyMSAwLTI2LjY4OCAyMS42MzgtNDguMzIyIDQ4LjMzLTQ4LjMyMnogbTk4LjcxNC0yNzEuNTJjMTYuNTI0IDAgMjkuOTE5IDEzLjM5MiAyOS45MTkgMjkuOTEzIDAgMTYuMjg1LTEzLjAxNSAyOS41My0yOS4yMTIgMjkuOTA1bC0wLjcwNyAwLjAwOEg0MTMuNzA2Yy0xNi41MjMgMC0yOS45MTgtMTMuMzkyLTI5LjkxOC0yOS45MTMgMC0xNi4yODUgMTMuMDE1LTI5LjUzIDI5LjIxMi0yOS45MDVsMC43MDYtMC4wMDhoMTk3LjY2eiBtMC0xMTYuMDEzYzE2LjUyNCAwIDI5LjkxOSAxMy4zOTMgMjkuOTE5IDI5LjkxMyAwIDE2LjI4NS0xMy4wMTUgMjkuNTMtMjkuMjEyIDI5LjkwNWwtMC43MDcgMC4wMDhINDEzLjcwNmMtMTYuNTIzIDAtMjkuOTE4LTEzLjM5Mi0yOS45MTgtMjkuOTEzIDAtMTYuMjg0IDEzLjAxNS0yOS41MyAyOS4yMTItMjkuOTA1bDAuNzA2LTAuMDA4aDE5Ny42NnoiLz48L3N2Zz4=" vertex="1" parent="1">
          <mxGeometry x="840" y="-50" width="110" height="110" as="geometry" />
        </mxCell>
        <mxCell id="1e2kQV1l2WdOp7GWkUZe-174" value="" style="shape=image;verticalLabelPosition=bottom;verticalAlign=top;imageAspect=0;aspect=fixed;image=data:image/svg+xml,PHN2ZyB4bWxuczp4bGluaz0iaHR0cDovL3d3dy53My5vcmcvMTk5OS94bGluayIgeG1sbnM9Imh0dHA6Ly93d3cudzMub3JnLzIwMDAvc3ZnIiBoZWlnaHQ9IjIwMCIgd2lkdGg9IjIwMCIgdmVyc2lvbj0iMS4xIiB2aWV3Qm94PSIwIDAgMTAyNCAxMDI0IiBjbGFzcz0iaWNvbiI+PHBhdGggZmlsbD0iIzMzMzMzMyIgZD0iTTY2NC41NDUgODZjNDguMyAwIDg3LjQ1NSAzOS4xNDggODcuNDU1IDg3LjQzOVY5MDAuNTZDNzUyIDk0OC44NTIgNzEyLjg0NSA5ODggNjY0LjU0NSA5ODhoLTMwNi4wOWMtNDguMyAwLTg3LjQ1NS0zOS4xNDgtODcuNDU1LTg3LjQzOVYxNzMuNDRDMjcxIDEyNS4xNDggMzEwLjE1NSA4NiAzNTguNDU1IDg2eiBtMCA1OS44MjdoLTMwNi4wOWMtMTUuMjUzIDAtMjcuNjE4IDEyLjM2Mi0yNy42MTggMjcuNjEyVjkwMC41NmMwIDE1LjI1IDEyLjM2NSAyNy42MTIgMjcuNjE4IDI3LjYxMmgzMDYuMDljMTUuMjUzIDAgMjcuNjE4LTEyLjM2MiAyNy42MTgtMjcuNjEyVjE3My40NGMwLTE1LjI1LTEyLjM2NS0yNy42MTItMjcuNjE4LTI3LjYxMnpNNTEyLjY1MSA2NzAuNDU5YzI2LjY5MiAwIDQ4LjMzIDIxLjYzNCA0OC4zMyA0OC4zMjIgMCAyNi42ODctMjEuNjM4IDQ4LjMyMS00OC4zMyA0OC4zMjEtMjYuNjkyIDAtNDguMzMtMjEuNjM0LTQ4LjMzLTQ4LjMyMSAwLTI2LjY4OCAyMS42MzgtNDguMzIyIDQ4LjMzLTQ4LjMyMnogbTk4LjcxNC0yNzEuNTJjMTYuNTI0IDAgMjkuOTE5IDEzLjM5MiAyOS45MTkgMjkuOTEzIDAgMTYuMjg1LTEzLjAxNSAyOS41My0yOS4yMTIgMjkuOTA1bC0wLjcwNyAwLjAwOEg0MTMuNzA2Yy0xNi41MjMgMC0yOS45MTgtMTMuMzkyLTI5LjkxOC0yOS45MTMgMC0xNi4yODUgMTMuMDE1LTI5LjUzIDI5LjIxMi0yOS45MDVsMC43MDYtMC4wMDhoMTk3LjY2eiBtMC0xMTYuMDEzYzE2LjUyNCAwIDI5LjkxOSAxMy4zOTMgMjkuOTE5IDI5LjkxMyAwIDE2LjI4NS0xMy4wMTUgMjkuNTMtMjkuMjEyIDI5LjkwNWwtMC43MDcgMC4wMDhINDEzLjcwNmMtMTYuNTIzIDAtMjkuOTE4LTEzLjM5Mi0yOS45MTgtMjkuOTEzIDAtMTYuMjg0IDEzLjAxNS0yOS41MyAyOS4yMTItMjkuOTA1bDAuNzA2LTAuMDA4aDE5Ny42NnoiLz48L3N2Zz4=" vertex="1" parent="1">
          <mxGeometry x="890" y="-50" width="110" height="110" as="geometry" />
        </mxCell>
        <mxCell id="1e2kQV1l2WdOp7GWkUZe-176" value="" style="shape=image;verticalLabelPosition=bottom;verticalAlign=top;imageAspect=0;aspect=fixed;image=data:image/svg+xml,PHN2ZyB4bWxuczp4bGluaz0iaHR0cDovL3d3dy53My5vcmcvMTk5OS94bGluayIgeG1sbnM9Imh0dHA6Ly93d3cudzMub3JnLzIwMDAvc3ZnIiBoZWlnaHQ9IjIwMCIgd2lkdGg9IjIwMCIgdmVyc2lvbj0iMS4xIiB2aWV3Qm94PSIwIDAgMTAyNCAxMDI0IiBjbGFzcz0iaWNvbiI+PHBhdGggZmlsbD0iIzMzMzMzMyIgZD0iTTY2NC41NDUgODZjNDguMyAwIDg3LjQ1NSAzOS4xNDggODcuNDU1IDg3LjQzOVY5MDAuNTZDNzUyIDk0OC44NTIgNzEyLjg0NSA5ODggNjY0LjU0NSA5ODhoLTMwNi4wOWMtNDguMyAwLTg3LjQ1NS0zOS4xNDgtODcuNDU1LTg3LjQzOVYxNzMuNDRDMjcxIDEyNS4xNDggMzEwLjE1NSA4NiAzNTguNDU1IDg2eiBtMCA1OS44MjdoLTMwNi4wOWMtMTUuMjUzIDAtMjcuNjE4IDEyLjM2Mi0yNy42MTggMjcuNjEyVjkwMC41NmMwIDE1LjI1IDEyLjM2NSAyNy42MTIgMjcuNjE4IDI3LjYxMmgzMDYuMDljMTUuMjUzIDAgMjcuNjE4LTEyLjM2MiAyNy42MTgtMjcuNjEyVjE3My40NGMwLTE1LjI1LTEyLjM2NS0yNy42MTItMjcuNjE4LTI3LjYxMnpNNTEyLjY1MSA2NzAuNDU5YzI2LjY5MiAwIDQ4LjMzIDIxLjYzNCA0OC4zMyA0OC4zMjIgMCAyNi42ODctMjEuNjM4IDQ4LjMyMS00OC4zMyA0OC4zMjEtMjYuNjkyIDAtNDguMzMtMjEuNjM0LTQ4LjMzLTQ4LjMyMSAwLTI2LjY4OCAyMS42MzgtNDguMzIyIDQ4LjMzLTQ4LjMyMnogbTk4LjcxNC0yNzEuNTJjMTYuNTI0IDAgMjkuOTE5IDEzLjM5MiAyOS45MTkgMjkuOTEzIDAgMTYuMjg1LTEzLjAxNSAyOS41My0yOS4yMTIgMjkuOTA1bC0wLjcwNyAwLjAwOEg0MTMuNzA2Yy0xNi41MjMgMC0yOS45MTgtMTMuMzkyLTI5LjkxOC0yOS45MTMgMC0xNi4yODUgMTMuMDE1LTI5LjUzIDI5LjIxMi0yOS45MDVsMC43MDYtMC4wMDhoMTk3LjY2eiBtMC0xMTYuMDEzYzE2LjUyNCAwIDI5LjkxOSAxMy4zOTMgMjkuOTE5IDI5LjkxMyAwIDE2LjI4NS0xMy4wMTUgMjkuNTMtMjkuMjEyIDI5LjkwNWwtMC43MDcgMC4wMDhINDEzLjcwNmMtMTYuNTIzIDAtMjkuOTE4LTEzLjM5Mi0yOS45MTgtMjkuOTEzIDAtMTYuMjg0IDEzLjAxNS0yOS41MyAyOS4yMTItMjkuOTA1bDAuNzA2LTAuMDA4aDE5Ny42NnoiLz48L3N2Zz4=" vertex="1" parent="1">
          <mxGeometry x="940" y="-50" width="110" height="110" as="geometry" />
        </mxCell>
        <mxCell id="1e2kQV1l2WdOp7GWkUZe-177" value="" style="shape=image;verticalLabelPosition=bottom;verticalAlign=top;imageAspect=0;aspect=fixed;image=data:image/svg+xml,PHN2ZyB4bWxuczp4bGluaz0iaHR0cDovL3d3dy53My5vcmcvMTk5OS94bGluayIgeG1sbnM9Imh0dHA6Ly93d3cudzMub3JnLzIwMDAvc3ZnIiBoZWlnaHQ9IjIwMCIgd2lkdGg9IjIwMCIgdmVyc2lvbj0iMS4xIiB2aWV3Qm94PSIwIDAgMTAyNCAxMDI0IiBjbGFzcz0iaWNvbiI+PHBhdGggZmlsbD0iIzMzMzMzMyIgZD0iTTY2NC41NDUgODZjNDguMyAwIDg3LjQ1NSAzOS4xNDggODcuNDU1IDg3LjQzOVY5MDAuNTZDNzUyIDk0OC44NTIgNzEyLjg0NSA5ODggNjY0LjU0NSA5ODhoLTMwNi4wOWMtNDguMyAwLTg3LjQ1NS0zOS4xNDgtODcuNDU1LTg3LjQzOVYxNzMuNDRDMjcxIDEyNS4xNDggMzEwLjE1NSA4NiAzNTguNDU1IDg2eiBtMCA1OS44MjdoLTMwNi4wOWMtMTUuMjUzIDAtMjcuNjE4IDEyLjM2Mi0yNy42MTggMjcuNjEyVjkwMC41NmMwIDE1LjI1IDEyLjM2NSAyNy42MTIgMjcuNjE4IDI3LjYxMmgzMDYuMDljMTUuMjUzIDAgMjcuNjE4LTEyLjM2MiAyNy42MTgtMjcuNjEyVjE3My40NGMwLTE1LjI1LTEyLjM2NS0yNy42MTItMjcuNjE4LTI3LjYxMnpNNTEyLjY1MSA2NzAuNDU5YzI2LjY5MiAwIDQ4LjMzIDIxLjYzNCA0OC4zMyA0OC4zMjIgMCAyNi42ODctMjEuNjM4IDQ4LjMyMS00OC4zMyA0OC4zMjEtMjYuNjkyIDAtNDguMzMtMjEuNjM0LTQ4LjMzLTQ4LjMyMSAwLTI2LjY4OCAyMS42MzgtNDguMzIyIDQ4LjMzLTQ4LjMyMnogbTk4LjcxNC0yNzEuNTJjMTYuNTI0IDAgMjkuOTE5IDEzLjM5MiAyOS45MTkgMjkuOTEzIDAgMTYuMjg1LTEzLjAxNSAyOS41My0yOS4yMTIgMjkuOTA1bC0wLjcwNyAwLjAwOEg0MTMuNzA2Yy0xNi41MjMgMC0yOS45MTgtMTMuMzkyLTI5LjkxOC0yOS45MTMgMC0xNi4yODUgMTMuMDE1LTI5LjUzIDI5LjIxMi0yOS45MDVsMC43MDYtMC4wMDhoMTk3LjY2eiBtMC0xMTYuMDEzYzE2LjUyNCAwIDI5LjkxOSAxMy4zOTMgMjkuOTE5IDI5LjkxMyAwIDE2LjI4NS0xMy4wMTUgMjkuNTMtMjkuMjEyIDI5LjkwNWwtMC43MDcgMC4wMDhINDEzLjcwNmMtMTYuNTIzIDAtMjkuOTE4LTEzLjM5Mi0yOS45MTgtMjkuOTEzIDAtMTYuMjg0IDEzLjAxNS0yOS41MyAyOS4yMTItMjkuOTA1bDAuNzA2LTAuMDA4aDE5Ny42NnoiLz48L3N2Zz4=" vertex="1" parent="1">
          <mxGeometry x="990" y="-50" width="110" height="110" as="geometry" />
        </mxCell>
        <mxCell id="1e2kQV1l2WdOp7GWkUZe-178" value="" style="endArrow=classic;startArrow=classic;html=1;rounded=0;entryX=0.783;entryY=1.004;entryDx=0;entryDy=0;entryPerimeter=0;exitX=0.5;exitY=0;exitDx=0;exitDy=0;strokeWidth=4;" edge="1" parent="1" source="1e2kQV1l2WdOp7GWkUZe-162" target="1e2kQV1l2WdOp7GWkUZe-172">
          <mxGeometry width="50" height="50" relative="1" as="geometry">
            <mxPoint x="1190" y="370" as="sourcePoint" />
            <mxPoint x="1240" y="320" as="targetPoint" />
          </mxGeometry>
        </mxCell>
        <mxCell id="1e2kQV1l2WdOp7GWkUZe-179" value="" style="endArrow=classic;startArrow=classic;html=1;rounded=0;entryX=0.25;entryY=1;entryDx=0;entryDy=0;strokeWidth=4;" edge="1" parent="1" target="1e2kQV1l2WdOp7GWkUZe-172">
          <mxGeometry width="50" height="50" relative="1" as="geometry">
            <mxPoint x="158.46153846153845" y="400" as="sourcePoint" />
            <mxPoint x="700" y="160" as="targetPoint" />
          </mxGeometry>
        </mxCell>
        <mxCell id="1e2kQV1l2WdOp7GWkUZe-180" style="rounded=0;orthogonalLoop=1;jettySize=auto;html=1;exitX=0.5;exitY=0;exitDx=0;exitDy=0;entryX=0.5;entryY=1;entryDx=0;entryDy=0;startArrow=classicThin;startFill=1;strokeWidth=4;" edge="1" parent="1" source="1e2kQV1l2WdOp7GWkUZe-140" target="1e2kQV1l2WdOp7GWkUZe-172">
          <mxGeometry relative="1" as="geometry" />
        </mxCell>
        <mxCell id="1e2kQV1l2WdOp7GWkUZe-181" value="&lt;font style=&quot;font-size: 44px;&quot;&gt;无线接入网&lt;/font&gt;" style="text;html=1;align=center;verticalAlign=middle;resizable=0;points=[];autosize=1;strokeColor=none;fillColor=none;fontSize=44;" vertex="1" parent="1">
          <mxGeometry x="1390" y="705" width="240" height="70" as="geometry" />
        </mxCell>
        <mxCell id="1e2kQV1l2WdOp7GWkUZe-183" value="&lt;font style=&quot;font-size: 44px;&quot;&gt;核心网&lt;/font&gt;" style="text;html=1;align=center;verticalAlign=middle;resizable=0;points=[];autosize=1;strokeColor=none;fillColor=none;fontSize=44;" vertex="1" parent="1">
          <mxGeometry x="1065" y="210" width="160" height="70" as="geometry" />
        </mxCell>
        <mxCell id="1e2kQV1l2WdOp7GWkUZe-184" value="&lt;div style=&quot;text-align: justify; font-size: 45px;&quot;&gt;&lt;font style=&quot;font-size: 45px;&quot; face=&quot;Helvetica&quot;&gt;云计算中心&lt;/font&gt;&lt;/div&gt;" style="rounded=0;whiteSpace=wrap;html=1;" vertex="1" parent="1">
          <mxGeometry x="1670" y="-85" width="566" height="180" as="geometry" />
        </mxCell>
        <mxCell id="1e2kQV1l2WdOp7GWkUZe-185" value="&lt;div style=&quot;text-align: justify; font-size: 45px;&quot;&gt;&lt;div&gt;MEC服务器&lt;/div&gt;&lt;/div&gt;" style="rounded=0;whiteSpace=wrap;html=1;" vertex="1" parent="1">
          <mxGeometry x="1680" y="410" width="566" height="180" as="geometry" />
        </mxCell>
        <mxCell id="1e2kQV1l2WdOp7GWkUZe-186" value="&lt;div style=&quot;text-align: justify;&quot;&gt;&lt;font style=&quot;font-size: 45px;&quot;&gt;移动终端设备&lt;/font&gt;&lt;br&gt;&lt;/div&gt;" style="rounded=0;whiteSpace=wrap;html=1;" vertex="1" parent="1">
          <mxGeometry x="1690" y="800" width="566" height="180" as="geometry" />
        </mxCell>
      </root>
    </mxGraphModel>
  </diagram>
</mxfile>
